<mxfile host="app.diagrams.net" modified="2020-12-01T18:18:42.374Z" agent="5.0 (Windows NT 10.0; Win64; x64) AppleWebKit/537.36 (KHTML, like Gecko) Chrome/80.0.3987.165 Safari/537.36" etag="masy6GTm3vLKpC0JCEf5" version="13.10.5" type="github">
  <diagram id="0LWXl8Nej_9N3wY8k6Rw" name="Page-1">
    <mxGraphModel dx="2037" dy="1420" grid="1" gridSize="10" guides="1" tooltips="1" connect="1" arrows="1" fold="1" page="1" pageScale="1" pageWidth="1654" pageHeight="1169" math="0" shadow="0">
      <root>
        <mxCell id="0" />
        <mxCell id="1" parent="0" />
        <mxCell id="MXacxPHh818Y2eHlZTsX-59" value="" style="endArrow=none;html=1;fontFamily=Montserrat;fontSource=https%3A%2F%2Ffonts.googleapis.com%2Fcss%3Ffamily%3DMontserrat;fontSize=11;" edge="1" parent="1">
          <mxGeometry width="50" height="50" relative="1" as="geometry">
            <mxPoint x="827.5" y="60.29000000000002" as="sourcePoint" />
            <mxPoint x="1447.5" y="60" as="targetPoint" />
          </mxGeometry>
        </mxCell>
        <mxCell id="MXacxPHh818Y2eHlZTsX-21" value="" style="rounded=1;whiteSpace=wrap;html=1;arcSize=5;rotation=-90;fontFamily=Montserrat;fontSource=https%3A%2F%2Ffonts.googleapis.com%2Fcss%3Ffamily%3DMontserrat;" vertex="1" parent="1">
          <mxGeometry x="134.13" y="370.22" width="939.07" height="397.68" as="geometry" />
        </mxCell>
        <mxCell id="MXacxPHh818Y2eHlZTsX-53" value="" style="rounded=0;whiteSpace=wrap;html=1;align=left;fillColor=#f5f5f5;strokeColor=#666666;fontColor=#333333;fontFamily=Montserrat;fontSource=https%3A%2F%2Ffonts.googleapis.com%2Fcss%3Ffamily%3DMontserrat;fontSize=11;" vertex="1" parent="1">
          <mxGeometry x="987.5" y="90" width="140" height="950" as="geometry" />
        </mxCell>
        <mxCell id="MXacxPHh818Y2eHlZTsX-54" value="" style="rounded=0;whiteSpace=wrap;html=1;align=left;fillColor=#f5f5f5;strokeColor=#666666;fontColor=#333333;fontFamily=Montserrat;fontSource=https%3A%2F%2Ffonts.googleapis.com%2Fcss%3Ffamily%3DMontserrat;fontSize=11;" vertex="1" parent="1">
          <mxGeometry x="1147.5" y="90" width="140" height="950" as="geometry" />
        </mxCell>
        <mxCell id="MXacxPHh818Y2eHlZTsX-55" value="" style="rounded=0;whiteSpace=wrap;html=1;align=left;fillColor=#f5f5f5;strokeColor=#666666;fontColor=#333333;fontFamily=Montserrat;fontSource=https%3A%2F%2Ffonts.googleapis.com%2Fcss%3Ffamily%3DMontserrat;fontSize=11;" vertex="1" parent="1">
          <mxGeometry x="1307.5" y="90" width="140" height="950" as="geometry" />
        </mxCell>
        <mxCell id="MXacxPHh818Y2eHlZTsX-51" value="" style="rounded=0;whiteSpace=wrap;html=1;align=left;fillColor=#f5f5f5;strokeColor=#666666;fontColor=#333333;fontFamily=Montserrat;fontSource=https%3A%2F%2Ffonts.googleapis.com%2Fcss%3Ffamily%3DMontserrat;fontSize=11;" vertex="1" parent="1">
          <mxGeometry x="827.5" y="90" width="140" height="950" as="geometry" />
        </mxCell>
        <mxCell id="MXacxPHh818Y2eHlZTsX-1" value="&lt;font style=&quot;font-size: 35px&quot;&gt;&lt;b&gt;BACK OFFICE (BO)&lt;/b&gt;&lt;/font&gt;" style="text;html=1;strokeColor=none;fillColor=none;align=center;verticalAlign=middle;whiteSpace=wrap;rounded=0;fontFamily=Montserrat;fontSource=https%3A%2F%2Ffonts.googleapis.com%2Fcss%3Ffamily%3DMontserrat;" vertex="1" parent="1">
          <mxGeometry x="20" y="30" width="370" height="20" as="geometry" />
        </mxCell>
        <mxCell id="MXacxPHh818Y2eHlZTsX-4" value="Insourcing&lt;br style=&quot;font-size: 11px;&quot;&gt;(IS)" style="text;html=1;strokeColor=none;fillColor=none;align=center;verticalAlign=middle;whiteSpace=wrap;rounded=0;fontFamily=Montserrat;fontSource=https%3A%2F%2Ffonts.googleapis.com%2Fcss%3Ffamily%3DMontserrat;fontSize=11;fontStyle=1" vertex="1" parent="1">
          <mxGeometry x="877.5" y="100" width="40" height="20" as="geometry" />
        </mxCell>
        <mxCell id="MXacxPHh818Y2eHlZTsX-6" value="Crowdsourcing&lt;br style=&quot;font-size: 11px;&quot;&gt;(CS)" style="text;html=1;strokeColor=none;fillColor=none;align=center;verticalAlign=middle;whiteSpace=wrap;rounded=0;fontFamily=Montserrat;fontSource=https%3A%2F%2Ffonts.googleapis.com%2Fcss%3Ffamily%3DMontserrat;fontSize=11;fontStyle=1" vertex="1" parent="1">
          <mxGeometry x="1037.5" y="100" width="40" height="20" as="geometry" />
        </mxCell>
        <mxCell id="MXacxPHh818Y2eHlZTsX-9" value="Machine Learning&lt;br style=&quot;font-size: 11px;&quot;&gt;(ML)" style="text;html=1;strokeColor=none;fillColor=none;align=center;verticalAlign=middle;whiteSpace=wrap;rounded=0;fontFamily=Montserrat;fontSource=https%3A%2F%2Ffonts.googleapis.com%2Fcss%3Ffamily%3DMontserrat;fontSize=11;fontStyle=1" vertex="1" parent="1">
          <mxGeometry x="1162.5" y="100" width="110" height="20" as="geometry" />
        </mxCell>
        <mxCell id="MXacxPHh818Y2eHlZTsX-10" value="Direct Feed&lt;br style=&quot;font-size: 11px;&quot;&gt;(DF)" style="text;html=1;strokeColor=none;fillColor=none;align=center;verticalAlign=middle;whiteSpace=wrap;rounded=0;fontFamily=Montserrat;fontSource=https%3A%2F%2Ffonts.googleapis.com%2Fcss%3Ffamily%3DMontserrat;fontSize=11;fontStyle=1" vertex="1" parent="1">
          <mxGeometry x="1322.5" y="100" width="110" height="20" as="geometry" />
        </mxCell>
        <mxCell id="MXacxPHh818Y2eHlZTsX-17" value="&lt;font style=&quot;font-size: 20px&quot;&gt;REVIEW&lt;/font&gt;" style="text;html=1;strokeColor=#82b366;fillColor=#d5e8d4;align=center;verticalAlign=middle;whiteSpace=wrap;rounded=0;rotation=-90;fontFamily=Montserrat;fontSource=https%3A%2F%2Ffonts.googleapis.com%2Fcss%3Ffamily%3DMontserrat;" vertex="1" parent="1">
          <mxGeometry x="742.5" y="930" width="100" height="35" as="geometry" />
        </mxCell>
        <mxCell id="MXacxPHh818Y2eHlZTsX-23" value="" style="rounded=1;whiteSpace=wrap;html=1;arcSize=5;fontFamily=Montserrat;fontSource=https%3A%2F%2Ffonts.googleapis.com%2Fcss%3Ffamily%3DMontserrat;fontSize=11;" vertex="1" parent="1">
          <mxGeometry x="837.5" y="530" width="280" height="280" as="geometry" />
        </mxCell>
        <mxCell id="MXacxPHh818Y2eHlZTsX-24" value="" style="rounded=1;whiteSpace=wrap;html=1;arcSize=5;fontFamily=Montserrat;fontSource=https%3A%2F%2Ffonts.googleapis.com%2Fcss%3Ffamily%3DMontserrat;fontSize=11;" vertex="1" parent="1">
          <mxGeometry x="1137.5" y="530" width="160" height="280" as="geometry" />
        </mxCell>
        <mxCell id="MXacxPHh818Y2eHlZTsX-25" value="" style="rounded=1;whiteSpace=wrap;html=1;arcSize=5;fontFamily=Montserrat;fontSource=https%3A%2F%2Ffonts.googleapis.com%2Fcss%3Ffamily%3DMontserrat;fontSize=11;" vertex="1" parent="1">
          <mxGeometry x="1317.5" y="530" width="120" height="280" as="geometry" />
        </mxCell>
        <mxCell id="MXacxPHh818Y2eHlZTsX-26" value="" style="rounded=1;whiteSpace=wrap;html=1;arcSize=5;fontFamily=Montserrat;fontSource=https%3A%2F%2Ffonts.googleapis.com%2Fcss%3Ffamily%3DMontserrat;fontSize=11;" vertex="1" parent="1">
          <mxGeometry x="837.5" y="890" width="600" height="130" as="geometry" />
        </mxCell>
        <mxCell id="MXacxPHh818Y2eHlZTsX-28" value="Public Form" style="rounded=1;whiteSpace=wrap;html=1;fontFamily=Montserrat;fontSource=https%3A%2F%2Ffonts.googleapis.com%2Fcss%3Ffamily%3DMontserrat;fontSize=11;" vertex="1" parent="1">
          <mxGeometry x="997.5" y="140" width="120" height="40" as="geometry" />
        </mxCell>
        <mxCell id="MXacxPHh818Y2eHlZTsX-31" value="&lt;div style=&quot;text-align: left; font-size: 11px;&quot;&gt;QA cycle&lt;/div&gt;&lt;div style=&quot;text-align: left; font-size: 11px;&quot;&gt;- Approve&lt;/div&gt;&lt;div style=&quot;text-align: left; font-size: 11px;&quot;&gt;- Flag&lt;/div&gt;" style="rounded=0;whiteSpace=wrap;html=1;align=left;spacingLeft=7;fontFamily=Montserrat;fontSource=https%3A%2F%2Ffonts.googleapis.com%2Fcss%3Ffamily%3DMontserrat;fontSize=11;" vertex="1" parent="1">
          <mxGeometry x="857.5" y="950" width="70" height="60" as="geometry" />
        </mxCell>
        <mxCell id="MXacxPHh818Y2eHlZTsX-34" value="&lt;div style=&quot;text-align: left; font-size: 11px;&quot;&gt;Capture&lt;/div&gt;&lt;div style=&quot;text-align: left; font-size: 11px;&quot;&gt;STATS&lt;/div&gt;" style="rounded=0;whiteSpace=wrap;html=1;align=left;spacingLeft=7;fontFamily=Montserrat;fontSource=https%3A%2F%2Ffonts.googleapis.com%2Fcss%3Ffamily%3DMontserrat;fontSize=11;" vertex="1" parent="1">
          <mxGeometry x="937.5" y="950" width="60" height="60" as="geometry" />
        </mxCell>
        <mxCell id="MXacxPHh818Y2eHlZTsX-36" value="&lt;div style=&quot;text-align: left; font-size: 11px;&quot;&gt;&lt;span style=&quot;font-size: 11px;&quot;&gt;Easily compare Source Highlights vs encoded data points&lt;/span&gt;&lt;/div&gt;" style="rounded=0;whiteSpace=wrap;html=1;align=left;spacingLeft=7;fontFamily=Montserrat;fontSource=https%3A%2F%2Ffonts.googleapis.com%2Fcss%3Ffamily%3DMontserrat;fontSize=11;" vertex="1" parent="1">
          <mxGeometry x="857.5" y="900" width="320" height="40" as="geometry" />
        </mxCell>
        <mxCell id="MXacxPHh818Y2eHlZTsX-37" value="&lt;div style=&quot;text-align: left; font-size: 11px;&quot;&gt;&lt;span style=&quot;font-size: 11px;&quot;&gt;List assigned Sources&lt;/span&gt;&lt;/div&gt;" style="rounded=0;whiteSpace=wrap;html=1;align=left;spacingLeft=7;fontFamily=Montserrat;fontSource=https%3A%2F%2Ffonts.googleapis.com%2Fcss%3Ffamily%3DMontserrat;fontSize=11;" vertex="1" parent="1">
          <mxGeometry x="852.5" y="544" width="135" height="40" as="geometry" />
        </mxCell>
        <mxCell id="MXacxPHh818Y2eHlZTsX-38" value="&lt;div style=&quot;font-size: 11px;&quot;&gt;&lt;span style=&quot;font-size: 11px;&quot;&gt;Encode data points&lt;/span&gt;&lt;/div&gt;&lt;div style=&quot;font-size: 11px;&quot;&gt;&lt;span style=&quot;font-size: 11px;&quot;&gt;Text highlight&lt;/span&gt;&lt;/div&gt;" style="rounded=0;whiteSpace=wrap;html=1;align=left;spacingLeft=7;fontFamily=Montserrat;fontSource=https%3A%2F%2Ffonts.googleapis.com%2Fcss%3Ffamily%3DMontserrat;fontSize=11;" vertex="1" parent="1">
          <mxGeometry x="852.5" y="594" width="135" height="40" as="geometry" />
        </mxCell>
        <mxCell id="MXacxPHh818Y2eHlZTsX-39" value="&lt;div style=&quot;font-size: 11px;&quot;&gt;QA cycle&lt;/div&gt;&lt;div style=&quot;font-size: 11px;&quot;&gt;- Ready&lt;/div&gt;&lt;div style=&quot;font-size: 11px;&quot;&gt;- Flag&lt;/div&gt;" style="rounded=0;whiteSpace=wrap;html=1;align=left;spacingLeft=7;fontFamily=Montserrat;fontSource=https%3A%2F%2Ffonts.googleapis.com%2Fcss%3Ffamily%3DMontserrat;fontSize=11;" vertex="1" parent="1">
          <mxGeometry x="852.5" y="645" width="66" height="60" as="geometry" />
        </mxCell>
        <mxCell id="MXacxPHh818Y2eHlZTsX-41" value="&lt;div style=&quot;text-align: left; font-size: 11px;&quot;&gt;&lt;div style=&quot;font-size: 11px;&quot;&gt;Capture&lt;/div&gt;&lt;div style=&quot;font-size: 11px;&quot;&gt;STATS&lt;/div&gt;&lt;/div&gt;" style="rounded=0;whiteSpace=wrap;html=1;align=left;spacingLeft=7;fontFamily=Montserrat;fontSource=https%3A%2F%2Ffonts.googleapis.com%2Fcss%3Ffamily%3DMontserrat;fontSize=11;" vertex="1" parent="1">
          <mxGeometry x="1150" y="714" width="60" height="60" as="geometry" />
        </mxCell>
        <mxCell id="MXacxPHh818Y2eHlZTsX-43" value="&lt;div style=&quot;text-align: left; font-size: 11px;&quot;&gt;&lt;span style=&quot;font-size: 11px;&quot;&gt;Process assigned Sources&lt;/span&gt;&lt;/div&gt;" style="rounded=0;whiteSpace=wrap;html=1;align=left;spacingLeft=7;fontFamily=Montserrat;fontSource=https%3A%2F%2Ffonts.googleapis.com%2Fcss%3Ffamily%3DMontserrat;fontSize=11;" vertex="1" parent="1">
          <mxGeometry x="1150" y="544" width="135" height="40" as="geometry" />
        </mxCell>
        <mxCell id="MXacxPHh818Y2eHlZTsX-44" value="&lt;div style=&quot;text-align: left; font-size: 11px;&quot;&gt;&lt;span style=&quot;font-size: 11px;&quot;&gt;Encode data points&lt;/span&gt;&lt;/div&gt;&lt;div style=&quot;text-align: left; font-size: 11px;&quot;&gt;&lt;span style=&quot;font-size: 11px;&quot;&gt;Text highlight&lt;/span&gt;&lt;/div&gt;" style="rounded=0;whiteSpace=wrap;html=1;align=left;spacingLeft=7;fontFamily=Montserrat;fontSource=https%3A%2F%2Ffonts.googleapis.com%2Fcss%3Ffamily%3DMontserrat;fontSize=11;" vertex="1" parent="1">
          <mxGeometry x="1150" y="595" width="135" height="40" as="geometry" />
        </mxCell>
        <mxCell id="MXacxPHh818Y2eHlZTsX-49" value="&lt;div style=&quot;text-align: left; font-size: 11px;&quot;&gt;&lt;div style=&quot;font-size: 11px;&quot;&gt;Capture&lt;/div&gt;&lt;div style=&quot;font-size: 11px;&quot;&gt;STATS&lt;/div&gt;&lt;/div&gt;" style="rounded=0;whiteSpace=wrap;html=1;align=left;spacingLeft=7;fontFamily=Montserrat;fontSource=https%3A%2F%2Ffonts.googleapis.com%2Fcss%3Ffamily%3DMontserrat;fontSize=11;" vertex="1" parent="1">
          <mxGeometry x="852.5" y="714" width="60" height="60" as="geometry" />
        </mxCell>
        <mxCell id="MXacxPHh818Y2eHlZTsX-50" value="&lt;div style=&quot;font-size: 11px;&quot;&gt;QA cycle&lt;/div&gt;&lt;div style=&quot;font-size: 11px;&quot;&gt;- Ready&lt;/div&gt;&lt;div style=&quot;font-size: 11px;&quot;&gt;- Flag&lt;/div&gt;" style="rounded=0;whiteSpace=wrap;html=1;align=left;spacingLeft=7;fontFamily=Montserrat;fontSource=https%3A%2F%2Ffonts.googleapis.com%2Fcss%3Ffamily%3DMontserrat;fontSize=11;" vertex="1" parent="1">
          <mxGeometry x="1150" y="645" width="66" height="60" as="geometry" />
        </mxCell>
        <mxCell id="MXacxPHh818Y2eHlZTsX-57" value="&lt;div style=&quot;text-align: left; font-size: 11px;&quot;&gt;API&lt;/div&gt;" style="rounded=0;whiteSpace=wrap;html=1;align=left;spacingLeft=7;fontFamily=Montserrat;fontSource=https%3A%2F%2Ffonts.googleapis.com%2Fcss%3Ffamily%3DMontserrat;fontSize=11;" vertex="1" parent="1">
          <mxGeometry x="1327.5" y="544" width="100" height="40" as="geometry" />
        </mxCell>
        <mxCell id="MXacxPHh818Y2eHlZTsX-58" value="&lt;div style=&quot;text-align: left; font-size: 11px;&quot;&gt;&lt;div style=&quot;font-size: 11px;&quot;&gt;Capture&lt;/div&gt;&lt;div style=&quot;font-size: 11px;&quot;&gt;STATS&lt;/div&gt;&lt;/div&gt;" style="rounded=0;whiteSpace=wrap;html=1;align=left;spacingLeft=7;fontFamily=Montserrat;fontSource=https%3A%2F%2Ffonts.googleapis.com%2Fcss%3Ffamily%3DMontserrat;fontSize=11;" vertex="1" parent="1">
          <mxGeometry x="1327.5" y="714" width="60" height="60" as="geometry" />
        </mxCell>
        <mxCell id="MXacxPHh818Y2eHlZTsX-65" value="&lt;div style=&quot;text-align: left; font-size: 11px;&quot;&gt;PLD Research Team&lt;/div&gt;&lt;div style=&quot;text-align: left; font-size: 11px;&quot;&gt;(Manual)&lt;/div&gt;" style="rounded=1;whiteSpace=wrap;html=1;align=center;fontFamily=Montserrat;fontSource=https%3A%2F%2Ffonts.googleapis.com%2Fcss%3Ffamily%3DMontserrat;fontSize=11;" vertex="1" parent="1">
          <mxGeometry x="837.5" y="140" width="120" height="40" as="geometry" />
        </mxCell>
        <mxCell id="MXacxPHh818Y2eHlZTsX-66" value="&lt;div style=&quot;text-align: left; font-size: 11px;&quot;&gt;PLD Research Team&lt;/div&gt;&lt;div style=&quot;text-align: left; font-size: 11px;&quot;&gt;(Automated)&lt;/div&gt;" style="rounded=1;whiteSpace=wrap;html=1;align=center;fontFamily=Montserrat;fontSource=https%3A%2F%2Ffonts.googleapis.com%2Fcss%3Ffamily%3DMontserrat;fontSize=11;" vertex="1" parent="1">
          <mxGeometry x="837.5" y="190" width="120" height="40" as="geometry" />
        </mxCell>
        <mxCell id="MXacxPHh818Y2eHlZTsX-67" value="Sources Repository&lt;br style=&quot;font-size: 11px;&quot;&gt;Stage: (Pending to) Encode" style="rounded=1;whiteSpace=wrap;html=1;fontFamily=Montserrat;fontSource=https%3A%2F%2Ffonts.googleapis.com%2Fcss%3Ffamily%3DMontserrat;fontSize=11;" vertex="1" parent="1">
          <mxGeometry x="837.5" y="470" width="600" height="38" as="geometry" />
        </mxCell>
        <mxCell id="MXacxPHh818Y2eHlZTsX-68" value="Sources Repository&lt;br style=&quot;font-size: 11px;&quot;&gt;Stage: (Pending to) Review" style="rounded=1;whiteSpace=wrap;html=1;fontFamily=Montserrat;fontSource=https%3A%2F%2Ffonts.googleapis.com%2Fcss%3Ffamily%3DMontserrat;fontSize=11;" vertex="1" parent="1">
          <mxGeometry x="837.5" y="830" width="600" height="40" as="geometry" />
        </mxCell>
        <mxCell id="MXacxPHh818Y2eHlZTsX-69" value="Sources Repository&lt;br style=&quot;font-size: 11px;&quot;&gt;Stage: (Pending to)&amp;nbsp;Triage" style="rounded=1;whiteSpace=wrap;html=1;fontFamily=Montserrat;fontSource=https%3A%2F%2Ffonts.googleapis.com%2Fcss%3Ffamily%3DMontserrat;fontSize=11;" vertex="1" parent="1">
          <mxGeometry x="837.5" y="250" width="440" height="40" as="geometry" />
        </mxCell>
        <mxCell id="MXacxPHh818Y2eHlZTsX-70" value="DATA POINTS in DATABASE" style="rounded=1;whiteSpace=wrap;html=1;fontFamily=Montserrat;fontSource=https%3A%2F%2Ffonts.googleapis.com%2Fcss%3Ffamily%3DMontserrat;fontSize=11;" vertex="1" parent="1">
          <mxGeometry x="837.5" y="1075" width="600" height="40" as="geometry" />
        </mxCell>
        <mxCell id="MXacxPHh818Y2eHlZTsX-72" value="&lt;div style=&quot;text-align: left; font-size: 11px;&quot;&gt;Research&lt;/div&gt;&lt;div style=&quot;text-align: left; font-size: 11px;&quot;&gt;&lt;span style=&quot;font-size: 11px;&quot;&gt;(Automated)&lt;/span&gt;&lt;/div&gt;" style="rounded=1;whiteSpace=wrap;html=1;align=center;fontFamily=Montserrat;fontSource=https%3A%2F%2Ffonts.googleapis.com%2Fcss%3Ffamily%3DMontserrat;fontSize=11;" vertex="1" parent="1">
          <mxGeometry x="1157.5" y="140" width="120" height="40" as="geometry" />
        </mxCell>
        <mxCell id="MXacxPHh818Y2eHlZTsX-73" value="&lt;div style=&quot;text-align: left; font-size: 11px;&quot;&gt;Partnerships&lt;/div&gt;" style="rounded=1;whiteSpace=wrap;html=1;align=center;fontFamily=Montserrat;fontSource=https%3A%2F%2Ffonts.googleapis.com%2Fcss%3Ffamily%3DMontserrat;fontSize=11;" vertex="1" parent="1">
          <mxGeometry x="1317.5" y="140" width="120" height="40" as="geometry" />
        </mxCell>
        <mxCell id="MXacxPHh818Y2eHlZTsX-74" value="&lt;font style=&quot;font-size: 20px&quot;&gt;DATA READY&lt;/font&gt;" style="text;html=1;strokeColor=#432D57;fillColor=#76608a;align=center;verticalAlign=middle;whiteSpace=wrap;rounded=1;fontColor=#ffffff;fontStyle=1;fontFamily=Montserrat;fontSource=https%3A%2F%2Ffonts.googleapis.com%2Fcss%3Ffamily%3DMontserrat;" vertex="1" parent="1">
          <mxGeometry x="697.5" y="1070" width="100" height="50" as="geometry" />
        </mxCell>
        <mxCell id="MXacxPHh818Y2eHlZTsX-75" value="" style="rounded=1;whiteSpace=wrap;html=1;arcSize=5;fontFamily=Montserrat;fontSource=https%3A%2F%2Ffonts.googleapis.com%2Fcss%3Ffamily%3DMontserrat;fontSize=11;" vertex="1" parent="1">
          <mxGeometry x="837.5" y="310" width="280" height="140" as="geometry" />
        </mxCell>
        <mxCell id="MXacxPHh818Y2eHlZTsX-76" value="&lt;div style=&quot;text-align: left; font-size: 11px;&quot;&gt;&lt;span style=&quot;font-size: 11px;&quot;&gt;Triage assigned Sources&lt;/span&gt;&lt;/div&gt;" style="rounded=0;whiteSpace=wrap;html=1;align=left;spacingLeft=7;fontFamily=Montserrat;fontSource=https%3A%2F%2Ffonts.googleapis.com%2Fcss%3Ffamily%3DMontserrat;fontSize=11;" vertex="1" parent="1">
          <mxGeometry x="852.5" y="324" width="147.5" height="40" as="geometry" />
        </mxCell>
        <mxCell id="MXacxPHh818Y2eHlZTsX-78" value="&lt;div style=&quot;font-size: 11px;&quot;&gt;QA cycle&lt;/div&gt;&lt;div style=&quot;font-size: 11px;&quot;&gt;- Ready&lt;/div&gt;&lt;div style=&quot;font-size: 11px;&quot;&gt;- Flag&lt;/div&gt;" style="rounded=0;whiteSpace=wrap;html=1;align=left;spacingLeft=7;fontFamily=Montserrat;fontSource=https%3A%2F%2Ffonts.googleapis.com%2Fcss%3Ffamily%3DMontserrat;fontSize=11;" vertex="1" parent="1">
          <mxGeometry x="852.5" y="375" width="66" height="60" as="geometry" />
        </mxCell>
        <mxCell id="MXacxPHh818Y2eHlZTsX-79" value="&lt;div style=&quot;text-align: left; font-size: 11px;&quot;&gt;&lt;div style=&quot;font-size: 11px;&quot;&gt;Capture&lt;/div&gt;&lt;div style=&quot;font-size: 11px;&quot;&gt;STATS&lt;/div&gt;&lt;/div&gt;" style="rounded=0;whiteSpace=wrap;html=1;align=left;spacingLeft=7;fontFamily=Montserrat;fontSource=https%3A%2F%2Ffonts.googleapis.com%2Fcss%3Ffamily%3DMontserrat;fontSize=11;" vertex="1" parent="1">
          <mxGeometry x="940" y="375" width="60" height="60" as="geometry" />
        </mxCell>
        <mxCell id="MXacxPHh818Y2eHlZTsX-83" value="&lt;font style=&quot;font-size: 20px&quot;&gt;TRIAGE&lt;/font&gt;" style="text;html=1;strokeColor=#10739e;fillColor=#b1ddf0;align=center;verticalAlign=middle;whiteSpace=wrap;rounded=0;rotation=-90;fontFamily=Montserrat;fontSource=https%3A%2F%2Ffonts.googleapis.com%2Fcss%3Ffamily%3DMontserrat;" vertex="1" parent="1">
          <mxGeometry x="730" y="362.5" width="125" height="35" as="geometry" />
        </mxCell>
        <mxCell id="MXacxPHh818Y2eHlZTsX-84" value="&lt;font style=&quot;font-size: 20px&quot;&gt;ENCODING&lt;/font&gt;" style="text;html=1;strokeColor=#d79b00;fillColor=#ffe6cc;align=center;verticalAlign=middle;whiteSpace=wrap;rounded=0;rotation=-90;fontFamily=Montserrat;fontSource=https%3A%2F%2Ffonts.googleapis.com%2Fcss%3Ffamily%3DMontserrat;" vertex="1" parent="1">
          <mxGeometry x="665" y="651.5" width="255" height="35" as="geometry" />
        </mxCell>
        <mxCell id="MXacxPHh818Y2eHlZTsX-85" value="&lt;font style=&quot;font-size: 20px&quot;&gt;RESEARCH&lt;/font&gt;" style="text;html=1;strokeColor=#9673a6;fillColor=#e1d5e7;align=center;verticalAlign=middle;whiteSpace=wrap;rounded=0;rotation=-90;fontFamily=Montserrat;fontSource=https%3A%2F%2Ffonts.googleapis.com%2Fcss%3Ffamily%3DMontserrat;" vertex="1" parent="1">
          <mxGeometry x="730" y="172.5" width="125" height="35" as="geometry" />
        </mxCell>
        <mxCell id="MXacxPHh818Y2eHlZTsX-86" value="&lt;font style=&quot;font-size: 20px&quot;&gt;RESEARCH CONTROL PANEL&lt;/font&gt;" style="text;html=1;strokeColor=#d6b656;fillColor=#fff2cc;align=center;verticalAlign=middle;whiteSpace=wrap;rounded=0;rotation=-90;fontFamily=Montserrat;fontSource=https%3A%2F%2Ffonts.googleapis.com%2Fcss%3Ffamily%3DMontserrat;" vertex="1" parent="1">
          <mxGeometry x="180" y="549" width="440" height="35" as="geometry" />
        </mxCell>
        <mxCell id="MXacxPHh818Y2eHlZTsX-88" value="&lt;div style=&quot;text-align: left; font-size: 11px;&quot;&gt;Source Providers&lt;/div&gt;" style="rounded=1;whiteSpace=wrap;html=1;align=center;fontFamily=Montserrat;fontSource=https%3A%2F%2Ffonts.googleapis.com%2Fcss%3Ffamily%3DMontserrat;fontSize=11;" vertex="1" parent="1">
          <mxGeometry x="1317.5" y="190" width="120" height="40" as="geometry" />
        </mxCell>
        <mxCell id="MXacxPHh818Y2eHlZTsX-89" value="&lt;font style=&quot;font-size: 20px&quot;&gt;STAGE&lt;/font&gt;" style="text;html=1;strokeColor=#0e8088;fillColor=#b0e3e6;align=center;verticalAlign=middle;whiteSpace=wrap;rounded=1;fontStyle=1;fontFamily=Montserrat;fontSource=https%3A%2F%2Ffonts.googleapis.com%2Fcss%3Ffamily%3DMontserrat;" vertex="1" parent="1">
          <mxGeometry x="697.5" y="40" width="100" height="50" as="geometry" />
        </mxCell>
        <mxCell id="MXacxPHh818Y2eHlZTsX-45" value="&lt;div style=&quot;text-align: left&quot;&gt;&lt;span&gt;List Users + DSLs + Territories&lt;/span&gt;&lt;/div&gt;" style="rounded=0;whiteSpace=wrap;html=1;align=left;spacingLeft=7;rotation=0;fontFamily=Montserrat;fontSource=https%3A%2F%2Ffonts.googleapis.com%2Fcss%3Ffamily%3DMontserrat;" vertex="1" parent="1">
          <mxGeometry x="430" y="544" width="330" height="40" as="geometry" />
        </mxCell>
        <mxCell id="MXacxPHh818Y2eHlZTsX-46" value="&lt;div style=&quot;text-align: left&quot;&gt;&lt;span&gt;Assign Users to (DSLs + Territories)&lt;/span&gt;&lt;/div&gt;" style="rounded=0;whiteSpace=wrap;html=1;align=left;spacingLeft=7;rotation=0;fontFamily=Montserrat;fontSource=https%3A%2F%2Ffonts.googleapis.com%2Fcss%3Ffamily%3DMontserrat;" vertex="1" parent="1">
          <mxGeometry x="430" y="594" width="330" height="40" as="geometry" />
        </mxCell>
        <mxCell id="MXacxPHh818Y2eHlZTsX-47" value="&lt;div style=&quot;text-align: left&quot;&gt;Show&lt;/div&gt;&lt;div style=&quot;text-align: left&quot;&gt;STATS&lt;/div&gt;" style="rounded=0;whiteSpace=wrap;html=1;align=left;spacingLeft=7;rotation=0;fontFamily=Montserrat;fontSource=https%3A%2F%2Ffonts.googleapis.com%2Fcss%3Ffamily%3DMontserrat;" vertex="1" parent="1">
          <mxGeometry x="430" y="645" width="50" height="60" as="geometry" />
        </mxCell>
        <mxCell id="MXacxPHh818Y2eHlZTsX-91" value="&lt;div style=&quot;text-align: left&quot;&gt;&lt;span&gt;List Users + DSLs + Territories + Sources&lt;/span&gt;&lt;/div&gt;" style="rounded=0;whiteSpace=wrap;html=1;align=left;spacingLeft=7;rotation=0;fontFamily=Montserrat;fontSource=https%3A%2F%2Ffonts.googleapis.com%2Fcss%3Ffamily%3DMontserrat;" vertex="1" parent="1">
          <mxGeometry x="430" y="320" width="330" height="40" as="geometry" />
        </mxCell>
        <mxCell id="MXacxPHh818Y2eHlZTsX-92" value="&lt;div style=&quot;text-align: left&quot;&gt;&lt;span&gt;Assign Users to (DSLs + Territories)&lt;/span&gt;&lt;/div&gt;" style="rounded=0;whiteSpace=wrap;html=1;align=left;spacingLeft=7;rotation=0;fontFamily=Montserrat;fontSource=https%3A%2F%2Ffonts.googleapis.com%2Fcss%3Ffamily%3DMontserrat;" vertex="1" parent="1">
          <mxGeometry x="430" y="370" width="330" height="40" as="geometry" />
        </mxCell>
        <mxCell id="MXacxPHh818Y2eHlZTsX-93" value="&lt;div style=&quot;text-align: left&quot;&gt;Show&lt;/div&gt;&lt;div style=&quot;text-align: left&quot;&gt;STATS&lt;/div&gt;" style="rounded=0;whiteSpace=wrap;html=1;align=left;spacingLeft=7;rotation=0;fontFamily=Montserrat;fontSource=https%3A%2F%2Ffonts.googleapis.com%2Fcss%3Ffamily%3DMontserrat;" vertex="1" parent="1">
          <mxGeometry x="430" y="420" width="50" height="60" as="geometry" />
        </mxCell>
        <mxCell id="MXacxPHh818Y2eHlZTsX-94" value="&lt;div style=&quot;text-align: left&quot;&gt;&lt;span&gt;Assign Users to (DSLs + Territories)&lt;/span&gt;&lt;/div&gt;" style="rounded=0;whiteSpace=wrap;html=1;align=left;spacingLeft=7;rotation=0;fontFamily=Montserrat;fontSource=https%3A%2F%2Ffonts.googleapis.com%2Fcss%3Ffamily%3DMontserrat;" vertex="1" parent="1">
          <mxGeometry x="430" y="900" width="330" height="40" as="geometry" />
        </mxCell>
        <mxCell id="MXacxPHh818Y2eHlZTsX-95" value="&lt;div style=&quot;text-align: left&quot;&gt;Show&lt;/div&gt;&lt;div style=&quot;text-align: left&quot;&gt;STATS&lt;/div&gt;" style="rounded=0;whiteSpace=wrap;html=1;align=left;spacingLeft=7;rotation=0;fontFamily=Montserrat;fontSource=https%3A%2F%2Ffonts.googleapis.com%2Fcss%3Ffamily%3DMontserrat;" vertex="1" parent="1">
          <mxGeometry x="430" y="951" width="50" height="60" as="geometry" />
        </mxCell>
        <mxCell id="MXacxPHh818Y2eHlZTsX-96" value="&lt;div style=&quot;text-align: left&quot;&gt;&lt;span&gt;List Users + DSLs + Territories + Source Origins&lt;/span&gt;&lt;/div&gt;" style="rounded=0;whiteSpace=wrap;html=1;align=left;spacingLeft=7;rotation=0;fontFamily=Montserrat;fontSource=https%3A%2F%2Ffonts.googleapis.com%2Fcss%3Ffamily%3DMontserrat;" vertex="1" parent="1">
          <mxGeometry x="430" y="132.5" width="330" height="40" as="geometry" />
        </mxCell>
        <mxCell id="MXacxPHh818Y2eHlZTsX-97" value="&lt;div style=&quot;text-align: left&quot;&gt;Show&lt;/div&gt;&lt;div style=&quot;text-align: left&quot;&gt;STATS&lt;/div&gt;" style="rounded=0;whiteSpace=wrap;html=1;align=left;spacingLeft=7;rotation=0;fontFamily=Montserrat;fontSource=https%3A%2F%2Ffonts.googleapis.com%2Fcss%3Ffamily%3DMontserrat;" vertex="1" parent="1">
          <mxGeometry x="430" y="230" width="50" height="60" as="geometry" />
        </mxCell>
        <mxCell id="MXacxPHh818Y2eHlZTsX-98" value="&lt;div style=&quot;text-align: left&quot;&gt;Assign Users to (DSLs + Territories + Source Origins)&lt;br&gt;&lt;/div&gt;" style="rounded=0;whiteSpace=wrap;html=1;align=left;spacingLeft=7;rotation=0;fontFamily=Montserrat;fontSource=https%3A%2F%2Ffonts.googleapis.com%2Fcss%3Ffamily%3DMontserrat;" vertex="1" parent="1">
          <mxGeometry x="430" y="180" width="330" height="40" as="geometry" />
        </mxCell>
        <mxCell id="MXacxPHh818Y2eHlZTsX-99" value="" style="shape=image;verticalLabelPosition=bottom;labelBackgroundColor=#ffffff;verticalAlign=top;aspect=fixed;imageAspect=0;image=data:image/png,iVBORw0KGgoAAAANSUhEUgAAB9AAAAfQCAYAAACaOMR5AAAACXBIWXMAAC4jAAAuIwF4pT92AAAAGXRFWHRTb2Z0d2FyZQBBZG9iZSBJbWFnZVJlYWR5ccllPAAA+zBJREFUeNrs3T1yG8m6JuDkxHGuRe4A1AqoXgGhFUgxgQgYMIixx2jOClTaAWWMDxllVETFje4VXGgFTa2gyR2Q1piYLLDOuerT+iFA/FTV9zwRiDSOQJFvHaoz8eWXebJarRIAAAAAAAAARPc/RAAAAAAAAAAACugAAAAAAAAAsKaADgAAAAAAAABJAR0AAAAAAAAA1hTQAQAAAAAAACApoAMAAAAAAADAmgI6AAAAAAAAACQFdAAAAAAAAABYU0AHAAAAAAAAgKSADgAAAAAAAABrCugAAAAAAAAAkBTQAQAAAAAAAGBNAR0AAAAAAAAAkgI6AAAAAAAAAKwpoAMAAAAAAABAUkAHAAAAAAAAgDUFdAAAAAAAAABICugAAAAAAAAAsKaADgAAAAAAAABJAR0AAAAAAAAA1hTQAQAAAAAAACApoAMAAAAAAADAmgI6AAAAAAAAACQFdAAAAAAAAABYU0AHAAAAAAAAgKSADgAAAAAAAABrCugAAAAAAAAAkBTQAQAAAAAAAGBNAR0AAAAAAAAAkgI6AAAAAAAAAKwpoAMAAAAAAABAUkAHAAAAAAAAgDUFdAAAAAAAAABICugAAAAAAAAAsKaADgAAAAAAAABJAR0AAAAAAAAA1hTQAQAAAAAAACApoAMAAAAAAADAmgI6AAAAAAAAACQFdAAAAAAAAABYU0AHAAAAAAAAgKSADgAAAAAAAABrCugAAAAAAAAAkBTQAQAAAAAAAGBNAR0AAAAAAAAAkgI6AAAAAAAAAKwpoAMAAAAAAABAUkAHAAAAAAAAgDUFdAAAAAAAAABICugAAAAAAAAAsKaADgAAAAAAAABJAR0AAAAAAAAA1hTQAQAAAAAAACApoAMAAAAAAADAmgI6AAAAAAAAACQFdAAAAAAAAABYU0AHAAAAAAAAgKSADgAAAAAAAABrCugAAAAAAAAAkBTQAQAAAAAAAGBNAR0AAAAAAAAAkgI6AAAAAAAAAKwpoAMAAAAAAABAUkAHAAAAAAAAgDUFdAAAAAAAAABICugAAAAAAAAAsKaADgAAAAAAAABJAR0AAAAAAAAA1hTQAQAAAAAAACApoAMAAAAAAADAmgI6AAAAAAAAACQFdAAAAAAAAABYU0AHAAAAAAAAgKSADgAAAAAAAABrCugAAAAAAAAAkBTQAQAAAAAAAGBNAR0AAAAAAAAAkgI6AAAAAAAAAKwpoAMAAAAAAABAUkAHAAAAAAAAgDUFdAAAAAAAAABICugAAAAAAAAAsKaADgAAAAAAAABJAR0AAAAAAAAA1hTQAQAAAAAAACApoAMAAAAAAADAmgI6AAAAAAAAACQFdAAAAAAAAABYU0AHAAAAAAAAgKSADgAAAAAAAABrCugAAAAAAAAAkBTQAQAAAAAAAGBNAR0AAAAAAAAAkgI6AAAAAAAAAKwpoAMAAAAAAABAUkAHAAAAAAAAgDUFdAAAAAAAAABICugAAAAAAAAAsKaADgAAAAAAAABJAR0AAAAAAAAA1hTQAQAAAAAAACApoAMAAAAAAADAmgI6AAAAAAAAACQFdAAAAAAAAABYU0AHAAAAAAAAgKSADgAAAAAAAABrCugAAAAAAAAAkBTQAQAAAAAAAGBNAR0AAAAAAAAAkgI6AAAAAAAAAKz9QwQAAPRBWdVnebiWBB20mE0nd2I4jv/3f//nUgq9cf0f//s/b8VwtP+OFlLAf0MZ+L9z8zzMJfEvt/n36/qZ2b3Ow80zv+5Dk3P+2g/Wp+m3TeZBOTPzIICeUEAHAKAvivz6VQx00DK/7sRwNJci6I0zERzVexHQQU3R7p0Y2JFz84IX/Td6k+yu2/VZ9PXp5YYZA9ATjnAHAKDzyqo+T4rnAABD8zbP88ZigN5533atR12fjq1PAYZNAR0AgD5YiAAAYJBuRADWaH52ALpEAR0AgE5rd/c7ihEAYJgu2rurgf797hYB16fNzzzy+AGGTQEdAICuW4gAAGDQbsqqdj8w9E+oo9zbn/W9xw4wfAroAAB0VlnV18nufgCAoTvNr0IM0EuLQD+rKycAglBABwCgk9oupEISAAAh/Jrnf+digN65aDc+D3192vyMrhYDCEIBHQCArmp295+KAQAgjIUIoJeKIW+AaX+2wmMGiEMBHQCAzmnvlruSBABAKJd5HjgWA/ROs/F5MeCfz+ZugGAU0AEA6CJ3ywEAxLQQAfTS5RCPcs8/07s8vPV4AWL5hwgAAOiS9gMKd8sBAMQ0aopws+nEhko2tciv5QH/vv/a4j3/J79uD/T9PRzhGTRHuf+Wf3/vBrI2PUs29QCEpIAOAEDX+LAUACC2pgi3mE0nD6Lgudqi7d2h/r78/9Ft3nabv8/lgB/DabueezeUf4uSo9sBQnKEOwAAnVFWdZGHkSQAAEL7ZxEO6J+37alifV+bjvPwq8cJEJMCOgAAnVBW9XkeriUBAEB2leeHr8UAvbRojz/v9c/gMQLEpYAOAEBXFMnxeAAA/Ddd6NBPzbpu0ddv3sloACigAwBwdO3xeFeSAADgK5dDOAoagurlUe7tyRfvPT6A2BTQAQDogkIEAAB8gy506K8+HuW+8NgAUEAHAOCoyqqe5+FSEgAAfMOoPU4Z6J/mKPfe/P7mf2uu83DhsQGggA4AwNG03QiFJAAA+IHrPG88FwP00q/tlV1dX5ueW5sC8E8K6AAAHFOzw38kBgAAfqBXXazA3/ThKPdF+28NACigAwBwHO0O//eSAADgGa760MUKfFOzabro8Nr0XXKtGABfUUAHAOBYbkQAAMAGChFAb3XyKPe2M37h8QDwNQV0AAAOrv3g5K0kAADYwGWeR87FAL216OD31Gzs3vTo9nuPEmDYFNABADgG3ecAAGyj6MFdyhDBNkXkUf79LbryA7Qbu682fNvnpGMdYPAU0AEAOKi2a+hCEgAAbKG5S/laDHB0i/RUTN7U+7wmfN2Bdek2R7c/5tfcowcYPgV0AAAOpv2QQvc5AAAv0RTgzsUARzdPT0XlTS068L03G3FGG76nmE0ndx47wPApoAMAcEhF2vx+OQAA+Hc2ZcKRtcXkYou3XhzzKPe2A/79hm/7kn9e/+4ABKGADgDAQbRdQr9KAgCAHXjb3l8MHFFbVN72KPfzI33biy3eM/e0AeJQQAcA4FAWIgAAYId0g0I3zFNPjnIvq7o5uv1iw7d9mE0ntx4zQBwK6AAA7F3bHXQpCQAAdqg5BnouBjiuFxzlftkWtA+1Lj3f4vtsjm4vPGWAWBTQAQA4hIUIAADYg5uyqs/EAMf1gqPciwMe5d6sS083fM+1pwsQjwI6AAB71XYUjCQBAMAeNMWwQgzQCfO0+VHuze/w4gDr0ndp81PRPs6mk6XHChCPAjoAAHvTdgMVkgAAYI9+PWAHK/AdXT3KvV2XLjZ82721LEBcCugAAOxTc4zfqRgAANizhQjg+F54lPu+rmPYZl06zz/LgycKEJMCOgAAe1FW9es8XEkCAIADaDpYx2KATpinjhzl3v67sOm69HdHtwPEpoAOAMC+3IgAAIADWogAju8FR7m/be8q34ktj25vCv9zTxEgNgV0AAB2rv3Q41ISAAAc0Gif9ygDz/eCo9wXOzzKvfn3YLThexzdDoACOgAAe6H7HACAY9jnPcrAZubpSEe5t1eKvd/wbc3R7b95bAAooAMAsFNlVRdp813+AACwC03xzWZO6IAXHuU+fuFfv9jwzzeFfidYALCmgA4AwM6UVX2efOgAAMBxXbXdp8CRHeMo93ZT98WGbyvagj8AKKADALBTRXrq+gEAgGPShQ7dMd/iPaO0Rff6lpu6P7eFfgBYU0AHAGAn2iP2riQBAEAHXOb56TsxwPG1nd0ftnjrr1sc5b5Im2/qnntKAHxNAR0AgF0pRAAAQIfoKIWOmE0nzXrxyxZvffZR7vnPzfNwueHX/+DodgD+nQI6AAAvtuUHFQAAsE+j9i5koBvm2/wep2ds1m6L7JtumvnSFvYB4C8U0AEAeJH2g4pCEgAAdNB1eycycGSz6eQ2bX+U++uf/JlFcnQ7ADuigA4AwEtdp6euAAAA6JqmoFaIAbrhJUe5f+9/aO9Jf7vh1/vYFvQB4G8U0AEA2FrbzfNeEgAAdNhVW2ADumG+xXsuvnUlQ3si2mLDr3WfbKwB4AcU0AEAeIkbEQAA0AOFCKAbXnCU+/tvHOXe/G5veiLaPH8PD54EAN+jgA4AwFa2PCYPAACO4TLPX+digG7YxVHubTH91w3f3xzdvvQEAPgRBXQAALal+xwAgD4p2uOegW6Yb/Ger49yX2z43sfkNAoAnkEBHQCAjbXdOxeSAACgR5pjnq/FAN3wgqPcr/OadLHFmtTR7QA8iwI6AAAbabt2dJ8DANBHzR3K52KAbtjyKPfT/Lra8D2/57/rN4kD8BwK6AAAbKpITx9YAABAH9kMCt0y3/PXfzzA3wHAgCigAwDwbG23zq+SAACgx97mee1YDNANLzjK/bkKR7cDsAkFdAAANrEQAQAAA6ALHTpky6Pcn+Nz/tp+3wHYiAI6AADP0nbpXEoCAIABuMjz27kYoFN2/Tvp6HYAtqKADgDAcy1EAADAgNyUVX0mBuiGPRzl3hzdfidZADalgA4AwE+VVX2dh5EkAAAYkNP8KsQA3bHDo9y/OLodgG0poAMA8ENtV04hCQAABujXPN89FwN0yrwjXwOAoBTQAQD4mWbX/qkYAAAYqIUIoDt2cJT7h/ZrAMBWFNABAPiusqpf5+FKEgAADNhlnveOxQDd0R7lfr/FW+/b9wLA1hTQAQD4EXfGAQAQwUIE0DnzA70HAP5CAR0AgG8qq/pdHi4lAQBAAKM8/70WA3THbDpZ5uHjBm/52L4HAF5EAR0AgO/RfQ4AQCRFWdVnYoBu/V6m5x3lft/+WQB4MQV0AAD+pqzqIg8jSQAAEMhpsokUOmU2nTyk5x3Lft3+WQB4MQV0AAD+oqzq8zw4vhIAgIiu8nz4tRigO55xlPvv+c/8JikAduUfIgAA4N8U6an7BgAAImq60MdigM6tU79XJL/twfff/Juy9BgB+kEBHQCAfymrulnUX0kCAIDALvO8+J2OVuiO9nj2pSQAOARHuAMA8LVCBAAA4C50AICoFNABAFgrq3qeh0tJAABAGuX5cSEGAIB4FNABAGiK52dJ9zkAAHztOs+Tz8UAABCLAjoAAI3r/BqJAQAA/uU02WQKABCOAjoAQHBtV817SQAAwN9c5fnyWAwAAHEooAMAcCMCAAD4rkIEAABxKKADAATWdtO8lQQAAHzXZZ43z8UAABDDP0QAABCa7nMAAPi5oqzq32bTyYMoaL3Z4j23Hf1Zbrf4ee4CP/tFfi3lBTBcCugAAEG1XTQXkgAAgJ8a5dd1cpw7rdl0shzQz9JsDFl6qs/O6y4piAMMmiPcAQACKqv6LOk+BwCATbzP8+hzMQAADJsCOgBATEV+nYoBAAA2YhMqAMDAKaADAATTds38KgkAANjY2zyfHosBAGC4FNABAOJZiAAAALamCx0AYMAU0AEAAmm7ZS4lAQAAW7vI8+q5GAAAhkkBHQAgloUIAADgxW7Kqj4TAwDA8CigAwAEUVb1dR5GkgAAgBc7za9CDAAAw6OADgAQQNsdU0gCAAB25tc8zz4XAwDAsCigAwDEUKSnLhkAAGB3FiIAABgWBXQAgIErq/p1Hn6VBAAA7Nxlnm+PxQAAMBwK6AAAw3cjAgAA2JuFCAAAhkMBHQBgwMqqfpeHS0kAAMDejPK8+1oMAADDoIAOADBsus8BAGD/irKqz8QAANB/CugAAANVVnWRh5EkAABg706TzasAAIOggA4AMEBt94tjJAEA4HCu8jz8tRgAAPpNAR0AYJia7pdTMQAAwMHn4QAA9JgCOgDAwJRVPc7DlSQAAODgLvN8/J0YAAD6SwEdAGB4ChEAAMDR6EIHAOgxBXQAgAEpq3qeh0tJAADA0YzyvLwQAwBAPymgAwAMRFnVZ0n3OQAAdMF1np+fiwEAoH8U0AEAhuM6v0ZiAACAoztNNrcCAPSSAjoAwAC03S3XkgAAgM64yvP0sRgAAPpFAR0AYBhu0lOXCwAA0B2FCAAA+kUBHQCg59qulreSAACAzrnM8/W5GAAA+kMBHQCg/25EAAAAnVWUVX0mBgCAflBABwDosbab5UISAADQWaP8uhYDAEA/KKADAPRU28Wi+xwAALrvfZ6/n4sBAKD7FNABAPqr6WI5FQMAAPSCza8AAD2ggA4A0ENt98p7SQAAQG+8zfP4sRgAALrtHyIAAOilhQhC+SyCTnsQwVF9EEFv3InAf0v4rtfJyUJR3LTPGwCAjjpZrVZSAADokbZr5b8kEcan2XQyFwMADHp+VySnC0Xyv/L8biEGAIBucoQ7AED/LEQQxmN6uuseABiw2XRS5OFeEmHclFV9JgYAgG5SQAcA6JGyqpti6kgSYRSz6cTx4AAQg01zcTTH9RdiAADoJke4AwD0RNulcpfcjxnF/Ww6ORcDAISa7y3zcCmJMF7l+d6dGAAAukUHOgBAfxRJ8TySuQgAIBxd6LEsRAAA0D060AEAeqCs6td5+EMSYXyeTSdjMQBAyHnfIg9XkgjjTZ73LcUAANAdOtABAPrhRgShzEUAAGE1XeiPYghjIQIAgG5RQAcA6Liyqt8ld2FG8tFdmAAQV54HPKSnq3uIYZTn+47uBwDoEAV0AIDu030eR9NtVogBAGKbTSfN/O9eEmEUZVWfiQEAoBsU0AEAOqys6iIPI0mEcd12nQEAzEUQxmmyaRYAoDNOVquVFAAAOqjtQrlLTx+oMXxfZtPJazEAAF/NB5fJVT6R/JLng7diAAA4Lh3oAADd1XShKJ7H4e5LAODfzUUQbv4PAMCRKaADAHRQWdXjPFxJIozfZ9PJUgwAwNfy/OAuDx8lEcZlXge8EwMAwHEpoAMAdFMhglB0nwMAP5oXPoohDF3oAABHpoAOANAxZVXPk7suI/nQdpcBAPxNnic8JJvtIhnl9UAhBgCA41FABwDokLKqz5Lu80juky4jAOAnZtPJIg9fJBHGdV4XnIsBAOA4FNABALql6S4aiSGMou0qAwB4zjyRGE6TTbUAAEdzslqtpAAA0AFtl8ltevrAjOH7PJtOxmIAADaYL/6Wh7eSCONNni8uxQAAcFg60AEAuqM5ylvxPI5CBADAhnShmy8CALBnCugAAB1QVvU46SaK5JNuIgBgU3n+cJeHD5II4zKvE+ZiAAA4LAV0AIBuuBFBGI9JNxEA8LJ5470YwijKqj4TAwDA4SigAwAcWdtVciGJMG7a7jEAgI3lecRDshkvklFydD8AwEGdrFYrKQAAHEnbTXKX3H0exf1sOjkXAwCwg3nkMg+XkgjjlU2YAACHoQMdAOC4mm4SxfNYzxsAYBcKEYTiyicAgAPRgQ4AcCRlVZ/n4U9JhPF5Np2MxQAA7HA+ucjDlSTCeJPnk0sxAADslw50AIDjWYggFN3nAMCuFfn1KIYwdKEDAByAAjoAwBGUVT1O7qyM5NNsOrkVAwCwS+2d2IqqcVzkdcRcDAAA+6WADgBwHAsRhNF0hek+BwD2YjadFHm4l0QYN2VVn4kBAGB/FNABAA6srOqmmDqSRBjFbDp5EAMAsEc268Vxmp6O7gcAYE9OVquVFAAADqTtFrlLTx98MXz3s+nkXAwAwAHmmcvkiqBIXrVH+AMAsGM60AEADqtIiueRzEUAAByILvRYFiIAANgPHegAAAdSVvXrPPwhiTA+z6aTsRgAgAPONxd5uJJEGG/yfHMpBgCA3dKBDgBwODciCGUuAgDgwJou9EcxhLEQAQDA7imgAwAcQFnV75I7KSP56E5KAODQ8vzjIT1dGUQMo7zOcHQ/AMCOKaADAByG7vM4mq6vQgwAwDHMppNm3nkviTCKsqrPxAAAsDsK6AAAe1ZWdZGHkSTCuG67vwAAjmUugjBOk826AAA7dbJaraQAALAnbTfIXXr6YIvh+zKbTl6LAQDowDx0mVwhFMkveR56KwYAgJfTgQ4AsF9NN4jieRzuoAQAumIugnDrDgAAdkABHQBgT8qqHufhShJh/D6bTpZiAAC6IM9L7vLwURJhXOb1xzsxAAC8nAI6AMD+FCIIRfc5ANDF+eijGMK4aa+QAgDgBRTQAQD2oKzqeXLnZCQf2i4vAIDOyPOTh2STXyQjzxsA4OUU0AEAdqzt+igkEcZ9cuckANBRs+lkkYcvkgjjOq9HzsUAALA9BXQAgN1ruj5GYgijaLu7AAC6PD8lhtNkMy8AwIucrFYrKQAA7Ejb7XGbnj64Yvg+z6aTsRgAgB7MU3/Lw1tJhPEmz1OXYgAA2JwOdACA3WqO8lY8j6MQAQDQE7rQzVMBAHgGBXQAgB0pq3qcdPVE8klXDwDQF3necpeHD5II4zKvT+ZiAADYnAI6AMDu3IggjMekqwcA6Od89V4McZ53WdVnYgAA2IwCOgDADrTdHReSCOOm7eICAOiNPH95SDYBRtJcLeXofgCADZ2sVispAAC8QNvVcZfcfR7F/Ww6ORcDANDj+esyD5eSCOOVzZ8AAM+nAx0A4OWarg7F81jPGwCgzwoRhOKqKQCADehABwB4gbKqz/PwpyTC+DybTsZiAAAGMI9d5OFKEmG8yfPYpRgAAH5OBzoAwMssRBCK7nMAYCiK/HoUQxi60AEAnkkBHQBgS2VVj5O7IyP5NJtObsUAAAxBeye2omocF3n9YjMoAMAzKKADAGxvIYIwmu4sHzgCAIMym06KPNxLIoyirOozMQAA/JgCOgDAFtrujZEkwihm08mDGACAAbJJMI7T9HR0PwAAP3CyWq2kAACwgbZr4y49fQDF8N3PppNzMQAAA57fLpOriSJ51R7hDwDAN+hABwDYXJEUzyOZiwAAGDhd6LEsRAAA8H060AEANlBW9es8/CGJMD7PppOxGACAAPPcRR6uJBHGmzzPXYoBAODvdKADAGzmRgShzEUAAATRdKE/iiGMhQgAAL5NAR0A4JnKqn6X3A0ZyUd3QwIAUeR5z0N6uqqIGEZ5feN5AwB8gwI6AMDz6T6Po+m+KsQAAEQym06a+e69JMK4Lqv6TAwAAH+lgA4A8Axtd8ZIEmFct11YAADRzEUQxmmySRgA4G9OVquVFAAAfqDtyrhLTx8wMXxfZtPJazEAAIHnv8vk6qJIfsnz31sxAAA80YEOAPBzTVeG4nkc1yIAAIKbiyDcegcAgJYCOgDAD5RVPc7DlSTC+H02nSzFAABEludDd3n4KIkwLvO6550YAACeKKADAPxYIYJQdJ8DAPz3PPhRDGHctFdXAQCEp4AOAPAdZVXPk7sfI/nQdlsBAISX50UPyebCSEaeNwDAEwV0AIBvaLsvCkmEcZ/c/QgA8Bez6WSRhy+SCOM6r4POxQAARKeADgDwbU33xUgMYRRtlxUAAH+fFxPDabKJGAAgnaxWKykAAHyl7bq4TU8fIDF8n2fTyVgMAADfnR//loe3kgjjTZ4fL8UAAESlAx0A4O+ao7wVz+MoRAAA8EO60M2PAQDCUEAHAPhKWdXjpLsmkk+6awAAfizPl+7y8EESYVzmddFcDABAVAroAAB/dSOCMB6T7hoAgE3myfdiiPO8y6o+EwMAEJECOgBAq+2yuJBEGDdtNxUAAD+R500PyebDSJorrRzdDwCEdLJaraQAAITXdlfcJXefR3E/m07OxQAAsPG8eZmHS0mE8cqmUwAgGh3oAABPmu4KxfNYzxsAgM0VIgjFFVcAQDg60AGA8MqqPs/Dn5II4/NsOhmLAQBg6/nzIg9XkgjjTZ4/L8UAAEShAx0AIKWFCELRfQ4A8DJFfj2KIQxd6ABAKAroAEBoZVWPkzscI/k0m05uxQAAsL32TmxF1Tgu8rrJJlQAIAwFdAAguoUIwmi6pHzwBwCwA7PppMjDvSTCKMqqPhMDABCBAjoAEFbbRTGSRBjFbDp5EAMAwM7YnBjHaXo6uh8AYPBOVquVFACAcNruibv09EEQw3c/m07OxQAAsPN59TK5EimSV+0R/gAAg6UDHQCIqkiK55HMRQAAsBe60GNZiAAAGDod6ABAOGVVv87DH5II4/NsOhmLAQBgb/PrRR6uJBHGmzy/XooBABgqHegAQEQ3IghlLgIAgL1qutAfxRDGQgQAwJApoAMAoZRV/S65ozGSj+5oBADYrzzfekhPVyQRwyivqzxvAGCwFNABgGh0n8fRdEEVYgAA2L/ZdNLMs+8lEcZ1WdVnYgAAhkgBHQAIo+2SGEkijOu2GwoAgMOYiyCM02RzMgAwUCer1UoKAMDgtd0Rd+npgx6G78tsOnktBgCAg8+7l8mVSZH8kufdt2IAAIZEBzoAEEXTHaF4Hse1CAAAjmIugnDrLACAQVFABwAGr6zqcR6uJBHG77PpZCkGAIDDy/Owuzx8lEQYl3m99U4MAMCQKKADABEUIghF9zkAwPHn349iCOOmvTILAGAQFNABgEErq3qe3MEYyYe26wkAgCPJ87GHZFNjJCPPGwAYEgV0AGCw2i6IQhJh3Cd3MAIAdMJsOlnk4YskwrjO669zMQAAQ6CADgAMWdMFMRJDGEXb7QQAQHfm48RwmmxeBgAG4mS1WkkBABictvvhNj19kMPwfZ5NJ2MxAAB0bl7+Wx7eSiKMN3levhQDANBnOtABgKFqjvJWPI+jEAEAQCfpQjcvBwDoFQV0AGBwyqoeJ10ukXzS5QIA0E15nnaXhw+SCOMyr8fmYgAA+kwBHQAYohsRhPGYdLkAAPRhfn4vhjjPu6zqMzEAAH2lgA4ADErb7XAhiTBu2q4mAAA6Ks/XHpJNj5E0V2k5uh8A6K2T1WolBQBgENouh7vk7vMo7mfTybkYAAB6M19f5uFSEmG8stkVAOgjHegAwJA0XQ6K57GeNwAA/VGIIBRXawEAvaQDHQAYhLKqz/PwpyTC+DybTsZiAADo3bx9kYcrSYTxJs/bl2IAAPpEBzoAMBQLEYSi+xwAoJ+K/HoUQxi60AGA3lFABwB6r6zqcXKXYiSfZtPJrRgAAPqnvRNbUTWOi7xes/kVAOgVBXQAYAgWIgij6VbyARwAQI/NppMiD/eSCKMoq/pMDABAXyigAwC91nYzjCQRRjGbTh7EAADQezZFxnGano7uBwDohZPVaiUFAKCX2i6Gu/T0gQzDdz+bTs7FAAAwmPn8MrmKKZJX7RH+AACdpgMdAOizIimeRzIXAQDAoOhCj2UhAgCgD3SgAwC9VFb16zz8IYkwPs+mk7EYAAAGN69f5OFKEmG8yfP6pRgAgC7TgQ4A9NWNCEKZiwAAYJCaLvRHMYSxEAEA0HUK6ABA75RV/S65KzGSj+5KBAAYpjzPe0hPVzMRwyiv5zxvAKDTFNABgD7SfR5H041UiAEAYLhm00kzv7+XRBjXZVWfiQEA6CoFdACgV9puhZEkwrhuu5IAABi2uQjCOE02RQMAHXayWq2kAAD0QtulcJeePnBh+L7MppPXYgAACDPfXyZXNUXyS57v34oBAOgaHegAQJ80XQqK53FciwAAIJS5CMKt7wAAOkcBHQDohbKqx3m4kkQYv8+mk6UYAADiyPO/uzx8lEQYl3md904MAEDXKKADAH1RiCAU3ecAAHHn/Y9iCOOmvaoLAKAzFNABgM4rq3qe3IUYyYe2+wgAgGDyPPAh2UwZycjzBgC6RgEdAOi0thuhkEQY98ldiAAAoc2mk0UevkgijOu87jsXAwDQFQroAEDXNd0IIzGEUbRdRwAAWAcQw2myaRoA6JCT1WolBQCgk9ouhNv09IEKw/d5Np2MxQAAQLse+C0PbyURxpu8HliKAQA4Nh3oAECXNUd5K57HUYgAAICv6EK3HgAAODgFdACgk8qqHifdJpF80m0CAMDX8vzwLg8fJBHGZV4HzsUAABybAjoA0FU3IgjjMek2AQDg++uCezHEed5lVZ+JAQA4JgV0AKBz2q6DC0mEcdN2FwEAwF/keeJDstkykuYKL0f3AwBHdbJaraQAAHRG221wl9x9HsX9bDo5FwMAAD9ZJyzzcCmJMF7ZZAsAHIsOdACga5puA8XzWM8bAAB+phBBKK70AgCORgc6ANAZZVWf5+FPSYTxeTadjMUAAMAz1wuLPFxJIow3eb2wFAMAcGg60AGALlmIIBTd5wAAbKLIr0cxhKELHQA4CgV0AKATyqoeJ3caRvJpNp3cigEAgOdq78RWVI3jIq8TbboFAA5OAR0A6IqFCMJouoZ8EAYAwMZm00mRh3tJhFGUVX0mBgDgkBTQAYCja7sKRpIIo5hNJw9iAABgSzZjxnGano7uBwA4mJPVaiUFAOBo2m6Cu/T0wQjDdz+bTs7FAADAC9cRy+QKqEhetUf4AwDsnQ50AODYiqR4HslcBAAA7IAu9FgWIgAADkUHOgBwNGVVv87DH5II4/NsOhmLAQCAHa0nFnm4kkQYb/J6YikGAGDfdKADAMd0I4JQ5iIAAGCHmi70RzGEsRABAHAICugAwFGUVf0uubMwko/uLAQAYJfy/PIhPV0JRQyjvI70vAGAvVNABwCORfd5HE1XUCEGAAB2bTadNOuKe0mEcV1W9ZkYAIB9UkAHAA6u7RoYSSKM67Y7CAAA9mEugjBOk83YAMCenaxWKykAAAfTdgvcpacPPhi+L7Pp5LUYAADY8zpjmVwRFckveZ1xKwYAYB90oAMAh9Z0Cyiex3EtAgAADmAugnDrSgCAvVBABwAOpqzqcR6uJBHG77PpZCkGAAD2Lc877/LwURJhXOb15TsxAAD7oIAOABxSIYJQdJ8DAHDo9cajGMK4aa8IAwDYKQV0AOAgyqqeJ3cSRvKh7QICAICDyPPPh2QTZyQjzxsA2AcFdABg79qugEISYdwndxICAHAEs+lkkYcvkgjjOq83z8UAAOySAjoAcAhNV8BIDGEUbfcPAAAca/1BDKfJZm0AYMdOVquVFACAvWm7AW7T0wcbDN/n2XQyFgMAAEdeh/yWh7eSCONNXocsxQAA7IIOdABg35qjvBXP4yhEAABAB+hCtw4BANiKAjoAsDdlVY+Tro9IPun6AACgC/K89C4PHyQRxmVef87FAADsggI6ALBPNyII4zHp+gAAoHvrkXsxxHneZVWfiQEAeCkFdABgL9rd/xeSCOOm7fIBAIBOyPPTh2STZyTN1WGO7gcAXuxktVpJAQDYqXbX/11y93kU97Pp5FwMAAB0dH2yzMOlJMJ4ZXMvAPASOtABgH1odv0rnsd63gAA0FWFCEJxlRgA8CI60AGAnSqr+jwPf0oijM+z6WQsBgAAOr5OWeThShJhvMnrlKUYAIBt6EAHAHZtIYJQdJ8DANAHRX49iiEMXegAwNYU0AGAnSmrepzcLRjJp9l0cisGAAC6rr0TW1E1jou8PrXZFwDYigI6ALBLCxGE0XTv+EAKAIDemE0nRR7uJRFGUVb1mRgAgE0poAMAO9Hu7h9JIoxiNp08iAEAgJ6xCTSO0/R0dD8AwEZOVquVFACAF2l39d+lpw8oGL772XRyLgYAAHq6flkmV09F8qo9wh8A4Fl0oAMAu1AkxfNI5iIAAKDHdKHHshABALAJHegAwIuUVf06D39IIozPs+lkLAYAAHq+jlnk4UoSYbzJ65ilGACA59CBDgC81I0IQpmLAACAAWi60B/FEMZCBADAcymgAwBbK6v6XXJ3YCQf3R0IAMAQ5HntQ3q6iooYRnn96nkDAM+igA4AvITu8zia7pxCDAAADMVsOmnWM/eSCOO6rOozMQAAP6OADgBspd29P5JEGNdtlw4AAAzJXARhnCabwAGAZzhZrVZSAAA20u7av0tPH0AwfF9m08lrMQAAMND1zTK5miqSX/L65lYMAMD36EAHALbR7NpXPI/jWgQAAAzYXATh1rMAAN+lgA4AbKSs6nEeriQRxu+z6WQpBgAAhirPd+/y8FESYVzmde07MQAA36OADgBsqhBBKLrPAQCIss55FEMYN+3VZAAAf6OADgA8W1nV8+RuwEg+tN04AAAwaHne+5BsHo1k5HkDAN+jgA4APEu7O7+QRBj3yd2AAAAEMptOFnn4IokwrvM691wMAMC/U0AHAJ6r2Z0/EkMYRduFAwAA0dY9xHCabBIHAL7hZLVaSQEA+KF2V/5tevqAgeH7PJtOxmIAACDo+ue3PLyVRBhv8vpnKQYA4J90oAMAz9Ec5a14HkchAgAAAtOFbv0DAASmgA4A/FBZ1eOk+yKST7ovAACILM+H7/LwQRJhXOZ171wMAMA/KaADAD9zI4IwHpPuCwAA+Oc66F4McZ53WdVnYgAAGgroAMB3tbvwLyQRxk3bbQMAAKHlefFDsrk0kubKMkf3AwBrJ6vVSgoAwN+0u+/vkrvPo7ifTSfnYgAAgL+si5Z5uJREGK9sKgYAdKADAN/T7L5XPI/1vAEAgL8qRBCKK8wAAB3oAMDflVV9noc/JRHG59l0MhYDAAB8c320yMOVJMJ4k9dHSzEAQFw60AGAb1mIIBTd5wAA8H1Ffj2KIQxd6AAQnAI6APAXZVWPkzv+Ivk0m05uxQAAAN/W3omtqBrHRV4X22QMAIEpoAMA/24hgjCaLhofDAEAwE/MppMiD/eSCKMoq/pMDAAQkwI6APAv7S77kSTCKGbTyYMYAADgWWw+jeM0PR3dDwAEdLJaraQAAKR2d/1devqggOG7n00n52IAAICN1k3L5MqrSF61R/gDAIHoQAcA/qlIiueRzEUAAAAb04Uey0IEABCPDnQAoOmieJ2HPyQRxufZdDIWAwAAbLV+WuThShJhvMnrp6UYACAOHegAQONGBKHMRQAAAFtrutAfxRDGQgQAEIsCOgAEV1b1u+QOv0g+usMPAAC2l+fTD+npCixiGOV1s+cNAIEooAMAus/jaLpkCjEAAMDLzKaTZh11L4kwrsuqPhMDAMSggA4AgbW76EeSCOO67ZYBAABebi6CME6TzecAEMbJarWSAgAE1O6ev2s/CGD4vsymk9diAACAna6rlsmVWP+fvbvXcZvf8gXNBk6uugPVASa3DybrRNVpJ3ZAgAGDEpS0cAK5MDdg+g5sAQOoBziCKmBAgIGddFxKOhrg2HMDU7oDVTgneefPXdzd++P9sF1fItfzAIWV/xjYS2stMpL/lvqqr2IAgHFzgQ4AcXXb84bncVyJAAAAHt1cBOH6aABg5AzQASCgumkvUrmURBhfyiK/EQMAADyu9P/s21Q+SSKMWeqn34oBAMbNAB0AYqpEEIrrcwAAeNr+6k4MYXzsP4kGAIyUAToABJMa/XnmG32RfOivYgAAgCeQ/r99zCytRjL1vAFg3AzQASCQfku+kkQYh8w3+gAA4MmVRb5L5ZskwrhK/fW5GABgnAzQASBYk5/db8sTQ9VfwwAAAM/TbxHDJLOcDgCj9Q+//PKLFAAggH47/mvf6DN++7LIL8QAAADP2nd9TuWNJML4p9R33YgBAMbFBToAxNG9ytvwPI5KBAAA8Oy6K/Q7Mei7AIDhMkAHgADqpr3IXEFEcu0KAgAAnl/6f/htdr+8TAyz1G/PxQAA42KADgAx+AEnju7apRIDAAC8aP91EEOc51037ZkYAGA8DNABYOT6bfhXkgjjY3/1AgAAvID0//FjZqk1ku5TaVdiAIDx+IdffvlFCgAwUv0W/G3m2+dRHMoiPxcDAACcRD92k8pMEmH8V8vMADAOLtABYNy6LXjD81jPGwAAOA2VCELx6TQAGAkX6AAwUnXTnqfy/0oijH1Z5BdiAACAk+rLdqlcSiKMf0p92Y0YAGDYXKADwHjtRBCK63MAADjN/6ffiSEMV+gAMAIG6AAwQnXTXmS+tRfJdVnkX8UAAACnJf0//ZgZqkbyKvXjlpsBYOAM0AFgnHYiCKO7ZvEDDQAAnKiyyKtUDpIIo6qb9kwMADBcBugAMDL9tvtUEmFU/VULAABwuiy9xjHp+jQxAMBw/cMvv/wiBQAYiX7L/bZv2Bm/Q1nk52IAAIBB9Gs3mU9tRfJfU792KwYAGJ7/IgIAGJUqMzyPZC4CILp/+bd/v5DCYHz913/+R29NASLrrtD/pxjC2KU//08BgAFygQ4AI1E37evMjzGR7MsivxADEN2//Nu/a2qH45/+9Z//8UYMQPC+7WMq7yQR59++1Lf5tw8ABsY30AFgPD6KIJS5CAAAYHCq9HcnhjB2IgCA4TFAB4ARqJv2beZbepF88i09AAAYnvT/+O5TFpUkwpimft3zBoCBMUAHgHFwfR5Hd61SiQEAAIapLPKufztIIoyrumnPxAAAw2GADgAD12+zTyURxlV/tQIAAAzXXARhTDJL7wAwKAboADBg/Rb7lSTC+FYW+U4MAAAwbOn/9Tep7CURxmXq31+LAQCGwQAdAIat22KfiCEMyxIAADAecxGE698BgAEwQAeAgaqb9iKVS0mE8aW/UgEAAEYg/f/+NpUPkghjlvr4t2IAgNNngA4Aw1WJIBTX5wAAMD7dVfKdGOI87/5TbADACTNAB4ABSg33PJWZJML40F+nAAAAI5L+n3/MLMtGMvW8AeD0GaADwMD02+qVJMI4ZL6VBwAAo1UW+S6Vb5II4yr19ediAIDTZYAOAANstrP7rXViqPqrFAAAYNx9HjFMMkvxAHDSDNABYED6LXU/rMSx769RAACAEUv/779J5YskwrhM/f2FGADgNBmgA8CwdK/ynoghjEoEAAAQRrcsfScG/R4A8LIM0AFgIPrt9DeSCOO6v0IBAAACSP//v83ul6aJYZb6/LkYAOD0GKADwHD4ISWO7uqkEgMAAITs+w5iiPO866Y9EwMAnBYDdAAYgH4r/ZUkwvjYX58AAACBpD7gmFmmjaT7RNuVGADgtBigA8CJ67fRXZ/HcSiLvBIDAADElPqBXSp7SYTxPvX952IAgNNhgA4Ap6/bRp+IIdTzBgAAYqtEEIqleQA4IQboAHDC+i3095IIY18W+WcxAABAbKkvuEnlWhJhvEn9/4UYAOA0GKADwGnbiSAU1+cAAMBf9gd3YgjDFToAnAgDdAA4Uf32+UwSYVyXRf5VDAAAQCf1B8fMUDWSV3XTWqoGgBNggA4Ap2sngjC6qxI/lAAAAH+lLPIqlYMkwqjqpj0TAwC8LAN0ADhB/db5VBJhVP11CQAAwN+ybBvHpOsPxQAAL8sAHQBOTL9trmGO41AWudcyAgAAvyr1C59T2UsijHd1056LAQBejgE6AJyeKrvfOieGuQgAAIA/4Ao9lp0IAODlGKADwAmpm/Z1Ku8kEca+LPIbMQAAAL8n9Q1fU/kkiTBmddNeiAEAXoYBOgCcFq/yjmUuAgAA4DtV6e9ODGHsRAAAL8MAHQBORN20b1OZSSKMT2WR34oBAAD4Hql/OGb3Q3RimNZN63kDwAswQAeA0+H6PI7uaqQSAwAA8CPKIu/6xoMkwriqm/ZMDADwvAzQAeAE9FvlU0mEcdVfjwAAAPyouQjCmGSW7QHg2RmgA8AL67fJryQRxreyyHdiAAAAfkbqJ25S2UsijMu6aV+LAQCejwE6ALy8bpt8IoYwLEsAAAAPNRdBKK7QAeAZGaADwAuqm/YilUtJhPGlvxYBAAD4aamvuE3lgyTCmNVN+1YMAPA8DNAB4GVVIgjF9TkAAPBYuqvkOzHEed79J+AAgCdmgA4ALyQ1vvNUZpII40N/JQIAAPBgqb84ZpZ0I5l63gDwPAzQAeAF9FvjlSTCOGS+WQcAADyyssh3qXyTRBhXddOeiwEAnpYBOgC8UNOb3W+PE0PVX4cAAAA8RX9JDJPMMj4APDkDdAB4Zv22uB844tj3VyEAAACPLvUbN6l8kUQYl3XTXogBAJ6OAToAPL/uVd4TMYRRiQAAAHhi3ZL2nRj0mQDAwxmgA8Az6rfE30gijOv+GgQAAODJpL7jNrtf1iaGWd20czEAwNMwQAeA5+UHjTi6649KDAAAwDP2mwcxxHneddOeiQEAHp8BOgA8k347/JUkwvjYX4EAAAA8udR/HDNLvJF0n4a7EgMAPD4DdAB4Bv1WuOvzOA5lkVdiAAAAnlPqQ3ap7CURxvu6ac/FAACPywAdAJ5HtxU+EUOo5w0AAPASKhGEYlkfAB6ZAToAPLF+G/y9JMLYl0X+WQwAAMBLSP3ITSrXkgjjTd20F2IAgMdjgA4AT28nglBcnwMAAKfQl9yJIQxX6ADwiAzQAeAJ9VvgM0mEcV0W+VcxAAAALyn1JcfMUDWSV3XTWuYGgEdigA4AT2sngjC66w4/WAAAACehLPIqlYMkwqjqpj0TAwA8nAE6ADyRfvt7Kokwqv7KAwAA4FRY8o1j0vWlYgCAhzNAB4An0G99a1zjOJRF7vWIAADASUl9yudU9pII413dtOdiAICHMUAHgKdRZffb38QwFwEAAHCiXKHHshMBADyMAToAPLK6aV+n8k4SYezLIr8RAwAAcIpSv/I1lU+SCGNWN+1bMQDAzzNAB4DH51XescxFAAAAnLgq/d2JIQy/SwDAAxigA8Aj6re8Z5II41NZ5LdiAAAATlnqW47Z/RCdGKZ103reAPCTDNAB4HHZ8o6ju96oxAAAAAxBWeRdv3qQRBhXddOeiQEAfpwBOgA8kn67eyqJMK76Kw4AAIChmIsgjElmyR8AfooBOgA8gn6r+0oSYXwri3wnBgAAYEhSH3OTyl4SYVzWTftaDADwYwzQAeBxdFvdEzGEYVkCAAAYqrkIQnGFDgA/yAAdAB6obtqLVC4lEcaX/moDAABgcFI/c5vKB0mEMaubdi4GAPh+BugA8HCVCEJxfQ4AAAxdd5V8J4Ywqv7TcwDAdzBAB4AH6Le4Z5II40N/rQEAADBYqa85ZpaDI5l63gDw/QzQAeAn9dvblSTCOGS+HQcAAIxEWeS7VL5JIoyrumnPxQAAf8wAHQAe0Hxm91vcxFD1VxoAAABj6muJYZI5AgCA72KADgA/od/a9kNDHPv+OgMAAGA0Up9zk8oXSYRxWTfthRgA4PcZoAPAz+le5T0RQxiVCAAAgJHqlsPvxBCGT5MBwB8wQAeAH9Rva7+RRBjX/VUGAADA6KR+5zYzVI3kVd20czEAwG8zQAeAH+eHhTi6K4xKDAAAQIA+9yCGOM+7btozMQDArzNAB4Af0G9pv5JEGB/7awwAAIDRSn3PMbM8HEn3SborMQDArzNAB4Dv1G9nuz6P41AWeSUGAAAggtT/7FLZSyKM93XTnosBAP6eAToAfL9uO3sihlDPGwAAIJJKBKE4EgCAX2GADgDfod/Kfi+JMPZlkX8WAwAAEEnqg25SuZZEGG/qpr0QAwD8NQN0APg+OxGE4vocAACI3A/diSGMnQgA4K8ZoAPAH+i3sWeSCOO6LPKvYgAAACJK/dAx82rvSKZ101oiB4C/YIAOAH9sJ4IwuisLPxwAAAChlUVepXKQRBhV3bRnYgCAewboAPA7+i3sqSTCqPprCwAAgOgsF8cx6fphMQDAPQN0APgN/fa1BjKOQ1nkXlMIAACQ/ekK/XMqe0mE8a5u2nMxAIABOgD8niq738ImhrkIAAAA/oor9Fh2IgAAA3QA+FV1075O5Z0kwtiXRX4jBgAAgP+U+qSvqXySRBizumnfigGA6AzQAeDXeZV3LHMRAAAA/Koq/d2JIQy/hwAQngE6APyNftt6JokwPpVFfisGAACAv5f6pWN2P0QnhmndtJ43AKEZoAPA37NtHUd3RVGJAQAA4LeVRd71yQdJhHFVN+2ZGACIygAdAP5Cv2U9lUQYV/01BQAAAL9vLoIwJpnjAgACM0AHgF6/XX0liTC+lUW+EwMAAMAfS/3TTSp7SYRxWTftazEAEJEBOgD8p267eiKGMCxLAAAA/Ji5CEJxhQ5ASAboAJD96fr8IpVLSYTxpb+eAAAA4DulPuo2lQ+SCGNWN+1cDABEY4AOAPcqEYTi+hwAAODndFfJd2IIo+o/eQcAYRigAxBev009k0QYH/qrCQAAAH5Q6qeOmaXkSKaeNwDRGKADEFq/RV1JIoxD5htuAAAAD1IW+S6Vb5II46pu2nMxABCFAToA4ZvA7H6bmhiq/loCAACAh/fTxDDJHB8AEIgBOgBh9dvTGv449v2VBAAAAA+U+qubVL5IIozLumkvxABABAboAETWvcp7IoYwKhEAAAA8qm4p/U4MYfgkGgAhGKADEFK/Nf1GEmFc99cRAAAAPJLUZ91mhqqRvKqbdi4GAMbOAB2AqDT4cXTXEJUYAAAAnqy/PoghzvOum/ZMDACMmQE6AOH029KvJBGnue+vIgAAAHhkqd86ZpaWI+k+hXclBgDGzAAdgFD6LWnX53EcyiKvxAAAAPB0Ut+1S2UviTDe1017LgYAxsoAHYBoui3piRhCPW8AAACeXiWCUBwnADBaBugAhNFvR7+XRBj7ssg/iwEAAODppf7rJpVrSYTxpm7aCzEAMEYG6ABEshNBKK7PAQAAnr8PuxNDGDsRADBGBugAhNBvRc8kEcZ1WeRfxQAAAPB8Uh92zLzaO5Jp3bSW1wEYHQN0AKLYiSCM7tpBAw8AAPACyiKvUjlIIoyqbtozMQAwJgboAIxevw09lUSc5r2/egAAAOBlWGqOY9L14WIAYEwM0AEYtX4LWiMXx6Escq8LBAAAeEGpL/ucyl4SYbyrm/ZcDACMhQE6AGNXZffb0MQwFwEAAMBJcIUey04EAIyFAToAo1U37etU3kkijH1Z5DdiAAAAeHmpP/uayidJhDGrm/atGAAYAwN0AMbMq7xjmYsAAADgpFTp704MYfgdBoBRMEAHYJT6reeZJML4VBb5rRgAAABOR+rTjtn9EJ0YpnXTet4ADJ4BOgBjZes5ju6aQYMOAABwgsoi7/rzgyTCuKqb9kwMAAyZAToAo9NvO08lEac5768aAAAAOE1zEYQxyRw1ADBwBugAjEq/5XwliTC+lUW+EwMAAMDpSn3bTSp7SYRxWTftazEAMFQG6ACMTbflPBFDGJYlAAAAhmEuglBcoQMwWAboAIxG3bQXqVxKIowv/RUDAAAAJy71b7epfJBEGLO6aediAGCIDNABGJNKBKG4PgcAABiW7ir5TgxhVP2n9gBgUAzQARiFfqt5JokwPvTXCwAAAAxE6uOOmWXoSKaeNwBDZIAOwOD128yVJMI4ZL6lBgAAMEhlke9S+SaJMK7qpj0XAwBDYoAOwCiasex+q5kYqv5qAQAAgOH28cQwyRw9ADAwBugADFq/xazxjmPfXysAAAAwUKmvu0nliyTCuKyb9kIMAAyFAToAQ9e9ynsihjAqEQAAAIxCtwx/J4YwfIoNgMEwQAdgsPrt5TeSCOO6v1IAAABg4FJ/d5sZqkbyqm7auRgAGAIDdACGTKMdR3eVUIkBAABgdH39QQxxnnfdtGdiAODUGaADMEj91vIrScRpsvvrBAAAAEYi9XnHzLJ0JN0n+K7EAMCpM0AHYHD6bWXX53EcyiKvxAAAADA+qd/bpbKXRBjv66Y9FwMAp8wAHYAh6raVJ2II9bwBAAAYr0oEoTiKAOCkGaADMCj9lvJ7SYSxL4v8sxgAAADGK/V9N6lcSyKMN3XTXogBgFNlgA7A0OxEEIrrcwAAgDj9350YwtiJAIBTZYAOwGD028kzSYRxXRb5VzEAAACMX+r/jplXe0cyrZvW0jwAJ8kAHYAh2YkgjO7qQCMNAAAQSFnkVSoHSYRR1U17JgYATo0BOgCD0G8lTyURp4nurw8AAACIxTJ1HJOu/xcDAKfGAB2Ak9dvI2uo4jiURe61fQAAAAGlfvBzKntJhPGubtpzMQBwSgzQARiCKrvfSiaGuQgAAABCc4Uey04EAJwSA3QATlrdtK9TeSeJMPZlkd+IAQAAIK7UF35N5ZMkwpjVTftWDACcCgN0AE6dV3nHMhcBAAAA2f3b6O7EEIbffwA4GQboAJysfvt4JokwPpVFfisGAAAAUn94zO6H6MQwrZvW8wbgJBigA3DKbB/H0V0VaJQBAAD4D2WRd78LHCQRxlXdtGdiAOClGaADcJL6reOpJOI0yf11AQAAAPyluQjCmGSOKQA4AQboAJycftv4ShJhfCuLfCcGAAAA/lbqF29S2UsijMu6aV+LAYCXZIAOwCnqto0nYgjDsgQAAAC/Zy6CUFyhA/CiDNABOCl1016kcimJML701wQAAADwq1LfeJvKB0mEMaubdi4GAF6KAToAp6YSQSiuzwEAAPge3VXynRjCqPpP/AHAszNAB+Bk9NvFM0mE8aG/IgAAAIDflfrHY2YJO5Kp5w3ASzFAB+Ak9FvFlSTCOGS+aQYAAMAPKIt8l8o3SYRxVTftuRgAeG4G6ACcTFOU3W8XE0PVXw8AAADAj3CVHMckc2wBwAswQAfgxfXbxBrgOPb91QAAAAD8kNRP3qTyRRJhXNZNeyEGAJ6TAToAp6B7lfdEDGFUIgAAAOABuiX8OzGE4RNwADwrA3QAXlS/RfxGEmFc99cCAAAA8FNSX3mbGapG8qpu2rkYAHguBugAvDQNbxzddUAlBgAAAB5B93vCQQxxnnfdtGdiAOA5GKAD8GL67eFXkojT7PZXAgAAAPAgqb88Zpa0I+k+/XclBgCegwE6AC+i3xp2fR7HoSzySgwAAAA8ltRn7lLZSyKM93XTnosBgKdmgA7AS+m2hidiCPW8AQAA4LFVIgjFMQYAT84AHYBn128Lv5dEGPuyyD+LAQAAgMeW+s2bVK4lEcabumkvxADAUzJAB+Al7EQQiutzAAAAnrrvvBNDGDsRAPCUDNABeFb9lvBMEmFcl0X+VQwAAAA8ldR3HjOv9o5kWjetZX0AnowBOgDPbSeCMLrtfw0tAAAAT64s8iqVgyTCqOqmPRMDAE/BAB2AZ9NvB08lEaeZ7a8AAAAA4DlY4o5jkv4qMQDwFAzQAXgW/VawxiaOQ1nkXp8HAADAs0l96OdU9pII413dtOdiAOCxGaAD8Fyq7H47mBjmIgAAAOAFuEKPZScCAB6bAToAT65u2tepvJNEGPuyyG/EAAAAwHNL/ejXVD5JIoxZ3bRvxQDAYzJAB+A5eJV3LHMRAAAA8IKq9HcnhjD87gTAozJAB+BJ9VvAM0mE8aks8lsxAAAA8FJSX3rM7ofoxDCtm9bzBuDRGKAD8NRsAcfRbfdrWAEAAHhxZZF3v0ccJBHGVd20Z2IA4DEYoAPwZPrt36kk4jSr/ZY/AAAAnIK5CMKYZI44AHgkBugAPIl+6/dKEmF8K4t8JwYAAABORepTb1LZSyKMy7ppX4sBgIcyQAfgqXRbvxMxhGFZAgAAgFM0F0EortABeDADdAAeXd20F6lcSiKML/1WPwAAAJyU1K/epvJBEmHM6qadiwGAhzBAB+ApVCIIxfU5AAAAp6y7Sr4TQxhV/2lBAPgpBugAPKp+y3cmiTA+9Nv8AAAAcJJS33rMLH9HMvW8AXgIA3QAHk2/3VtJIoxD5ttiAAAADEBZ5LtUvkkijKu6ac/FAMDPMEAH4FGbk+x+y5cYqn6LHwAAAIbAVXIck8yRBwA/yQAdgEfRb/VqROPY99v7AAAAMAipj71J5Yskwrism/ZCDAD8KAN0AB5L9yrviRjCqEQAAADAAHXL/3diCMOn5wD4YQboADxYv837RhJhXPdb+wAAADAoqZ+9zQxVI3lVN+1cDAD8CAN0AB6DxjOObku/EgMAAAAD1v2OcRBDnOddN+2ZGAD4XgboADxIv8X7ShJxms5+Wx8AAAAGKfW1x8xyeCTdJwevxADA9zJAB+Cn9du7rs/jOJRFXokBAACAoUv97S6VvSTCeF837bkYAPgeBugAPES3vTsRQ6jnDQAAAGNRiSAURyAAfBcDdAB+Sr+1+14SYezLIv8sBgAAAMYi9bk3qVxLIow3ddNeiAGAP2KADsDP2okgFNfnAAAAjLXfvRNDGDsRAPBHDNAB+GH9tu5MEmFcl0X+VQwAAACMTep3j5lXe0cyrZvWkQAAv8sAHYCfsRNBGN0WvsYSAACA0SqLvErlIIkwqrppz8QAwG8xQAfgh/RbulNJxGkq+218AAAAGDPL43FM0l8lBgB+iwE6AN+t387VYMRxKIvca+wAAAAYvdT/fk5lL4kw3tVNey4GAH6NAToAP6LK7rd0iWEuAgAAAAJxhR7LTgQA/BoDdAC+S920r1N5J4kw9mWR34gBAACAKFIf/DWVT5IIY1Y37VsxAPC3DNAB+F5e5R3LXAQAAAAEVKW/OzGE4fcuAP6OAToAf6jfxp1JIoxPZZHfigEAAIBoUj98zO6H6MQwrZvW8wbgrxigA/A9bOPG0W3ZaxwBAAAIqyzy7neQgyTCuKqb9kwMAPyZAToAv6vfwp1KIk7T2G/bAwAAQGRzEYQxyRyPAPAXDNAB+E399u2VJML4Vhb5TgwAAABEl/rjm1T2kgjjsm7a12IAoGOADsDv6bZvJ2IIw7IEAAAA/Ke5CEJxhQ7AnxigA/Cr6qa9SOVSEmF86bfrAQAAgOxPV+i3qXyQRBizumnnYgDAAB2A31KJIBTX5wAAAPD3uqvkOzGEUfWfNAQgMAN0AP5Ov207k0QYH/qtegAAAOAvpH75mFk6j2TqeQNggA7AX+m3bCtJhHHIfOMLAAAAflNZ5LtUvkkijKu6ac/FABCXAToAf9ckZPfbtsRQ9dv0AAAAwG9zlRzHJHNcAhCaAToA/6HfrtUQxrHvt+gBAACA35H655tUvkgijMu6aS/EABCTAToAf6l7lfdEDGFUIgAAAIDv1h0d3IkhDJ+8AwjKAB2AP+m3at9IIozrfnseAAAA+A6pj77NDFUjeVU37VwMAPEYoAPwZxrAOLpt+UoMAAAA8MO6308OYojzvOumPRMDQCwG6ABk/TbtK0nEaf76rXkAAADgB6R++phZSo+k+9ThlRgAYjFABwiu36J1fR7HITX7Gn0AAAD4Samv3qWyl0QY7+umPRcDQBwG6AB0W7QTMYR63gAAAMDDVCIIxfEJQCAG6ACB9duz7yURxr4s8s9iAAAAgIdJ/fVNKteSCONN3bQXYgCIwQAdILadCEJxfQ4AAACP22ffiSGMnQgAYjBABwiq35qdSSKM67LIv4oBAAAAHkfqs4+ZV3tHMq2b1nECQAAG6ABx7UQQRrcNr8EDAACAR1YWeZXKQRJhVHXTnokBYNwM0AEC6rdlp5KI09z1W/EAAADA47O0Hsck/VViABg3A3SAYPotWf/Rj+NQFrnXyQEAAMATSX3351T2kgjjXd2052IAGC8DdIB4qux+W5YY5iIAAACAJ+cKPZadCADGywAdIJC6aV+n8k4SYezLIr8RAwAAADyt1H9/TeWTJMKY1U37VgwA42SADhCLV3nHMhcBAAAAPJsq/d2JIQy/swGMlAE6QBD9VuxMEmF8Kov8VgwAAADwPFIffszuh+jEMK2b1vMGGCEDdIA4bMXGcadhBwAAgOdXFnn3+8tBEmFc1U17JgaAcTFABwig34adSiJO89ZvvQMAAADPby6CMCaZoxWA0TFABxi5fgv2ShJhfCuLfCcGAAAAeBmpL79JZS+JMC7rpn0tBoDxMEAHGL9uC3YihjAsSwAAAMDLm4sgFFfoACNigA4wYnXTXqRyKYkwvvRb7gAAAMALSv35bSofJBHGrG7auRgAxsEAHWDcKhGE4vocAAAATkd3lXwnhjCq/lOKAAycATrASPVbrzNJhPGh324HAAAATkDq04+ZZfdIpp43wDgYoAOMUL/tWkkijEPmW1sAAABwcsoi36XyTRJhXNVNey4GgGEzQAcY6X/Ws/utV2Ko+q12AAAA4PS4So5jkjlqARg8A3SAkem3XDVmcez7bXYAAADgBKW+/SaVL5II47Ju2gsxAAyXATrA+HSv8p6IIYxKBAAAAHDyumOHOzGE4VN7AANmgA4wIv126xtJhHHdb7EDAAAAJyz177eZoWokr+qmnYsBYJgM0AHGRSMWR7e1XokBAAAABqP73eYghjjPu27aMzEADI8BOsBI9FutryQRpwnrt9cBAACAAUh9/DGzDB9J94nFKzEADM8//PLLL1IAGIG6aY+Zb59HcUhN97kYACDL/uXf/l1TOxz/9K///I83YgAguv/z//of//cvv/zyv0sihv/1//2vV//H6r//P5IAGI7/IgKA0fia/mZiCGFaN+25C3QAAAAYlsVy1b3S+3+TRBiH7WZteA4wMF7hDjAeXgkVy04EAAAAMDjdd9C9QTAOv9cBDJABOsBIlEXeXaBfSyKMWd20b8UAAAAAw7BYrl6ncimJMPbbzfqzGACGxwAdYFy6rdY7MYTxUQQAAACgj+ckuT4HGCgDdIARKYv8qBkLpfsWeiUGAAAAOG2L5ap7i9xMEmFcbzfrr2IAGCYDdICRKYu8SuUgiTCu6qY9EwMAAACcpsVy1fXtDh7i6N4O6focYMAM0AHGaS6CMCaacAAAADhp3TB1KoYwqu1mfRQDwHAZoAOMUFnkN6nsJRHGZd20r8UAAAAAp2WxXJ1nrpEjOWw3a4cOAANngA4wXnMRhKI5AwAAgNNTZfdvjyOGuQgAhs8AHWCkyiK/TeWTJMKY1U2rSQMAAIATsViuLlK5lEQY++1mfSMGgOEzQAcYtyr93YkhzvOum/ZMDAAAAHAafboIQpmLAGAcDNABRqws8mPmO1uRTD1vAAAAeHmL5WqeykwSYXzYbta3YgAYBwN0gJEri3yXyjdJhHFVN+25GAAAAOBlLJar7u1wHyURxp3nDTAuBugAMbhKjmOiaQMAAIAXddX35wR53tvN+igGgPEwQAcIoCzym1S+SCKMN3XTXogBAAAAntdiuTpP5b0kwvi23ax3YgAYFwN0gDhcocfiCh0AAAD04zwtv7cBjJABOkAQZZHfpvJBEmG8qpt2LgYAAAB4Hovl6iKVN5II48t2s74RA8D4GKADxNJtQR/EEOd51017JgYAAAB4FjsRhHGXuT4HGC0DdIBAyiI/plJJIoyJZg4AAACe3mK56vrvqSTC+LjdrG/FADBOBugAwZRFvktlL4kw3tdNey4GAAAAeBqL5ap7+1sliTC6tzv61j3AiBmgA8SkqYtlJwIAAAB4MlV2/xY4gjzv7WZ9FAPAeBmgAwRUFvlNKteSCGNWN+2FGAAAAOBxLZar81TeSSKM/Xaz3okBYNwM0AHiqtLfnRjC0NwBAACAfpuHqUQAMH4G6ABBlUV+m/leUyTTummvxAAAAACPY7FcvU1lJokwrreb9Y0YAMbPAB0gsLLIq1QOkgijqpv2TAwAAADwKBwmxNG9xdFhAkAQBugA+M9/HJPMq8YAAADgwRbLVddfTyURxsftZn0UA0AMBugAwZVF/jmVvSTCeFc37WsxAAAAwM9ZLFfd290cJMRx2G7WlRgA4jBAByDT9IXjFXMAAADwsL56IoYw/G4GEIwBOgDdFfrXVD5JIoxZ3bRvxQAAAAA/ZrFcXaRyKYkw9tvN+rMYAGIxQAfgz6r0dyeGMFyhAwAAwI+rRBDKXAQA8RigA/AnZZEfNYGhTOum9bwBAADgOy2Wq3kqM0mE8Wm7Wd+KASAeA3QA/kNZ5N1V8kESYVzVTXsuBgAAAPh9i+XqLHN4EMmd5w0QlwE6AH9rLoIwJppBAAAA+C5X6W8qhjCq7WZ9FANATAboAPyVsshvUtlLIozLumkvxAAAAAC/brFcnWf3A3RiOGw3649iAIjLAB2AXzMXQSiVCAAAAOA3dcPUiRjCmIsAIDYDdAD+Tlnkt6l8kEQYs7ppNYcAAADwNxbL1UUqbyQRxpftZn0jBoDYDNAB+C3ddvWdGMKo6qY9EwMAAAD8Fa/yjsWr+gEwQAfg15VFftQ0hDL1vAEAAOA/LZareSqvJBHGh+1mfSsGAAzQAfhNZZHvUvkmiTDe1017LgYAAACiWyxX3VvaXJ/Hced5A/BnBugA/BFXybFoFgEAACDLqvQ3EUMYV9vN+igGADoG6AD8rrLIb1L5Iokw3tRNeyEGAAAAolosV+epvJNEGPvtZr0TAwB/ZoAOwPfortDvxBCGK3QAAAAi24kglEoEAPwlA3QA/lBZ5LeZoWokr+qmnYsBAACAaBbL1UUqM0mEcb3drG/EAMBfMkAH4Ht1A/SDGOI877ppz8QAAABAMDsRhNG9bbESAwB/ywAdgO9SFvlRUxHKxPMGAAAgksVy1X3CbiqJMD5uN+tbMQDwtwzQAfhuZZHvUtlLIox3ddOeiwEAAICxWyxX3VvYKkmE0b1l0ecKAfhVBugA/CjNZCw7EQAAABBAN0ydiCGMq+1mfRQDAL/GAB2AH1IW+U0q15IIY1Y37YUYAAAAGKvFcvU6lUtJhLHfbtafxQDAbzFAB+BndN8EuxNDGDsRAAAAMGJe5R3LlQgA+D0G6AD8sLLIj5rLUKZ102ouAQAAGJ3FcvU2lZkkwrjebtZfxQDA7zFAB+CnlEVepXKQRBhV3bRnYgAAAGAsFstV1+c6EIije5uiAwEA/pABOgAPoemIY5L5UQEAAIBx6X7XmIohjGq7WR/FAMAfMUAH4KeVRf45lb0kwrism/a1GAAAABi6xXJ1njkMiOSw3awdBgDwXQzQAXiouQhC0WwCAAAwBlV2/7Y1YpiLAIDvZYAOwIOURX6byidJhDGrm/atGAAAABiqxXJ1kcqlJMLYbzfrGzEA8L0M0AF4DFX6uxNDGB/rpj0TAwAAAANViSCUuQgA+BEG6AA8WFnkR81nKNPMd+IAAAAYoMVyNU9lJokwPm0361sxAPAjDNABeBRlkXffxj5IIoyrumnPxQAAAMBQLJar7m1qHyURRve2xEoMAPwoA3QAHtNcBGFMNKEAAAAMzFXfzxLkeW8366MYAPhRBugAPJqyyG9S+SKJMC7rpr0QAwAAAKdusVydp/JeEmF8227WOzEA8DMM0AF4bL6NHUslAgAAAAbAq9tj8fsUAD/NAB2AR1UW+W0qHyQRxqxu2rkYAAAAOFWL5eoilTeSCOPLdrO+EQMAP8sAHYCn0G1134khzvOum/ZMDAAAAJyonQjC6H6Pcn0OwIMYoAPw6MoiP2pWQpl43gAAAJyixXLV9atTSYTxcbtZ34oBgIcwQAfgSZRFvkvlmyTCeF837bkYAAAAOBWL5ap7W1oliTAOmW/dA/AIDNABeEqukmPRpAIAAHBKquz+rWkEed7bzfooBgAeygAdgCdTFvlNKteSCONN3bQXYgAAAOClLZar81TeSSKM/Xaz3okBgMdggA7AU6vS350YwnCFDgAAwCnYiSCUSgQAPBYDdACeVFnkt5mhaiSv6qb16n4AAABezGK5epvKTBJhXG836xsxAPBYDNABeA7dAP0ghjCqumnPxAAAAMALscgfR/fWQ4v8ADwqA3QAnlxZ5EfNTCiTzKvTAAAAeAGL5arrR6eSCOPjdrM+igGAx2SADsCzKIv8cyp7SYTxrm7aczEAAADwXBbLVfc2NAv8cRy2m3UlBgAemwE6AM9JExvLTgQAAAA8o+7V7RMxhOF3JgCehAE6AM+mLPKvqVxLIoxZ3bRvxQAAAMBTWyxXF6lcSiKM/Xaz/iwGAJ6CAToAz63bDr4TQxgfRQAAAMAzqEQQylwEADwVA3QAnlVZ5MfMUDWSad20lRgAAAB4Kovlap7KTBJhfNpu1rdiAOCpGKAD8OzKIq9SOUgijKu6ac/EAAAAwGNbLFddv1lJIow7zxuAp2aADsBLmYsgjEnmrQMAAAA8je5TcVMxhFFtN+ujGAB4SgboALyIsshvUtlLIozLumlfiwEAAIDHsliuzrP7AToxHLabtQV9AJ6cAToAL2kuglA0uQAAADx2nzkRQxhzEQDwHAzQAXgxZZHfpvJJEmHM6qbV7AIAAPBgi+XqIpU3kgjjy3azvhEDAM/BAB2Al1alvzsxxHneddOeiQEAAIAH8pazWLyqH4BnY4AOwIsqi/yY3Q/RiWGq6QUAAOAhFsvVPJVXkgjjw3azvhUDAM/FAB2AF1cWebc1/k0SYVzVTXsuBgAAAH7UYrnq3mrm+jyOO88bgOdmgA7AqXCVHMck89YBAAAAfs5V31cS5HlvN+ujGAB4TgboAJyEsshvUvkiiTAu66a9EAMAAADfa7FcnafyXhJh7Leb9U4MADw3A3QATokr9Fi8gg0AAIAfsRNBKJUIAHgJBugAnIyyyG9T+SCJMF7VTTsXAwAAAH9ksVxdpDKTRBjX2836RgwAvAQDdABOTXeVfCeGOM+7btozMQAAAPAHdiIIo/tdqBIDAC/FAB2Ak1IW+THzKvdIJp43AAAAv2exXHV941QSYXzcbta3YgDgpRigA3ByyiLfpbKXRBjv66Y9FwMAAAB/a7FcdW8tqyQRxiG7fzshALwYA3QATpXmOJadCAAAAPgV3TB1IoYwrrab9VEMALwkA3QATlJZ5DepXEsijFndtBdiAAAA4M8Wy9XrVC4lEcZ+u1l/FgMAL80AHYBTVqW/OzGEsRMBAAAAf8GrvGO5EgEAp8AAHYCTVRb5rWY5lGndtJplAAAAuuvzt6nMJBHG9Xaz/ioGAE6BAToAJ60s8iqVgyTCqOqmPRMDAABAeBbq4+jePmihHoCTYYAOwBBoouKYZPev7gcAACCoxXLV9YVTSYRRbTfroxgAOBUG6ACcvLLIP6eyl0QY7+qmfS0GAACAeBbL1XlmkT6Sw3az9rYBAE6KAToAQ6F5jkXzDAAAEFOV3b+djBjmIgDg1BigAzAIZZF/TeVaEmHM6qZ9KwYAAIA4FsvVRSqXkghjv92sb8QAwKkxQAdgSLor9DsxhOEKHQAAIJZKBKHMRQDAKTJAB2AwyiI/aqZDmdZN63kDAAAEsFiu5qnMJBHGp+1mfSsGAE6RAToAg1IWeXeVfJBEGFd1056JAQAAYLwWy1XX93kLWRzd2wUrMQBwqgzQARiiuQjCmGR+RAEAABi7q77/I8jz3m7WRzEAcKoM0AEYnLLIb1LZSyKMy7ppL8QAAAAwPovl6jyV95II49t2s96JAYBTZoAOwFDNRRBKJQIAAIBR8taxWK5EAMCpM0AHYJDKIr9N5ZMkwpjVTTsXAwAAwHgslquLVN5IIowv2836RgwAnDoDdACGrEp/d2KI87zrpj0TAwAAwGi4Po/F9TkAg2CADsBglUV+1HyFMvW8AQAAxmGxXHX93StJhPFhu1nfigGAITBAB2DQyiLfpfJNEmFc1U17LgYAAIDhWixX3dvFKkmEcci8bQCAATFAB2AMXCXHMdF0AwAADF7V93cEed7bzfooBgCGwgAdgMEri/wmlS+SCONN3bQXYgAAABiexXJ1nso7SYSx327WOzEAMCQG6ACMhSv0WFyhAwAADNNOBKFUIgBgaAzQARiFsshvU/kgiTBe1U07FwMAAMBwLJart6nMJBHG9XazvhEDAENjgA7AmHRXyQcxxHneddOeiQEAAGBQfTsx3GXeFgjAQBmgAzAaZZEfM68Gi2TieQMAAAzDYrnq+repJML4uN2sj2IAYIgM0AEYlbLId6nsJRHGu7ppz8UAAABwuhbLVff2MNfIcRy2m3UlBgCGygAdgDHSpMWyEwEAAMBJ617dPhFDGJYlABg0A3QARqcs8ptUriURxqxu2gsxAAAAnJ7FcvU6lUtJhLHfbtafxQDAkBmgAzBW3bbznRjC2IkAAADgJH0UQSiuzwEYPAN0AEapLPKjJj2Uad20mnQAAIATsliu5qnMJBHGp+1m/VUMAAydAToAo1UWeZXKQRJhVHXTnokBAADg5S2Wq64/qyQRxp3nDcBYGKADMHaukuOYZN46AAAAcEr9+FQMYVTbzfooBgDGwAAdgFEri/xzKntJhHFZN+1rMQAAALycxXJ1nlloj+Sw3awttAMwGgboAESgaY9F0w4AAPDyfdlEDGHMRQDAmBigAzB6ZZF/TeWTJMKY1U37VgwAAADPb7FcXaTyRhJhfNlu1jdiAGBMDNABiKJKf3diCMMVOgAAgH6Mp+etfwCMjgE6ACGURX7M7ofoxDCtm9bzBgD+f/buHrltLG3YMF315dIOpF6BPSsQewV2gCoECMxChAitHTS8gk9GhAglBQhQhcC9gqFW0PYKWtoBuQK+wJgz3T3jH9nWD8nnuqpUJ7+R4ODhOQLgEeVFuRiX50qE8aZt6hsZADg0BugAhJGlyfQr+Fslwjjv+uFUBgAAgIeXF+XxzOnzSNaeNwCHygAdgGgWEoRxNHPrAAAAwGM53+7DCPK826ZeyQDAITJAByCULE2W43KtRBivu36YywAAAPBw8qI8HZdflQjjQ9vUlzIAcKgM0AGIaCFBKJUEAAAAD+pSglDOJQDgkBmgAxBOliY34/JGiTDOun5YyAAAAHD/8qKcT/suJcK4apt6KQMAh8wAHYCoLsa/tQxxnnfXD8cyAAAA3LtLCcKYvqNUMgBw6AzQAQgpS5PVzJVjkRx53gAAAPcrL8ppn3WiRBgXbVPfyADAoTNAByCsLE0ux+WDEmH82vXDqQwAAAA/Li/K6ZavSokwbmcfb/MDgINngA5AdE4lx2KzDwAAcH/7qyMZwjhvm3olAwARGKADEFqWJstxuVIijJddP8xlAAAA+H55Ub4Yl9dKhHHdNvU7GQCIwgAdAD5eObeWIQyn0AEAAOyruDu39wEQigE6AOFlaXJj8x/K864fbP4BAAC+Q16Ur8blTIkwrtqmfi8DAJEYoAPAR9MA/VaGMKquH45lAAAA+K79MzFMt/X5AToA4RigA8DsX6fQV7OPV7kTw5HnDQAA8G3yopz2USdKhHHRNvVKBgCiMUAHgK0sTS7H5VqJMH7p+uFUBgAAgK/Li3LaPzmNHMdt29SVDABEZIAOAH/nY0AslxIAAADcSTX7eJsXMSwkACAqA3QA+IssTd6Py5USYZx1/TCXAQAA4PPyopz2Ta+VCOO6beqlDABEZYAOAP9rOoW+liGMSwkAAAC+qJIglIUEAERmgA4A/yVLk9W4XCgRxknXD5UMAAAA/ysvysW4nCkRxtu2qW9kACAyA3QA+IQsTapxuVUijPOuH45lAAAA+FNelNM+yQ/M45hu46tkACA6A3QA+LxzCcI4mvkoBAAA8Kl98ZEMcZ5329QrGQCIzgAdAD4jS5N343KtRBivu354IQMAAMC/Tp+fjsuvSoTxoW3qSxkAwAAdAL5mIUEoTqEDAADYH0XkFj4A2DJAB4AvyNLkZlzeKhHGWdcPr2QAAAAiy4tyPi4vlQjjt7aplzIAwEcG6ADwddX4t5YhjIuuH45lAAAAIu+LJAjF6XMA+AsDdAD4iixNVrOPQ3RiOJn5eAAAAASVF+W0H3quRBhv2qa+kQEA/mSADgB3kKXJ9Ov7WyXCOO/64VQGAAAgkrwop9u4KiXCmL5zuG0AAP6LAToA3N1CgjCOZj4aAQAA8VTb/RBBnnfb1CsZAODvDNAB4I6yNFmOy29KhPG664e5DAAAQAR5UZ6Oyy9KhHHdNvWlDADwvwzQAeDb+N/YsbjKDgAAiOJSglAqCQDg0wzQAeAbZGlyMy5vlAjjedcPCxkAAIBDlhflq3E5UyKMq7aplzIAwKcZoAPAt5tOJa9liPO8u344lgEAADjwfS4xTN8z3K4HAF9ggA4A3yhLk5XNZihHnjcAAHCo8qKsxuVEiTAu2qZeyQAAn2eADgDfIUuTy3G5ViKMX7t+OJUBAAA4JHlRTrdt+cFwHLdtU1cyAMCXGaADwPez6YzFlYYAAMAh7nOOZAjDjyUA4A4M0AHgO2VpshyXKyXCeNn1w1wGAADgEORF+WJcXisRxnXb1O9kAICvM0AHgB9TjX9rGcK4lAAAADgQbtmKxelzALgjA3QA+AFZmtzMfHSI5KTrBx8dAACAvZYX5WJczpQI423b1O9lAIC7MUAHgB83DdBvZQij6vrhWAYAAGAf5UU57WcqJcJYe94A8G0M0AHgB2Vpspq5Ci2So5mPDwAAwP6a9q8nMoRRtU29kgEA7s4AHQDuQZYm78blWokwfun64VQGAABgn+RFOe1j/AA8jtu2qf3bOQD4RgboAHB/fISI5VICAABgz1Szj7dqEcNCAgD4dgboAHBPsjR5Py5XSoRx1vXDKxkAAIB9kBflfFxeKxHGb21TL2UAgG9ngA4A92s6hb6WIQxX4QEAAPYv7CK35AHAdzJAB4B7lKXJauajRCQnXT9UMgAAALssL8rFuDxXIow3bVPfyAAA38cAHQDuWZYm1bjcKhHGedcPxzIAAAC7KC/Kab/ih95xrD1vAPgxBugA8DAWEoRxNPNxAgAA2F3n230LQZ5329QrGQDg+xmgA8ADyNJkOS7XSoTxuuuHuQwAAMAuyYvydFx+VSKMD21TX8oAAD/GAB0AHs5CglAqCQAAgB1zKUEo5xIAwI8zQAeAB5Klyc24vFUijLOuHxYyAAAAuyAvyvm0T1EijKu2qZcyAMCPM0AHgIdVjX9rGeI8764fjmUAAAB2wKUEYUzfHSoZAOB+GKADwAPK0mQ1c4VaJCeeNwAA8NTyojzf7k+I4aJt6hsZAOB+GKADwAPL0uRyXD4oEcZ51w+nMgAAAE8hL8rpVqxKiTBux78LGQDg/higA8DjcCo5jqOZjxcAAMDTqbb7EmI4b5t6JQMA3B8DdAB4BFmaLMflNyXCeNn1w1wGAADgMeVF+WJcflEijOu2qd/JAAD3ywAdAB6PU+ixOIUOAADYh/CQfGcAgAdggA4AjyRLk5txeaNEGM+7fljIAAAAPIa8KF+Ny5kSYVy1Tf1eBgC4fwboAPC4ptMAtzLEed5dPxzLAAAAPNJ+kxjWM6fPAeDBGKADwCPK0mQ1LpUSYRzNfNQAAAAeWF6U0z7zRIkwLtqmXskAAA/DAB0AHlmWJpfjcq1EGL92/XAqAwAA8BDyopz2G364G8dt29SVDADwcAzQAeBp2OzGcikBAADwgPvLIxnCWEgAAA/LAB0AnkCWJstxuVIijLOuH+YyAAAA9ykvymmf8VqJMK7bpl7KAAAPywAdAJ5ONf6tZQjjUgIAAOAB9pXEsZAAAB6eAToAPJEsTW7G5UKJME66fvB/CQEAgHuRF+ViXM6UCONt29Q3MgDAwzNAB4AnlKVJNS63SoRRdf1wLAMAAPAj8qKc9hWVEmGsPW8AeDwG6ADw9JxKjuNo5qMHAABwP/vIExnCqNqmXskAAI/DAB0AnliWJu/G5VqJMH7p+uGFDAAAwPfIi/J0XH5VIowPbVP7928A8IgM0AFgNziFHouPHwAAgP0Ed+F7AQA8MgN0ANgBWZq8H5crJcI46/rhlQwAAMC3yItyPi4vlQjjt7aplzIAwOMyQAeA3TH9qnwtQxhOjQAAAPYRfInT5wDwBAzQAWBHZGmyGpdKiTBOun7wvAEAgDvJi3Iapj5XIow3bVPfyAAAj88AHQB2SJYm02mCWyXCOO/64VQGAADgS/KiPJ75wXUk03cBtw0AwBMxQAeA3bOQIIyjmY9gAADA11Xb/QNBnnfb1CsZAOBpGKADwI7J0mQ5LtdKhPG664e5DAAAwKfkRXk6Lr8oEcZ129SXMgDA0zFAB4DdtJAglEoCAADgMy4lsD8EAB6PAToA7KAsTW7G5Y0SYZx1/bCQAQAA+Ku8KOfTfkGJMK7apl7KAABPywAdAHbXxfi3liGMquuHYxkAAIC/uJQgjGn/X8kAAE/PAB0AdlSWJqtxOVcijBPPGwAA+Le8KKvtPoEYLtqmvpEBAJ6eAToA7LAsTS7H5YMSYfza9cOpDAAAEFtelNPtVH5gG8dt29SVDACwGwzQAWD3+WgSy4UEAABgXzD+Hclg3w8APD4DdADYcVmaLMflNyXCeNn1w1wGAACIKS/KF+PyWokwrtumficDAOwOA3QA2A/Tr9HXMoThFDoAANgPEGe/DwDsEAN0ANgDWZrczHxEieR51w8LGQAAIJa8KKd9wJkSYbxtm/q9DACwWwzQAWB/TAP0WxniPO+uH45lAACAGPKinN7/KyXCWHveALCbDNABYE9kabKyuQ7lyPMGAIBQpqu8T2QIo2qbeiUDAOweA3QA2CNZmlyOy7USYfzS9cOpDAAAcNjyopze+/0v7Dhu26b2b9oAYEcZoAPA/qkkCOVSAgAACLHPO5IhjIUEALC7DNABYM9kabIclyslwjjr+mEuAwAAHKa8KKf3/ddKhHHdNvVSBgDYXQboALCfpqv91jKEcSkBAAAcLFd5x7KQAAB2mwE6AOyhLE1WMx9ZIjnp+qGSAQAADktelItxea5EGG/apr6RAQB2mwE6AOypLE2qcblVIozzrh+OZQAAgMOQF+X0fu+H0XGsPW8A2A8G6ACw384lCONo5mMLAAAc2n7uSIY4z7tt6pUMALD7DNABYI9lafJuXK6VCON11w8vZAAAgP2WF+XpuPyqRBgf2qa+lAEA9oMBOgDsv4UEoTiFDgAA++9SglDcHgcAe8QAHQD2XJYmN+PyVokwzrp+eCUDAADsp7wo59N7vRJhXLVNvZQBAPaHAToAHIZq/FvLEMZF1w/HMgAAwF66lCCM9Xa/DgDskf8nAQDsvyxNVl0/TJvy/69GCCezj1cAVlIAzK4l2BsrCYDo8qI8377PE8NF29Q3MgDAfnm22WxUAIAD0fXDtDH3MSaG6STDi+0V/gAAwI7Li3K6RWp6fz9SI4Tbac/WNrUfkAHAnnGFOwAcloUEYUwf3SoZAABgb1Qzw/NQz9vwHAD2kxPoAHBgun54Ny4vlQjj5yxNljIAAMDuyovyxbj8rkQY121Tz2UAgP3kBDoAHJ5zCUKpJAAAgJ13IYF9OQCwHwzQAeDAbP8n9hslwjjr+mEhAwAA7Ka8KF9N7+1KhHHVNvV7GQBgfxmgA8Bhmk43rGWI87y7fjiWAQAAdnZ/RgzTPtzpcwDYcwboAHCAsjRZ2bSHcuR5AwDA7smLshqXEyXCuGibeiUDAOy3Z5vNRgUAOFBdP0zXxj1XIoyftlf4AwAATywvytNxmfZkR2qEcNs29akMALD/nEAHgMPmVHIsroYEAIDdUc0MzyNZSAAAh8EJdAA4cF0/XI7LayXC+DlLk6UMAADwdPKinI/LP5UI47pt6rkMAHAYnEAHgMNXjX9rGcK4lAAAAHZiH0YcCwkA4HAYoAPAgdv+T2xXe8dx0vWDq/sBAOCJ5EW5GJczJcJ42zb1jQwAcDgM0AEghmmAfitDGFXXD8cyAADA48qLcnoPr5QIY+15A8DhMUAHgACyNFnZ1Idy5HkDAMCTmG6DOpEhjKpt6pUMAHBYnm02GxUAIIiuH5YzVwlG8tP2Cn8AAOCB5UV5Oi5/KBHGh7apX8gAAIfHCXQAiMX/xo7lUgIAAHg0FxLYXwMA+88AHQACydLk/bhcKRHGWdcPr2QAAICHlRflfFxeKhHGb21TL2UAgMNkgA4A8Uy/kl/LEIZTMAAA4L2b+99XAwAHygAdAILJ0mQ183EnkpOuHyoZAADgYeRFOQ1TnysRxpu2qW9kAIDDZYAOAAFlaVKNy60SYZx3/XAsAwAA3K+8KKf37EqJMKZ9tB+kA8CBM0AHgLgWEoRxNPORBwAAHkK1fd8myPNum3olAwActmebzUYFAAiq64fluJwpEcY/sjR5LwMAAPy4vChPx+UPJcK4bpt6LgMAHD4n0AEgtoUEoTiFDgAA9+dSglAqCQAgBgN0AAgsS5ObcXmrRBhnXT8sZAAAgB+TF+V85javSK7apl7KAAAxGKADANX4t5YhzvPu+uFYBgAA+CGXEoSxnjl9DgChGKADQHBZmqxmPgZEcjL+ncsAAADfJy/KavteTQwXbVPfyAAAcTzbbDYqAACzrh/ej8tzJUKYTlC82F7hDwAA3FFelNNtTtN79JEaIdy2TX0qAwDE4gQ6APBvTiXHMX3sq2QAAIBvdjEzPLdPBgAOmhPoAMB/dP3wblxeKhHGz1maLGUAAICvy4vyxbj8rkQY121Tz2UAgHicQAcA/sqv62O5kAAAALw/Y38MAPzJAB0A+I/t/8R+o0QYz7t+WMgAAABflhflq3E5UyKMt21Tv5cBAGIyQAcA/tt0qmItQ5zn3fXDsQwAAPBpeVEez5w+j2TaD1cyAEBcBugAwN9kabKauaoukiPPGwAAvmh6Xz6RIYyqbeqVDAAQ17PNZqMCAPA/un5YzlxRGMlP2yv8AQCArbwoT8dlusr7SI0QbtumPpUBAGJzAh0A+JxKglAuJQAAgE/uiwzP41hIAAAYoAMAn5SlyXJcrpQI46zrh7kMAADwUV6U0/vxayXCuG6beikDAGCADgB8STX+rWUI41ICAAD4jwsJQllIAABMDNABgM/a/k9sH43iOOn64VwGAACiy4tyMS7PlQjjTdvUNzIAABMDdADgi7I0qcblVokwqq4fjmUAACCqvCin92E/JI5j7XkDAH9lgA4A3IVTyXEczT5e3Q8AAJH3P0cyxHnebVOvZAAA/u3ZZrNRAQD4qq4fluNypkQY/8jS5L0MAABEkhfl6bj8oUQYH9qmfiEDAPBXTqADAHflFHosrjAEAMB7MPa5AEA4BugAwJ1sTyNfKRHGWdcPr2QAACCKvCjn4/JSiTCu2qZeygAA/DcDdADgW0y/zl/LEIbTNwAARHIpQRjTvraSAQD4FAN0AODOsjRZzXxkiOSk6wfPGwCAg5cX5fRj4RMlwrhom/pGBgDgUwzQAYBvkqXJdCr5Vokwzrt+OJYBAIBDlRfl9L5bKRHGtJ912xYA8FkG6ADA91hIEMbRzMclAAAOW7V97yXI826beiUDAPA5zzabjQoAwDfr+mE5LmdKhPFzliZLGQAAOCR5Ub4Yl9+VCOO6beq5DADAlziBDgB8r4UEoVQSAABwgNy2FMu5BADA1xigAwDfJUuTm3F5q0QYZ10/LGQAAOBQ5EX5auZWrUiu2qZ+LwMA8DUG6ADAj6jGv7UMcZ531w/HMgAAcCCcPo9j2rc6fQ4A3IkBOgDw3bI0Wc18hIjkxPMGAOAQ5EVZbd9vieGibeqVDADAXTzbbDYqAAA/pOuH6Rq850qE8dP2Cn8AANg7eVFOtypN77NHaoRw2zb1qQwAwF05gQ4A3AenkmNx1SUAAPv+Pmt4br8KAPBJTqADAPei64d34/JSiTB+ztJkKQMAAPskL8r5uPxTiTCu26aeywAAfAsn0AGA++JX/bE4hQ4AwD6qJAhlIQEA8K0M0AGAe7H9n9hvlAjjedcPCxkAANgXeVFO769nSoTxtm3qGxkAgG9lgA4A3KfpVPKtDHGed9cPxzIAALDr8qKc3lsrJcJYe94AwPcyQAcA7k2WJquZjxSRHHneAADsielfTp3IEEbVNvVKBgDgezzbbDYqAAD3quuH5czViJH8tL3CHwAAdk5elKfj8ocSYXxom/qFDADA93ICHQB4CJUEoVxKAADADruQIJRzCQCAH2GADgDcuyxNluNypUQYZ10/zGUAAGDX5EU5vae+VCKM39qmXsoAAPwIA3QA4KFMv/pfyxDGpQQAAOwgp8/j7UMBAH6IAToA8CCyNFnNfKyK5KTrBx+rAADYGXlRLsbluRJhvGmb+kYGAOBHGaADAA8mS5NqXG6VCKPq+uFYBgAAnlpelNN7qR/0xrH2vAGA+2KADgA8NKeS4zia+WgFAMBuqLbvpwTZd7ZNvZIBALgPzzabjQoAwIPq+mE5LmdKhPGPLE3eywAAwFPIi/J0XP5QIozrtqnnMgAA98UJdADgMTiFHotT6AAAPKVLCUKpJAAA7pMBOgDw4Lankd8qEcZZ1w+vZAAA4LHlRTmfuf0qkqu2qZcyAAD3yQAdAHgs1fi3liEMp9ABAHgKlxKEsZ45fQ4APAADdADgUWRpspr5uBHJSdcPnjcAAI8mL8rp/fNEiTAu2qa+kQEAuG/PNpuNCgDAo+n64Wbmo1YU04mQF1ma3EgBAMBDyovyeFym984jNUK4bZv6VAYA4CE4gQ4APLaFBGFMHy8rGQAAeAQXM8PzSM4lAAAeihPoAMCj6/phOS5nSoTxc5YmSxkAAHgIeVG+GJfflQjjum3quQwAwENxAh0AeAoLCUKpJAAA4AFdSBCK0+cAwIMyQAcAHt32f2K/USKMs64fFjIAAHDf8qJ8NXO7VSRXbVO/lwEAeEgG6ADAU5lOiaxliPO8u344lgEAgPuSF+XxzOnzSKb9o9PnAMCDM0AHAJ5EliarmY8fkRx53gAA3LPp/fJEhjCqtqlXMgAAD+3ZZrNRAQB4Ml0/TNfvPVcijJ+2V/gDAMB3y4vydFymvcSRGiHctk19KgMA8BicQAcAnppTybG4YhMAgPtQzQzPI1lIAAA8FifQAYAn1/XD5bi8ViKMn7M0WcoAAMD3yItyPi7/VCKM67ap5zIAAI/FCXQAYBdU499ahjCcQgcAwPskd7WQAAB4TAboAMCT2/5PbB/B4nje9YOr+wEA+GZ5US6m90klwnjTNvWNDADAYzJABwB2xTRAv5UhjKrrh2MZAAC4q7woj2d+eBvJ2vMGAJ6CAToAsBOyNFnNPl7lTgxHnjcAAN/ofPseSZDn3Tb1SgYA4LE922w2KgAAO6Prh+W4nCkRxk/bK/wBAOCz8qI8HZc/lAjjQ9vUL2QAAJ6CE+gAwK7xv7FjuZQAAIA7cJW3fSEAwKMwQAcAdkqWJu/H5UqJMM66fpjLAADA5+RFOb0vvlQijN/apl7KAAA8FQN0AGAXTacN1jKEcSkBAADeF9nuA50+BwCelAE6ALBzsjRZzVzRGMlJ1w+VDAAA/Le8KKdh6okSYVy0TX0jAwDwlAzQAYCdlKVJNS63SoRx3vXDsQwAAPxbXpTT+2GlRBjT/s8PqQGAJ2eADgDsMlf3xXE087EMAIC/q7bviQR53m1Tr2QAAJ7as81mowIAsLO6fliOy5kSYfwjS5P3MgAAxJYX5Ytx+V2JMK7bpp7LAADsAifQAYBdt5AgFKfQAQDwXhiP28cAgJ1hgA4A7LQsTW7G5a0SYZx1/bCQAQAgrrwoX83cQhXJVdvUbqECAHaGAToAsA+q8W8tQ5zn3fXDsQwAAGE5fR7HtM9z+hwA2CkG6ADAzsvSZDX7OEQnhpOZj2gAACHlRVlt3weJ4aJt6pUMAMAuebbZbFQAAPZC1w83Mx/TophOorzYXuEPAEAAeVFOtxBN739HaoRw2zb1qQwAwK5xAh0A2CcLCcKYPppWMgAAhHIxMzyPxK1TAMBOcgIdANgrXT+8G5eXSoTxc5YmSxkAAA5bXpTzcfmnEmFct009lwEA2EVOoAMA+8YphVguJAAACKGSIJSFBADArjJABwD2yvZ/Yr9RIoznXT8sZAAAOFx5UU7ve2dKhPG2beobGQCAXWWADgDso+lU8lqGOM+764djGQAADk9elNN7XqVEGGvPGwDYdQboAMDeydJkNXOVeyRHnjcAwMGa3vNOZAijapt6JQMAsMuebTYbFQCAvdT1w3LmqsdIftpe4Q8AwAHIi/J0XP5QIowPbVO/kAEA2HVOoAMA+6ySIJQLCQAAvN+xt9wqBQDsBQN0AGBvZWmyHJcrJcJ42fXDXAYAgP2XF+X0XvdSiTB+a5t6KQMAsA8M0AGAfVeNf2sZwriUAADgIDh9HovT5wDA3jBABwD22vZ/Yvv4FsdJ1w8+vgEA7LG8KBfj8lyJMN60TX0jAwCwLwzQAYBDMA3Qb2UIo+r64VgGAID9kxfl8cwPYCNZe94AwL4xQAcA9l6WJquZKwEjOZp9vLofAID9U23f54jhvG3qlQwAwD55ttlsVAAADkLXD8txOVMijJ+2V/gDALAH8qI8HZc/lAjjum3quQwAwL5xAh0AOCROocdyKQEAgPc3dlYlAQCwjwzQAYCDkaXJ+3G5UiKMs64fXskAALD78qKcz9wWFclV29RLGQCAfWSADgAcmukU+lqGMC4kAADYC5cShDHtxyoZAIB9ZYAOAByULE1WM0PVSE66fqhkAADYXXlRTj9yPVEijIu2qW9kAAD21bPNZqMCAHBwun64mflIF8V0wuV0++MJAAB2SF6Ux+MyvZsfqRHCbdvUpzIAAPvMCXQA4FAtJAhj+hjr1gEAgN10MTM8j+RcAgBg3zmBDgAcrK4fluNypkQYP2dpspQBAGA35EX5Ylx+VyKM67ap5zIAAPvOCXQA4JAtJAilkgAAYKe4JSgWp88BgINggA4AHKwsTW7G5a0SYZx1/bCQAQDg6eVF+WrmNqhIrtqmfi8DAHAIDNABgENXjX9rGeI8764fjmUAAHg6eVFO72NOn8cx7becPgcADoYBOgBw0LI0Wc18zInkxPMGAHhy59v3MmKo2qZeyQAAHIpnm81GBQDg4HX9MF0n+FyJEKYTMC+2V/gDAPCI8qI8HZfp3ftIjRBu26Y+lQEAOCROoAMAUTiVHMf0sdaVoQAAT6OaGZ5HspAAADg0TqADAGF0/fBuXF4qEcbPWZosZQAAeBx5Uc7H5Z9KhHHdNvVcBgDg0DiBDgBE4hR6LE6hAwA8rkqCUBYSAACHyAAdAAhj+z+x3ygRxvOuHxYyAAA8vLwop/euMyXCeNM29Y0MAMAhMkAHAKKZTiXfyhDneXf9cCwDAMDDyYvyeOb2n0jWnjcAcMgM0AGAULI0Wc1cLRnJ0czV/QAAD+18+95FkOfdNvVKBgDgUD3bbDYqAADhdP2wnLliMpKftlf4AwBwj/KiPB2XP5QI40Pb1C9kAAAOmRPoAEBUlQShXEoAAPAgXOUdi9udAICDZ4AOAISUpclyXK6UCOOs64e5DAAA9ycvyun96qUSYfzWNvVSBgDg0BmgAwCRVePfWoYwLiUAAPB+xXeZ9k1OnwMAIRigAwBhbf8ntisn4zjp+sFHPwCAe5AX5fRedaJEGBdtU9/IAABEYIAOAISWpUk1LrdKhFF1/XAsAwDA98uLcnqfqpQIY9ov+eExABCGAToAgKsIIzma+fgHAPCjqu17FUGed9vUKxkAgCiebTYbFQCA8Lp+WI7LmRJh/CNLk/cyAAB8m7woT8flDyXCuG6bei4DABCJE+gAAB85hR6LU+gAAN/nUoJQKgkAgGgM0AEAZv/6X+jTaeQrJcI46/rhlQwAAHeXF+X0/uTWpjiu2qZeygAARGOADgDwp+kU+lqGMJxCBwDw/sSnrWdu6QIAgjJABwDYytJkNXNFYSQnXT943gAAd5AX5fTedKJEGBdtU69kAAAierbZbFQAAPiLrh9uZj4ORjGdrHmRpcmNFAAAn5YX5fG4TO9LR2qEcNs29akMAEBUTqADAPyvhQRhTB+BKxkAAL7oYmZ4Homr2wGA0JxABwD4hK4fluNypkQYP2dpspQBAODv8qKcj8s/lQjjum3quQwAQGROoAMAfNpCglAqCQAAvCdhHwQAYIAOAPAJ2/+J/UaJMM66fljIAADwp7wop/cjtzLF8bZt6hsZAIDoDNABAD5v+l+PaxnCqLp+OJYBAOBfw/PpvahSIoy15w0A8JEBOgDAZ2RpshqXcyXCOPG8AQD+43z7fkQMVdvUKxkAAGazZ5vNRgUAgC/o+uH9uDxXIoyftlf4AwCElBfl6bhM78BHaoRw2zb1qQwAAB85gQ4A8HVOJcdyIQEA4H3I8DyQhQQAAH8yQAcA+IosTZbj8psSYbzs+mEuAwAQUV6U03vQSyXC+K1t6qUMAAB/MkAHALib6RT6WoYwnEIHALwHEWWfAwDAXxigAwDcwfZ/YvuYGMfzrh98TAQAQsmLcjG9BykRxpu2qW9kAAD4OwN0AIC7mwbotzKEUXX9cCwDABBBXpTHMz8YjWTteQMAfJoBOgDAHWVpshqXSokwjjxvACCQavv+QwznbVOvZAAA+F/PNpuNCgAA36Drh+W4nCkRxk/bK/wBAA5SXpSn4/KHEmFct009lwEA4NOcQAcA+HaVBKFcSgAAeN/BfgYAIAYDdACAb5SlyXJcrpQI46zrh7kMAMAhyotyes9xu1IcV21TL2UAAPg8A3QAgO9zPv6tZQjjUgIAwHsOe27av1QyAAB8mQE6AMB3yNJkNS4XSoRx0vVDJQMAcEjyopx+FHqiRBgXbVPfyAAA8GUG6AAA3ylLk2pcbpUI47zrh2MZAIBDkBfl9F5TKRHGtG/xA2AAgDswQAcA+DHnEoRxNPPREQA4HBfb9xuC7Fvapl7JAADwdc82m40KAAA/oOuH5bicKRHGP7I0eS8DALCv8qJ8MS6/KxHGddvUcxkAAO7GCXQAgB+3kCAUp9ABAO8z7BO3ZgEAfIP/E4C9u+lt6zrUBbx00NPbdCJfIECGUn+B3aknVqeeJAcgwAEH0dHEGik6v6D0H7iVOaInjDTQQBcCrj3xNNSgbpEArdygcu3YMeUYSdyoMInIidIS4t17ayd1Ppz4gx+baz8PsLCENLXJd1HRFl+utRXoAAAvqVatdJLpkiRK49zm1vYbYgAAptHS8kp6HeP0pPLYaDUbTk8CAHgOCnQAgOGoJ6MnhtJY29zaPiUGAGCaLC2vpNcvdp+XR/r7id3nAADPSYEOADAEtWqlG05KdMphLngzEgCYPqv5dQzlUG81G10xAAA8n5nBYCAFAIAh2dza7gRvSpZFuqPnTH6EPwBAoS0tr8wnU3qU96w0SmG/1WzMiwEA4PnZgQ4AMFyLIiiN9M3nuhgAgClRD8pzv5cAAPCT7EAHABiyza3tK8n0uiRK4ze1aqUtBgCgqJaWVxaS6R1JlMZOq9lYEAMAwIuxAx0AYPjcG7tc6iIAAFyvUCCLIgAAeHEKdACAIcvviX1REqVxbnNre1EMAEARLS2vpNcp5yRRGpdazUZHDAAAL06BDgAwGmvJ6ImhPOu9ubV9SgwAQJEsLa+cyq9LKYf094+6GAAAXo4CHQBgBGrVSjc4yr1MZq03AFBAq/l1CiVZ71az0RUDAMDLmRkMBlIAABiRza3t3WQ6LYnS+FV+hD8AwEQtLa/MJ9M9SZTGjVazcUYMAAAvzw50AIDRsiu5XByRCgC4LsHvHQAAU0yBDgAwQrVqpZ1MG5Iojdc3t7YXxAAATNLS8kp6PfK6JErjaqvZaIsBAGA4FOgAAKNXT0ZPDKWxLgIAwPUIY5L+nmH3OQDAECnQAQBGLL8ntiM0y2Nuc2vbm5gAwEQsLa+k1yFzkiiNtVaz0REDAMDwKNABAMYjLdD3xVAa9c2t7VNiAADGaWl5Jb3+qEuiNPaDD+oCAAydAh0AYAxq1Uo3eDOzTGatNwAwAfX8OoSSrHer2eiKAQBguGYGg4EUAADGZHNru51M5yRRGr/Kj/AHABippeWV+WS6J4nS2Gk1GwtiAAAYPjvQAQDGy72xy2VdBACA6w5GoC4CAIDRUKADAIxRrVrZTaYNSZTGuc2t7TfEAACM0tLySnq94ZSj8thoNRttMQAAjIYCHQBg/NJd6D0xlMaaCAAA1xsMSS841QoAYKQU6AAAY1arVrrBm5xlMre5tV0XAwAwCkvLK+l1xpwkSmOt1Wx0xQAAMDozg8FACgAAE7C5td0J3uwsi3Sn0Hz+4QkAgKFYWl45lUzpNeWsNEphv9VszIsBAGC07EAHAJicRRGURvqmtlMHAIBhWwvK8zJxdDsAwBjYgQ4AMEGbW9vtZDonidL4da1a2RUDAPCylpZXFpLpHUmUxk6r2VgQAwDA6NmBDgAwWYsiKBW70AGAYamLwO8NAAAMnwIdAGCCatVKJ5kuSaI0zm1ubS+KAQB4GUvLK+n1hFOMyuNSq9noiAEAYDwU6AAAk1dPRk8M5Vnvza3tU2IAAF7E0vLKqWD3eZn0rDcAwHgp0AEAJqxWrXSDN8XKZC4Zq2IAAF7Qan49QTnUW81GVwwAAOMzMxgMpAAAUACbW9u7yXRaEqWQ7iQ6kx/hDwDwTJaWV+aTKb1mnJVGKey3mo15MQAAjJcd6AAAxWFXcnmkb3qviQEAeE5rQXleJosiAAAYPwU6AEBB1KqVdjJdlURpvL65tb0gBgDgWSwtr6TXDa9LojSutpqNthgAAMZPgQ4AUCx2oZeLXegAgOsG/F4AAFAgCnQAgALJ74l9URKlcXpza3tRDADAj1laXkmvF05LojQutpqNjhgAACZDgQ4AUDzp7qKeGMqz3ptb26fEAAD8kKXllVPB7vMy6VlvAIDJUqADABRMrVrpBkc2lsms9QYAfsRqfr1ASda71Wx0xQAAMDkzg8FACgAABbS5td1OpnOSKI1f5Uf4AwBklpZX5pPpniRKY6fVbCyIAQBgsuxABwAorroISmVdBACA6wPX/wAATJYCHQCgoGrVSjuZNiRRGuc2t7YXxAAApJaWV9LrAqcRlcdGq9loiwEAYPIU6AAAxVZPRk8MpbEuAgDAdUHp9ILd5wAAhaFABwAosPye2GuSKI25za3tVTEAQLktLa+k1wNzkiiNtVaz0REDAEAxKNABAAquVq3Uk2lfEqVR39zaPiUGACinpeWV9DqgLonSSK/zfWAWAKBAFOgAANPBruTymA3eNAeAMlvLrwcoyXV+q9noigEAoDhmBoOBFAAApsDm1nY7mc5JojR+XatWdsUAAOWxtLxyJpn+LInS2Gk1GwtiAAAoFjvQAQCmh13o5eIoTwDw8x/X9wAAjJkCHQBgSuS7kTckURrnNre23xADAJTD0vJK+nPfaUPlsdFqNpw2BABQQAp0AIDpku5S6YmhNOxCAwA/94lPL9h9DgBQWAp0AIApUqtWuslUl0RpzG1ubVtvAIjc0vJK+vN+ThKlUW81G10xAAAU08xgMJACAMCU2dza7gRvspbCl18efX79j+/+H0lASIsGR90CMTqVjPVkzIqiFPZbzca8GAAAiutnIgAAmEqLyXhHDPG7+bfbXyXTbyUBABDNdTwAAAXmCHcAgClUq1baybQjibg96nbT8aokAACisNNqNtpiAAAoNgU6AMD0WhRB3P7y/l5PCgAArt8BABgfBToAwJSqVSudZLokiTjdv//gqN/vuxcqAEAcLrWajY4YAACKT4EOADDd6smwSzky/X4/3L13byAJAIAo9PLrdgAApoACHQBgitWqlW4yrUoiLh/c+fDg+HjwiiQAAKKw2mo2umIAAJgOM4OBjS0AANNuc2t7N5lOS2L6fX54GN5970+CAACIw41Ws3FGDAAA08MOdACAONiFHom9m7cOpAAA4DodAIDJUKADAESgVq20k+mqJKbb3z87+OLw8PGrkgAAiMLVVrPRFgMAwHRRoAMAxMPulil382+3/yUFAADX5wAATI4CHQAgErVqpZNMFyUxne7cvdfr9/uzkgAAiMLFVrPREQMAwPRRoAMAxGUtGftimC79fj989ODBzyUBABCF/fy6HACAKaRABwCISK1a6SZTXRLTZe/mrYfHx4NXJAEAEIV6q9noigEAYDop0AEAIlOrVtaTaUcS0+FRtxs+O/jHa5IAAIjCTqvZWBcDAMD0UqADAMSpLoLpcPv23YdSAABwHQ4AQDEo0AEAIlSrVtrJtCGJYvv4k0+/PHz82O5zAIA4bLSajbYYAACmmwIdACBeq8noiaGY+v1++ODOh/+UBABAFHr59TcAAFNOgQ4AEKlatdJNpjVJFFNn/6Nev9+flQQAQBTWWs1GVwwAANNvZjAYSAEAIGKbW9udZJqTRHEcHR2F639874vkWvyX0gAAmHr7rWZjXgwAAHGwAx0AIH6OkiyYvZu3D5TnAACutwEAKB4FOgBA5GrVypVk2pFEMTzqdtPxqiQAAKKw02o2rogBACAeCnQAgHKwK6Yg9vZuHUgBAMB1NgAAxaRABwAogVq1sptMlyQxWR9/8umXR199Zfc5AEAcLrWajV0xAADERYEOAFAe9WT0xDAZ/X4/3Lp9Z0YSAABR6OXX1wAAREaBDgBQErVqpRu8yTcxd+7e+/z4+PgXkgAAiEK91Wx0xQAAEJ+ZwWAgBQCAEtnc2u4k05wkxufo6Cj8/g/vCgIAIA77rWZjXgwAAHGyAx0AoHwWRTBeN97/64EUAABcTwMAUHwKdACAkqlVK+1k2pHEeDzqdsPh4eNXJQEAEIWrrWajLQYAgHgp0AEAymlRBOPxl/f3elIAAIjGqggAAOKmQAcAKKFatdJJpouSGK379x8c9fv9WUkAAEThYqvZ6IgBACBuCnQAgPJaS4bd0SPS7/fD3Xv3BpIAAIhCL79+BgAgcgp0AICSqlUr3eAIypHZu3nr4fHx4BVJAABEYbXVbHTFAAAQv5nBwKYYAIAy29za3k2m05IYns8PD8O77/1JEAAAcbjRajbOiAEAoBzsQAcAwC70Idvbu/VQCgAArpcBAJg+CnQAgJKrVSvtZNqQxHD8/bODLw4fP35NEgAAUdhoNRttMQAAlIcCHQCAVD0ZPTG8vJt/u/0vKQAARKGXXycDAFAiCnQAANJd6J1kWpPEy7lz916v3+/PSgIAIAprrWajIwYAgHJRoAMA8LW0QN8Xw4s5OjoK9z968J+SAACIwn7wAVMAgFJSoAMAkKlVK93giMoXdvuDuw8Hg8EvJQEAEIXVVrPRFQMAQPko0AEA+EatWllPph1JPJ9H3W747OAfr0kCACAKO61m44oYAADKSYEOAMB3rYrg+dy+ffehFAAAXA8DADD9FOgAAHxLrVrZTaYNSTybjz/59MvDx4/tPgcAiMNGq9nYFQMAQHkp0AEA+CHprpueGH5cv98Pt27fcU0NABCHXrD7HACg9LzZBwDA99SqlW4yrUnix3X2P+odHx//L0kAAERhrdVsdMUAAFBuM4PBQAoAAPygza3tTjLNSeL7jo6Owu//8K4gAADisN9qNubFAACAHegAAPwYR1g+xd7N2wdSAACIxqIIAABIKdABAHiqWrVyJZl2JPFtj7rddLwqCQCAKOy0mo22GAAASCnQAQD4KYsi+La9vVt2nwMAuN4FACBCCnQAAH5UrVrpJNMlSZy4f//B0dFXX9l9DgAQh0utZqMjBgAAvqZABwDgWdST0St7CP1+P9y9d2/g5QAAEIVefp0LAADfUKADAPCTatVKN3hzMXxw58OD4+PBK14RAABRWG01G10xAADwpJnBwAYaAACezebWdieZ5sr43I+OjsLv//CuFwEAQBxutJqNM2IAAOC77EAHAOB5LJb1id94/68Hlh8AIBqrIgAA4Ico0AEAeGa1aqWdTFfL9rwfdbvh8PDxq14BAABRuNpqNtpiAADghyjQAQB4XqXbrfOX9/d6lh0AwPUsAADxU6ADAPBcatVKJ5kuluX53rl7r9fv92etPABAFC62mo2OGAAAeBoFOgAAL2ItGdHvyu73++GjBw9+brkBAKKwn1/HAgDAUynQAQB4brVqpRtKcPTl3s1bD4+PB69YcQCAKNRbzUZXDAAA/BgFOgAAL6RWrawn006sz+/zw8Pw2cE/XrPSAABR2Gk1G+tiAADgpyjQAQB4GfVYn9je3q2HlhcAwHUrAADlokAHAOCF1aqVdjJtxPa8Pv7k0y8PHz+2+xwAIA4brWajLQYAAJ6FAh0AgJdVT0YvlifT7/fDB3c+/KdlBQCIQnqduioGAACelQIdAICXUqtWOsm0Fsvz6ex/1Ov3+7NWFgAgCmutZqMrBgAAnpUCHQCAYUgL9P1pfxJHR0fh/kcP/tNyAgBEYb/VbNTFAADA81CgAwDw0mrVSrqrZ+qPxrz9wd2Hg8Hgl1YUACAKjm4HAOC5KdABABiKWrVyJZl2pvXxP+p2w2cH/3jNSgIARGGn1WxcEQMAAM9LgQ4AwDBN7S6fvb1bB5YPAMB1KQAA5aZABwBgaGrVym4ybUzb4/74k0+/PPrqq1etIABAFC61mo1dMQAA8CIU6AAADFu626c3LQ+23++HW7fvzFg2AIAopNehdTEAAPCiFOgAAAxVrVrpJtPatDzezv5HvePj419YOQCAKNRbzUZXDAAAvKiZwWAgBQAAhm5za7uTTHNFfoxHR0fh939412IBAMRhv9VszIsBAICXYQc6AACjslj0B7h38/aBZQIAcP0JAABfU6ADADAStWqlnUw7RX18j7rddLxqpQAAonC11Wy0xQAAwMtSoAMAMEqLRX1gf3l/r2d5AACisSoCAACGQYEOAMDI1KqVTjJdKtrjun//wVG/35+1QgAAUbjYajY6YgAAYBgU6AAAjFo9GYXZ7d3v98Pde/cGlgUAIArpdeaaGAAAGBYFOgAAI1WrVrrhpEQvhA/ufHhwfDx4xcoAAERhtdVsdMUAAMCwzAwGNt8AADB6m1vbu8l0epKP4fPDw/Due3+yGAAAcbjRajbOiAEAgGGyAx0AgHFZnfQD2Nu79dAyAAC4vgQAgKdRoAMAMBa1aqWdTFcn9ff//bODLw4fP37NSgAARGGj1Wy0xQAAwLAp0AEAGKeJ7RK6+bfb/xI/AEAUesmoiwEAgFFQoAMAMDa1aqWTTBfH/ffeuXuv1+/3Z60AAEAU1lrNRkcMAACMggIdAIBxW0vG/rj+sn6/Hz568ODnYgcAiMJ+fj0JAAAjoUAHAGCsatVKN4zxyM29m7ceHh8PXpE8AEAUVlvNRlcMAACMigIdAICxq1Ur68m0M+q/51G3Gz47+MdrEgcAiMJOq9m4IgYAAEZJgQ4AwKTUR/0X3L5996GYAQCisSoCAABGTYEOAMBE1KqVdjJtjOrP//iTT788fPzY7nMAgDhstJqNXTEAADBqCnQAACapnozesP/Qfr8fPrjz4T/FCwAQhfR60e5zAADGQoEOAMDE1KqVTjKtDfvP7ex/1Ov3+7MSBgCIwlqr2eiKAQCAcZgZDAZSAABgoja3tjvJNDeMP+vo6Chc/+N7XyTXub+ULADA1NtvNRvzYgAAYFzsQAcAoAiGdiTn3s3bB8pzAIBoLIoAAIBxUqADADBxtWrlSjLtvOyf86jbTcerEgUAiMJOq9loiwEAgHFSoAMAUBQvvQt9b+/WgRgBAKKxKAIAAMZNgQ4AQCHUqpXdZNp40f//x598+uXRV1/ZfQ4AEIdLrWajIwYAAMZNgQ4AQJGku9B7z/t/6vf74dbtOzPiAwCIQno9WBcDAACToEAHAKAwatVKN7zAm6Uf3Pnw4Pj4+BcSBACIQr3VbHTFAADAJMwMBgMpAABQKJtb251kmnuWf/fo6Cj8/g/vCg0AIA43Ws3GGTEAADApdqADAFBEi8/6L954/68H4gIAiMaqCAAAmCQFOgAAhVOrVtrJtPNT/96jbjccHj5+VWIAAFG42mo22mIAAGCSFOgAABTV4k/9C395f68nJgCAaNh9DgDAxCnQAQAopFq10kmmi0/73+/ff3DU7/dnJQUAEIWLrWajIwYAACZNgQ4AQJGtJeN7u8z7/X64e+/eQDwAAFHYz6/7AABg4hToAAAUVq1a6YYfOMpz7+ath8fHg1ckBAAQhXqr2eiKAQCAIpgZDGzcAQCg2Da3tneT6XT69eeHh+Hd9/4kFACAOOy0mo0FMQAAUBR2oAMAMA2+2YW+t3froTgAAKJRFwEAAEWiQAcAoPBq1Uo7ma7+/bODLw4fP35NIgAAUdhoNRttMQAAUCQ/EwEAAFNidf/+R/83mb8QBcBUmk/GnBiAXC/YfQ4AQAG5BzoAAAAAAAAABEe4AwAAAAAAAEBGgQ4AAAAAAAAAQYEOAAAAAAAAABkFOgAAAAAAAAAEBToAAAAAAAAAZBToAAAAAAAAABAU6AAAAAAAAACQUaADAAAAAAAAQFCgAwAAAAAAAEBGgQ4AAAAAAAAAQYEOAAAAAAAAABkFOgAAAAAAAAAEBToAAAAAAAAAZBToAAAAAAAAABAU6AAAAAAAAACQUaADAAAAAAAAQFCgAwAAAAAAAEBGgQ4AAAAAAAAAQYEOAAAAAAAAABkFOgAAAAAAAAAEBToAAAAAAAAAZBToAAAAAAAAABAU6AAAAAAAAACQUaADAAAAAAAAQFCgAwAAAAAAAEBGgQ4AAAAAAAAAQYEOAAAAAAAAABkFOgAAAAAAAAAEBToAAAAAAAAAZBToAAAAAAAAABAU6AAAAAAAAACQUaADAAAAAAAAQFCgAwAAAAAAAEBGgQ4AAAAAAAAAQYEOAAAAAAAAABkFOgAAAAAAAAAEBToAAAAAAAAAZBToAAAAAAAAABAU6AAAAAAAAACQUaADAAAAAAAAQFCgAwAAAAAAAEBGgQ4AAAAAAAAAQYEOAAAAAAAAABkFOgAAAAAAAAAEBToAAAAAAAAAZBToAAAAAAAAABAU6AAAAAAAAACQUaADAAAAAAAAQFCgAwAAAAAAAEBGgQ4AAAAAAAAAQYEOAAAAAAAAABkFOgAAAAAAAAAEBToAAAAAAAAAZBToAAAAAAAAABAU6AAAAAAAAACQUaADAAAAAAAAQFCgAwAAAAAAAEBGgQ4AAAAAAAAAQYEOAAAAAAAAABkFOgAAAAAAAAAEBToAAAAAAAAAZBToAAAAAAAAABAU6AAAAAAAAACQUaADAAAAAAAAQFCgAwAAAAAAAEBGgQ4AAAAAAAAAQYEOAAAAAAAAABkFOgAAAAAAAAAEBToAAAAAAAAAZBToAAAAAAAAABAU6AAAAAAAAACQUaADAAAAAAAAQFCgAwAAAAAAAEBGgQ4AAAAAAAAAQYEOAAAAAAAAABkFOgAAAAAAAAAEBToAAAAAAAAAZBToAAAAAAAAABAU6AAAAAAAAACQUaADAAAAAAAAQFCgAwAAAAAAAEBGgQ4AAAAAAAAAQYEOAAAAAAAAABkFOgAAAAAAAAAEBToAAAAAAAAAZBToAAAAAAAAABAU6AAAAAAAAACQUaADAAAAAAAAQFCgAwAAAAAAAEBGgQ4AAAAAAAAAQYEOAAAAAAAAABkFOgAAAAAAAAAEBToAAAAAAAAAZBToAAAAAAAAABAU6AAAAAAAAACQUaADAAAAAAAAQFCgAwAAAAAAAEBGgQ4AAAAAAAAAQYEOAAAAAAAAABkFOgAAAAAAAAAEBToAAAAAAAAAZBToAAAAAAAAABAU6AAAAAAAAACQUaADAAAAAAAAQFCgAwAAAAAAAEBGgQ4AAAAAAAAAQYEOAAAAAAAAABkFOgAAAAAAAAAEBToAAAAAAAAAZBToAAAAAAAAABAU6AAAAAAAAACQUaADAAAAAAAAQFCgAwAAAAAAAEBGgQ4AAAAAAAAAQYEOAAAAAAAAABkFOgAAAAAAAAAEBToAAAAAAAAAZBToAAAAAAAAABAU6AAAAAAAAACQUaADAAAAAAAAQFCgAwAAAAAAAEBGgQ4AAAAAAAAAQYEOAAAAAAAAABkFOgAAAAAAAAAEBToAAAAAAAAAZBToAAAAAAAAABAU6AAAAAAAAACQUaADAAAAAAAAQFCgAwAAAAAAAEBGgQ4AAAAAAAAAQYEOAAAAAAAAABkFOgAAAAAAAAAEBToAAAAAAAAAZBToAAAAAAAAABAU6AAAAAAAAACQUaADAAAAAAAAQFCgAwAAAAAAAEBGgQ4AAAAAAAAAQYEOAAAAAAAAABkFOgAAAAAAAAAEBToAAAAAAAAAZBToAAAAAAAAABAU6AAAAAAAAACQUaADAAAAAAAAQFCgAwAAAAAAAEBGgQ4AAAAAAAAAQYEOAAAAAAAAABkFOgAAAAAAAAAEBToAAAAAAAAAZBToAAAAAAAAABAU6AAAAAAAAACQUaADAAAAAAAAQFCgAwAAAAAAAEBGgQ4AAAAAAAAAQYEOAAAAAAAAABkFOgAAAAAAAAAEBToAAAAAAAAAZBToAAAAAAAAABAU6AAAAAAAAACQUaADAAAAAAAAQFCgAwAAAAAAAEBGgQ4AAAAAAAAAQYEOAAAAAAAAABkFOgAAAAAAAAAEBToAAAAAAAAAZBToAAAAAAAAABAU6AAAAAAAAACQUaADAAAAAAAAQFCgAwAAAAAAAEBGgQ4AAAAAAAAAQYEOAAAAAAAAABkFOgAAAAAAAAAEBToAAAAAAAAAZBToAAAAAAAAABAU6AAAAAAAAACQUaADAAAAAAAAQFCgAwAAAAAAAEBGgQ4AAAAAAAAAQYEOAAAAAAAAABkFOgAAAAAAAAAEBToAAAAAAAAAZBToAAAAAAAAABAU6AAAAAAAAACQUaADAAAAAAAAQFCgAwAAAAAAAEBGgQ4AAAAAAAAAQYEOAAAAAAAAABkFOgAAAAAAAAAEBToAAAAAAAAAZBToAAAAAAAAABAU6AAAAAAAAACQUaADAAAAAAAAQFCgAwAAAAAAAEBGgQ4AAAAAAAAAQYEOAAAAAAAAABkFOgAAAAAAAAAEBToAAAAAAAAAZBToAAAAAAAAAJD4mQgAAAAAAOCHXbh2/UwynXqZP+Py+bNtSQLAdJgZDAZSAAAAAACgFC5cu56W4V+X4mfyf/xkSZ5+PTvih7HzxNftfN5NRjcZncvnz3asFABMhgIdAAAAAIDoXLh2fSGZ5vORfp0W5Ken6CncCCeFejuf04J99/L5s12rCwCjo0AHiMDm1nZdCjA8tWql7ns+rsyYqp9pC+Hkzc0iaSev8bbVea51XAwnb1RDTNaT/xZ0xMCk5YVg4X5WOp6aCX9fpNcdZ/KxkF+HzEX8lPeTkf5MSr/vvi7V/YwCgCFxD3SAOPxWBDBUdd/z0WXG9Fgo6Gu8bWmey2IyzomByKT/HeiIAT8r/axk8vJ7ki/kI/16rmQRzOXj3BOZpKX6bv69uOtDLQDw4hToAAAAAAAU1hOF+RvBh/Se5utS/fU8s3RK77N+JZycErErIgB4Ngp0AAAAAAAK48K16+m9ytOyfCGfZ6XyQs7lI820F/IyPZ3dRx0Ank6BDgAAAADAROX3MU/L8sVknJbI0KUfQngzH28ned9I5vVwUqZ3xAMA/6ZABwAAAABg7JTmE5Xm/bt0KNMB4NsU6AAAAAAAjMUTx7OvBqV5UXy3TF8LjnkHoMQU6AAAAAAAjNSFa9fT0jwdb0qj0NIy/e1wcsz7RjKvXz5/ti0WAMpEgQ4AAAAAwNDlu83TneaLyZiTyNTJ7pmerON+ONmVvm5XOgBloEAHAAAAAGBoLly7fiacFOd2m8ch/fBDesR7PVnbK+nsXukAxEyBDgAAAADAS8uPaU+L83PSiNJs+Peu9J1wUqS3xQJAbBToAAAAAAC8sAvXri8mUz04pr1M0g9JvJOs/Y1kXrt8/uy6SACIhQIdAAAAAIDnpjgncToZbyevhfR1UFekAxADBToAAAAAAM9Mcc4PSF8LinQAoqBABwAAAADgJynOeQZfF+nZa8U90gGYRgp0AAAAAACe6sK16wvhpDg/Jw2e0df3SN9J5sXL5892RALAtFCgAwAAAADwPReuXZ9PprVkvC4NXlBapN9LXkuXwsmO9K5IACi6/xABAAAAAABPyu9lvRuU5wzHW8no5Ee7A0Ch2YEOAAAAAEAmP659PbjPOcM3G/59f/TVy+fP7ooEgCJSoAMAAAAAlNyFa9dPhZPi3I5zRi091v3PyWvuYjKvOdYdgKJxhDsAAAAAQIlduHb9jWTqBOU54/XbZOzmpx4AQGEo0AEAAAAASijddZ6MK8mX/y+cHK8N45beKuCd5HW4JgoAikKBDgAAAABQMnadUzBvJa/JdDf6GVEAMGkKdAAAAACAksh3nae7fe06p2hOh5N7o6+KAoBJUqADAAAAAJRAvru3nYy3pEGB/S69tUD6YQ9RADAJCnQAAAAAgMhduHZ9MZyU56elwRRIby3QcaQ7AJOgQAcAAAAAiFR+ZPt68uXbwZHtTJf09epIdwDGToEOAAAAABChC9euz4eTXedvSoMplh7pvu5IdwDGRYEOAAAAABCZ/Ojr3eDIduKQfgikrUQHYBwU6AAAAAAAEcnvd/7n4Mh24pJ+GMR90QEYuZ+JAAAAAAAgDheuXV9LprckMXQ7T/nnnXykO6OfVuym/9yHGYYjzTHdib56+fzZdXEAMAoKdAAAAACACKT3iQ7ud/68euHkqPvOd0b38vmzuyNYo7RMT8v2+e8MJfuzS3N6O8kyKNEBGAUFOkAcdkQwUkX8JdaaA8DzuZGMrhh4CV4/QGHl94VuB/c7f5bfpb8uy9N59/L5s2P97/uPlfL5Op7Jx3wyFqzpj0pL9DNJpquiAGCYFOgAEahVKwtSGJ3Nre12Mp2z5gAw1VaTn59tMQAQG+X5U/XyXNKRFuWFvw7Iy/yvH/OTa5y+B5CW6gv5sFP9395KvweS7BZFAcCwKNABAAAAAKaQ8vx70h3mV9JMRnH8+qTk5X861vJ1T8v0N8JJmX7Osoc38+PcF0UBwDAo0AEAAAAApkxeoqZl8VyJY+jlGXxdmpfidhv5hwN289dB+iGKN/LxeolfC0p0AIZGgQ4AAAAAMEXy8rwdynmU9zel+eXzZ6+U/bWQf2hgPR3KdCU6AMOhQAcAAAAAmBIlLs/T49nXw0lx3vVK+L4fKNMX81GmI/6V6AC8NAU6AAAAAMAUeOKe52Upz9Pd5uvJWLt8/mzHK+DZ5WV6es/0teR1sxBOivQ3S/L0legAvJT/EAEAAAAAQLGVrDzfT8Z/J2P+8vmzq8rzl5Pk187L5P+djIvh5IMJsUtL9HWrD8CLsAMdAAAAAKDAnijPYz+KOz2mfc29zUcj35VeT15P6c709D7p9WTMRfyU7UQH4IUo0AEAAAAACqok5XlanNfTndJWfPS+c6/0xRB3kZ6W6J3kOdetPADPyhHuAAAAAADFle4WjrU8v5GM31w+f3ZBeT4ZSe7ryZhPvvyfEO/R7r/NPygAAM9EgQ4AAAAAUED5PZzfjPCpZfc4v3z+7BnFeTEk65B+UGM+xHuP9LeT76cFKw3As1CgAwAAAAAUTL5jNrbyPC1m04I2Lc7XrXKxpEe750edn0nG1Qif4pXk++qMlQbgpyjQAQAAAAAKJN8p+3ZkTystZNPivJ7fg5uCStYnvWf4G8mXvwknpwXEYjac3Pf9lFUG4Mco0AEAAAAACiLfIXsloqeU7jr/r7SQTYtZKzw98uP109fjxYie1unIvr8AGAEFOgAAAABAAeQ7Y9fDyU7ZGKS7zucvnz+rsJxSTxzr/utk3IjkaZ1LvtfWrC4AT6NABwAAAAAohvVwskN22j2569xx7RFI1nE3Gelu9EuRPKW3Lly7/oaVBeCHKNABAAAAACbswrXrq8n0egRPZSfYdR6tZF3T12l6b/ReBE9nPb9lAgB8iwIdAAAAAGCC8hLvdxE8lf+5fP7sgl3nccvvjT4fTj4sMc3SWyWs57dOAIBvKNABAAAAACYkL++mfbd2uhv5N5fPn3Vf6ZLI742+kHx5ccqfSnrLhLoVBeBJCnQAAAAAgMlZT8bcFD/+G+HkyPa2pSyfZN3ryfRfYbqPdHc/dAC+RYEOAAAAADABF65dXwzTfd/zjcvnz55xZHu55fe7X0jG/hQ/DUe5A/ANBToAAAAAwJhduHZ9Ppmm+cjz9H7ni1aSVPJa2E2mM+HkRIJplN0P3UoCkFKgAwAAAACM33o4Ke2m0X+73znflZ9EsJCMq1P6FF6/cO36qpUEQIH+/9m7f+TGkQRfwNiJ9lXvBOQ7gbSuHHFcOdJETMQYY4jVjtrqUp+gWCdodlstp4tlrLERG7EqR+5QjtyRTjDSCZ50gnlIMtWt6qrSPybATOD7Ihio2Z2BkpkEkMAPmQkAAAAA0KIY0u0UWPSwzvWfj3e3Z1qRLwkhev0J64l/KPQrTEzlDoAAHQAAAACgJXHq9kmBRQ/h+eh4d3uuFXlMnN6/xBDdVO4ACNABAAAAAFoUpj4vber2u/D8QvPxVAWH6GEq930tCNBfAnQAAAAAgBbEUG6vsGILz3mxgkP0qancAfpLgA4AAAAA0LAYxk0LK7bwnJUVGqIPqjKXWgAgAQE6AAAAAEDzjqplKFcK4TnJFBqivzk8PR9qPYD+EaADAAAAADQohnBvCyv2WHhOSoWG6DMtB9A/AnQAAAAAgGbNCivv6+Pd7RPNRgPCTAyXBZV35/D0fF+zAfSLAB0AAAAAoCGHp+ejerNTUJHfHe9uz7QcTah/Wzf1JhwT1wUVe6rlAPpFgA4AAAAA0JySwrcPx7vbE01Gk2KIHkZ13xZS5MHh6flYywH0hwAdAAAAAKABMXTbLKS4YVrtI61GG453ty/qzbigIk/r4/mVlgPoBwE6AAAAAEAzJoWUM4wE3o8jg6EV9e/tpN68K6S4G5UXTAB6Q4AOAAAAAJBYHH0+KKS4ITy/0mq0LS4ZcFZIcY+MQgfoBwE6AAAAAEB6k0LK+e54d3uuuVijUtZDNwodoCcE6AAAAAAACRU0+vwyjgCGtYlLB+wXUlyj0AF6QIAOAAAAAJDWpIAyLtY911TkIM6C8FMBRTUKHaAHBOgAAAAAAIkUNPp8Yt1zclL/HkMwfVlAUcdaC6DbBOgAAAAAAOmUMDr17Hh3e6qpyNC4gDIO4osyAHSUAB0AAAAAIIHD0/NRvdnMvJhh6vax1iJHx7vbF/XmXQFFnWgtgO4SoAMAAAAApFHC6HNTt5O7MDvCdeZlHMQXZgDoIAE6AAAAAMCKDk/Ph/VmL/NiXpq6ndzVv9GbqoxZEo60FkA3CdABAAAAAFZXQpg21kyU4Hh3e15vPmZezL344gwAHSNABwAAAABY3Tjz8n2I60tDKbyUAsBaCNABAAAAAFZweHo+rjcbGRfxtjLdNIU53t2+qjfvMi/mWEsBdI8AHQAAAABgNePMyzeN60pDaabV8gWQXA0OT8/3NRNAtwjQAQAAAABeKK6BvJNxEUP4ONVSlCi++DHJvJhjLQXQLQJ0AAAAAICXG2deviOjzylZ/fsNL4BcZ1zEvcPT81daCqA7BOgAAAAAAC83zrhs18e72zNNRAdMMi+fadwBOkSADgAAAADwAoen51v1ZpBxESdaiS6IL4LkPAr9SCsBdIcAHQAAAADgZcYZly2sfX6iieiQacZl2zw8PR9qIoBuEKADAAAAALxMztM2T619TsfMquWLIc4HADRKgA4AAAAA8EyZT98eQsapVqJL4gshOf+ux1oJoBsE6AAAAAAAzzfOuGwnRp/TUbOMyxamcX+liQDKJ0AHAAAAAHi+nKdrnmgeuuh4d/uq3nxwXgCgSQJ0AAAAAIBnODw9H1b5Tt9+FkNG6KpZxmUToAN0gAAdAAAAAOB5cg7JZpqHLjve3Z7Xm+tMizfSQgDlE6ADAAAAADzPKNNy3R7vbs80Dz0wzbRcG4en5yPNA1A2AToAAAAAwPPsZVquE01DT+T8Wx9pHoCyCdABAAAAAJ4o89GlMy1EHxzvbl/Vm7NMizfSQgBlE6ADAAAAADzdKNNyXce1oaEvZpmWa0fTAJRNgA4AAAAA8HSjTMtl+nb6JtvfvHXQAcomQAcAAAAAeLpcR5fONA19cry7fVOZxh2ABgjQAQAAAACeIONRpbfHu9sXWogeynUU+kjTAJRLgA4AAAAA8DRbmZbL9O30Va6/feugAxRMgA4AAAAA8DSjTMs11zT00fHu9lW9uc6xbIen51taCKBMAnQAAAAAgKcxAh38/ks/XwDwCAE6AAAAAMAjDk/PX9WbQYZFuzze3b7RQvTYPNNyCdABCiVABwAAAAB4XK5h2FzT0HO5HgMCdIBCCdABAAAAAB4nQIcMxRkYLjMs2o7WASiTAB0AAAAA4HECdMhXlsfB4en5UNMAlEeADgAAAADwuGGGZbL+OSzNnTcASEWADgAAAADwuBynY77QLJD1sTDSNADlEaADAAAAADzg8PT8VaZFE6BDtVgH/are3GZYtFdaB6A8AnQAAAAAgIfluv65AB3yPh62NAtAeQToAAAAAAAPG+ZYqOPd7bmmgd/keDwMNQtAeb5RBQAArOq//vt/5mqBRIaqgIaM63PVSDX02uzvf/vrlWoAOtRHudYs8Ikcr/MDzQJQHgE6AAAp7KgCIHMHqqD35lWeD9aBMgwzLJNzGhRwTByeng/jGu0AFMIU7gAAAAAADxtmWKa5ZoHfZbykwVDrAJRFgA4AAAAA8LBXGZbpRrPAZ26dPwBYlQAdAAAAAOBhmxmW6UKzQBHHxZZmASiLAB0AAAAAoDxGoAMANECADgAAAADwFYen58Mcy3W8u20EOnxunmGZhpoFoCwCdAAAAACArxuqAsA5BKA/BOgAAAAAAGW5VAXwRWZmAGBlAnQAAAAAgLJY/xwcGwA0RIAOAAAAAPB1I1UArGBLFQCURYAOAAAAAFCWK1UAxRwbG5oFoCwCdAAAAACAslypAvjc8e62YwOAlQnQAQAAAAAAAKASoAMAAAAAAADAggAdAAAAAAAAACoBOgAAAAAAAAAsCNABAAAAAAAAoBKgAwAAAAAAAMCCAB0AAAAAAAAAKgE6AAAAAAAAACwI0AEAAAAAAACgEqADAAAAAAAAwIIAHQAAAAAAAAAqAToAAAAAAAAALAjQAQAAAADKsqUK4HOHp+eODQBWJkAHAAAAAPi6mwzL9EqzQDHHxrVmASiLAB0AAAAA4OsuVAGwgitVAFAWAToAAAAAQFmGqgAcGwA0Q4AOAAAAAFCWgSqALxqqAgBWJUAHAAAAAPg6U7hDOXJcA905BKAwAnQAAAAAgK843t2+ybFch6fnI60Dn9nKsEw3mgWgLN+oAgAAEninCkhkVH92VAMN+PPf//bXuWoAAOi0V6oAgFUJ0AEAWNnf//bXiVoghf/67/8JvyUBOgCQm7MM+yij+jPXNPCJzQzL5DgFKIwp3AEAAAAAymOkLdxzeHrumAAgCQE6AAAAAMDDLjIs05ZmgSKOiQtNA1AWAToAAAAAwMNuMiyTAB0KOCaOd7dvNA1AWQToAAAAAAAPy3EE6YYpq+ETwwzLdKlZAMojQAcAAAAAeFiuI0iNQoe8jwejzwEKJEAHAAAAAHjA8e72PNOijbQO/GYnwzLNNQtAeQToAAAAAACPu82wTEagQ+3w9DzXY8EIdIACCdABAAAAAB6X4zroAnTI+1i40DQA5RGgAwAAAAA8LscgbHB4ej7UNJDtcgYCdIACCdABAAAAAB6XaxA20jSQ5XFwe7y7bQp3gAIJ0AEAAAAAHneVablGmoY+i7MwDDIsmtHnAIUSoAMAAAAAPOJ4d3ueadFGWoeey/UYmGsagDIJ0AEAAAAAnuYywzJZB52+G2VaLiPQAQolQAcAAAAAeJpcA7F9TUOP5fr7F6ADFEqADgAAAADwNPNMyzXSNPTR4en5Vr3ZyLBot8e721daCKBMAnQAAAAAgKfJdUTp3uHp+SvNQw+NMy3XXNMAlEuADgAAAADwBMe72yFAv820eCMtRA/l+rufaxqAcgnQAQAAAACebp5puayDTq8cnp4P682m8wQAqQnQAQAAAACebp5puQTo9E2uv/nbOFsFAIUSoAMAAAAAPN0803JtHJ6ejzUPPXLkHAFAEwToAAAAAABPlPk66Eah0wuHp+db9WaQafHmWgigbAJ0AAAAAIDnOcm0XHtxXWjouqOMyzbXPABlE6ADAAAAADzPPOOyGYVOH+T6O7+2/jlA+QToAAAAAADPc5Jx2Y40D112eHo+rjcbmRZvroUAyidABwAAAAB4huPd7Zt6c5lp8QaHp+dGodNl44zLdqJ5AMonQAcAAAAAeL5ZxmUbax666PD0fKve7GRavNvj3W0BOkAHCNABAAAAAJ4v56Bs7/D0fKiJ6KCclyiYax6AbhCgAwAAAAA80/Hu9lWV7zTuwUQr0SXxpZCDjIto9DlARwjQAQAAAABeZpZx2Q6MQqdjjjIvnwAdoCME6AAAAAAAL5N7YDbWRHTB4en5q8x/zx+Pd7dvtBRANwjQAQAAAABeoIBp3I9i8AilC6PPNzIu30wTAXSHAB0AAAAA4OWmGZctBI4TTUTJ4ksgOU/ffnu8u236doAOEaADAAAAALxc7sHZG2uhU7jwksqGcwAAbRGgAwAAAAC8UFz3+EPmxZxoKUoUX/44yLyYUy0F0C0CdAAAAACA1cwyL9/B4en5lmaiQLmH05fHu9sXmgmgWwToAAAAAAArON7dnteb68yLaZQsRTk8PR/Vmz3HFQBtE6ADAAAAAKwu9yBt5/D0fKyZcEwlc1tZ/xygkwToAAAAAACrm1XLQC1n08PT81eaitzVv9OjerOZeTFPjne3b7QWQPcI0AEAAAAAVhSDtNxHo27Un4nWImeHp+fDQn6njiWAjhKgAwAAAACkMSmgjG/i2tKQqzB1+0bmZTw73t2+0lQA3SRABwAAAABIIAZqHwso6sxU7uSo/l3u15u9Aoo60VoA3SVABwAAAABIZ1pAGQeVAJDMxJc6ZgUU9fJ4d3uuxQC6S4AOAAAAAJBIDNbOCiiqqdzJzUmV/9TtwVRTAXSbAB0AAAAAIK1JIeU8MZU7Oah/h0f1ZqeAol4f727PtBhAtwnQAQAAAAASKmgUehjte6LFWKfD0/OtevNjIcWdaDGA7hOgAwAAAACkNymknDuHp+cTzcU6xBkQSnmJw+hzgJ4QoAMAAAAAJFbQKPTgrfXQWZNZ/RkUUtaJ5gLoBwE6AAAAAEAzJgWVNayHPtRktCXOfLBXSHEvjT4H6A8BOgAAAABAA+Io9I+FFHexHnqcUhsaVf/OxvXmbUFFPtJqAP0hQAcAAAAAaE5JwdtmVc561BTq8PR8q95MCyryWXwZBoCeEKADAAAAADTkeHf7qt68K6jIO4en5zMtRxNieD6vljMelGKs5QD6RYAOAAAAANCsMNr2tqDyHhyenk81GynF5QFmVVnh+U/xJRgAekSADgAAAADQoOPd7ZuqvDWU38R1qmFlMTyfV8tlAkoRXnqZaD2A/hGgAwAAAAA07Hh3e1Zvzgor9nshOqsqNDwPJvHlFwB6RoAOAAAAANCOowLLLETnxQoOz8+Od7ctYwDQUwJ0AAAAAIAWHO9uX9SbdwUWXYjOsxUcngdHWhCgvwToAAAAAADtCaNarwsstxCdJys8PH8XX3YBoKcE6AAAAAAALYlrKo8LLX4I0U1rzYMKD88v62N0ohUB+k2ADgAAAADQouPd7Xm9+anQ4r85PD2faUW+pP5tbNWbMHp7s9CvMNaKAAjQAQAAAADaN6nKnMo9ODg8PZ/HkcawEMPzef0ZFPoVTN0OwIIAHQAAAACgZXEq9/2Cv8JO/ZnH0JSeq38H43rzz/qzUehXMHU7AL8RoAMAAAAArEEc7fqu4K8QpukOIfpIa/ZXnNL/fcFf4bYydTsA9wjQAQAAAADWJI56PSv4K4QRx/84PD2faM1+CVP415/wEshB4V/lyNTtANwnQAcAAAAAWK8wlftt4d/hrXXR+yPOOnBVLWchKNnH493tmRYF4D4BOgAAAADAGnVgPfQ7YV30K1O6d1ucbeAfVbnrnd+5rEzdDsAXCNABAAAAANbseHd7Xm9+6MBXuZvSfWo0erfU7bkVp2x/24Gvs1j3PL68AgCfEKADAAAAAGTgeHd7Wm8+duTrvKk/F0ajd0Pdjkf1Zl6VP2X7HeueA/BV36gCAAAAAIBsjKvuBJWDajka/ad6OzHatzxh1Hm9mVXdCc6Dn6x7DsBDjEAHAAAAAMjEvfXQbzv0tcJo9LA2+lgLlyFMvx/XOv9n1a3w/GN9jB1pYQAeIkAHAAAAAMjI8e72Vb0ZdexrhbXR3x+ens/jqGYyFV906Mpa5/ddVssZHgDgQQJ0AAAAAIDMxPWZX3fwq+3Un38enp7P6s9QS+cjrFcfXnCo//m+Wk6/3yVhRod9ywgA8BQCdAAAAACADMV1mn/o6Nc7qD//CtOEh+nCtfb6hBcZYnD+j2r5gkPXhPB8FGd2AIBHCdABAAAAADJ1vLs9rTcfOvwVwzThV4L09sXgfFb/819VN4PzO/txRgcAeBIBOgAAAABAxo53t8dVt0P0sD76XZBuaveGxanaT6plcH7Q8a/7uj5+5lodgOcQoAMAAAAAZK4HIXoQgvS7qd1DkD7S8unU9Tm+N1X7Xg++8uu4DAIAPMs3qgAAAAAAIH8hRI/TnPch/AxB+kH9fS/rbZjG/qT+/jd+Bc8TR/OP42fQo68uPAfgxQToAAAAAADlGNefef3Z7Mn3Dd/zff2ZxmnHQ5B+4mfwsDDavN7sV/142eKPhOcArESADgAAAABQiDAKO05tPq/6E6IHd9O7h1Hp1/U2hOizuj4u/CqW6noJgfndZ6On1SA8B2BlAnQAAAAAgILEqcy3wjrh1TJU7pswFfmb8Ilh+rzq4cj0OJ3/qBKa3xGeA5CEAB0AAAAAoEBxTfTwz4MeV8Og+n1kevjPH6tloD7v4uj0+jtuVcuwfFR/dhwFvxGeA5CMAB0AAAAAoFBC9M/sxU8Im2/rTQjR5/FzEUfvFyGOMA+B+agSmD9EeA5AUgJ0AAAA+uAf//Xf/6MWSO3Pf//bX+eqAVi3GKJf1f98qzY+EaY034mfRd3EKd8v7n1u6vpb+7k8jiwfVsvA/O4z0IQPCi9IjPs2dT8AzROgAwAAAAAU7nh3exJD9Pdq40GD+Nm7+z/EEfx3o9Vv4jaY3/vfvWj0+r1R5HdGcTu89xGUP19or1EXp+kHYP0E6AAAAAAAHRCmsY4hehiRu6FGnuVutHpwF65/MqI/Bu2s32X92a9/71eqAoAm/EkVAAAAAAB0Q5yOfFR/rtUGHXRWLUeeX6kKAJoiQAcAAAAA6JA4rXWYNvxMbdAhH+rf9uglU+kDwHMI0AEAAAAAOiaEjCFsrP/5k9qgA17Xv+exagCgDQJ0AAAAAICOOt7dPqo3r+vPrdqgQGEpgv+sf8czVQFAWwToAAAAAAAdFsPHUf25VBsU5GP92YpLEgBAawToAAAAAAAdF0PIUf35oDYowA/1b3bfeucArIMAHQAAAACgB+K66OP6n3+pTOlOnu6mbJ+qCgDWRYAOAAAAANAjx7vbJ/Vmq/6cqQ0y8lNlynYAMvCNKgAAAAAA6Jfj3e2rejM6PD0/qreT+rOhVliTMBvCOL7YAQBrZwQ6AAAAAEBPxamyjUZnXT7Un6HwHICcGIEOAAAAANBj90ajj+ttCNSNRqdpYa3zMOp8rioAyI0R6AAAAAAAhCB9Vm+G1XJUMDTlXbVc63yuKgDIkRHoAAAAAAAsHO9u39Sb8eHp+axajkbfVCskEpYJGMcZDwAgWwJ0AAAAAAA+EUcHb5nWnQTCdO1H1jkHoBSmcAcAAAAA4IvuTesept2+VSM8Q/i9vKt/Q0PhOQAlEaADAAAAAPBVYVr3+jOp/7lVWR+dxy2C8/ozjL8bACiKKdwBAAAAAHhUXLs6rI8+qbfhc6BW+IPwgsXEOucAlEyADgAAAADAkwnS+QLBOQCdIUAHAAAAAODZBOm9F6Zqn9afmeAcgC4RoAMAAAAA8GL3gvSjenv32VAznXVdf2b1Z1q3/Y3qAKBrBOgAAAAAAKwshqmT8Dk8PR9XyyB9U810xlm1HG0+UxUAdJkAHQAAAACApGLIOjs8PR/V23FlevdShWnaT6rlaPML1QFAHwjQAQAAAABoxPHu9rzezOP07vuVUemluKyW65ufmKYdgL4RoAMAAAAA0KgYws6q5aj0YbUM0kOgPlA72bhb23wW17UHgF4SoAMAAAAA0JoYzoYA/ejw9HyrWk7xLkxfjxCahynaZ6ZoB4AlAToAAAAAAGsRQ9v7Yfp+/JjmvTlhevYQmp8IzQHgcwJ0AAAAAADWLoa54TOJ07yPqmWYHrYbaujFbuvPvFqG5nPTswPAwwToAAAAAABkJYa8s/ip4uj00b2PQP3rQmAeXkS4C8yNMgeAZxCgAwAAAACQtXuj06fhP98L1Lfip89Tvod1zOexfgTmALAiAToAPC6sxfZKNZCRP6sCOmxWLR/+5eRKs7h2wlcIKHCtdK1kTe4F6r85PD0fVb8H6sP6s9PBr34Zv/dVPBdc1HVx4xcBAOn8x7///W+1AAAAAABA58S11MNnVC1f8NuK25xHrIeQPITiF3E7D1sjywGgHQJ0AAAAAAB6KY5aD+6C9T/+++4/r7rm+tm9f9+F43/8t9HkAJABAToAAAAAAAAA1P6kCgAAAAAAAABAgA4AAAAAAAAACwJ0AAAAAAAAAKgE6AAAAAAAAACwIEAHAAAAAAAAgEqADgAAAAAAAAALAnQAAAAAAAAAqAToAAAAAAAAALAgQAcAAAAAAACASoAOAAAAAAAAAAsCdAAAAAAAAACoBOgAAAAAAAAAsCBABwAAAAAAAIBKgA4AAAAAAAAACwJ0AAAAAAAAAKgE6AAAAAAAAACwIEAHAAAAAAAAgEqADgAAAAAAAAALAnQAAAAAAAAAqAToAAAAAAAAALAgQAcAAAAAAACASoAOAAAAAAAAAAsCdAAAAAAAAACoBOgAAAAAAAAAsCBABwAAAAAAAIBKgA4AAAAAAAAACwJ0AAAAAAAAAKgE6AAAAAAAAACwIEAHAAAAAAAAgEqADgAAAAAAAAALAnQAAAAAAAAAqAToAAAAAAAAALAgQAcAAAAAAACASoAOAAAAAAAAAAsCdAAAAAAAAACoBOgAAAAAAAAAsCBABwAAAAAAAIBKgA4AAAAAAAAACwJ0AAAAAAAAAKgE6AAAAAAAAACwIEAHAAAAAAAAgEqADgAAAAAAAAALAnQAAAAAAAAAqAToAAAAAAAAALAgQAcAAAAAAACASoAOAAAAAAAAAAsCdAAAAAAAAACoBOgAAAAAAAAAsCBABwAAAAAAAIBKgA4AAAAAAAAACwJ0AAAAAAAAAKgE6AAAAAAAAACwIEAHAAAAAAAAgEqADgAAAAAAAAALAnQAAAAAAAAAqAToAAAAAAAAALAgQAcAAAAAAACASoAOAAAAAAAAAAsCdAAAAAAAAACoBOgAAAAAAAAAsCBABwAAAAAAAIBKgA4AAAAAAAAACwJ0AAAAAAAAAKgE6AAAAAAAAACwIEAHAAAAAAAAgEqADgAAAAAAAAALAnQAAAAAAAAAqAToAAAAAAAAALAgQAcAAAAAAACASoAOAAAAAAAAAAsCdAAAAAAAAACoBOgAAAAAAAAAsCBABwAAAAAAAIBKgA4AAAAAAAAACwJ0AAAAAAAAAKgE6AAAAAAAAACwIEAHAAAAAAAAgEqADgAAAAAAAAALAnQAAAAAAAAAqAToAAAAAAAAALAgQAcAAAAAAACASoAOAAAAAAAAAAsCdAAAAAAAAACoBOgAAAAAAAAAsCBABwAAAAAAAIBKgA4AAAAAAAAACwJ0AAAAAAAAAKgE6AAAAAAAAACw8I0qAACa8O1332/Vm1eP/Neufv3l5yu1BQAAkP093rDeDN3jAQBd9x///ve/1QIA8Czffvd9CMa34if8exT/Xzsr7Pa2/lzUn5u4vaqWD1/mahwAAGAt93jhP2+seI8XzO/d613U93k3ah0AyJUAHaD8m9xwMztVE82ob+pHamHxOwv1cPdZ5QHKS11Xywct8/Cp2+VCq7yoHecJdhMedh2pzUbqdlbX7Szz7zmN54CXOHLsPlq/43oz7sNvKeFxU4K7sCC4ip8bx0Nv+k+TBLsKLxSOO1pHqc57pNVofy/hPWwR17sC7vHuQvPBmu7xLuI93lyrrKVPNTZjgD46AJ8zhTtA+cKb4TuqgcQ3iOEByn61fKCSw+9rED97sXxhJEN4SHBSLR+2uOF/GueKvOt2XsD33Frhu56Ec4vRRg8a9ui31Ldz0t4XrrVhE8KDq9hmYXshWO+Uo0S/85369zLraLg0rPRP3MN2/3qXyz3eMN7j7Wd4j/c2Xhc/3t3nucdrrU8V+ugjfXR9dAA+JUAHABZiaD6ulg9UBpkXN4yA36t+D9Qv682s8qAFchbOK+Gll5GqgE+Oi/DZuXc9vpvudh6vawL1MvtVw+oLL06sYFx58A687Fx0VMg9XnXvHu9H93it2ayWM0KMVQUA/E6ADgA9Fte5CzfK4aHKoOCvEm76f6yWD1rCqIUTU6NBlsIoyqllAOBB4SWxnfh5GwP1xYwr8fpmhFgZJon3d1D/FiZCJOCJ93j78R5vsyP3eCFMn7oONiZcY8JyIRNVAQBLf1IFANA/YbR5mAq0/uf/q5YPJQYd+nphxML78AAgPGiOD5CAfLyJ6wgCTxMC9YNwbQvX7fr4OXEMZd/PehXbLLWJ2gUeOPcM4z3eVbxmbHbo623G7xTu8aZxZD1phZf29lUDACwJ0AGgR8LaZvVnXv/zn1UzD3ZzEl4KeFstw4aZhyyQlWlcNgJ4vrsXxW7i9c2xlJ+mZtnY92Ig8JV7vDBTyb/iPd5Gh79u+G5vwnd1j9cI/QoAiAToANAD94Lzf1T31lntkfAg6e4hiwfPsH7h4eeJ4xFWPo7C9e2f4Rpv1Fg2fa5wXjtqsM0tgQHcnW+27t3j7fX8Hm/oF5HsOuOeGQAqAToAdFqcxm9e9Tc4/6PwkMXU7pCHMEvEXDVAEuEa/79x+ZKx6lir8CJDk6M/BejgHu9uqvZ/usf77R7vX3Fqd/d4qwvT5c9UAwB9J0AHgA4KDw5CSFwtp/HzUOVT4aF2mNr9wmg9WLvN+AAYSCO8mPI+Bumucesxabof4yUJ6PV9XjjHXFTdX47rJcLU7l4kS2Mv/tYAoLcE6ADQMWG69mr5UOWt2nhQCBnCaD3TSMN6HXjQCY1d4+bWMm21DzaOdd+0idqG3p1fwnTtd/d4G2rkq0LdvI/Xv6HqWMlbL+MB0GcCdADoiDjqfFotp2sfqJEnC+sFGqkH6/VeyAeNCLPQ/NO0tq0Zt/R3Bvot0Kv7vEm1nK59U2086/oXZhyz7MVqZvroAPSVAB0AOiDe1IYRCW/UxouEkQphpN5MwABrM3f8QWNC/8DSJc32xUZVu8vmCIWg++eV4b1R57zsHu9HM46tXIfukQHoJQE6ABQuThcaRiQYdb66sJag6W5hPcIDurlqgMbcTetuNHoz2g60d/RXoNP3eOGFpxCeG3W+ujDj2IVz5ouF3+BMNQDQNwJ0AChYGDFdb96riaTCA4J5HEkGtHz8xfMa0Jw3lZfFUvfHhtUyoGmbUejQzXPKpN78b2Wt85TCS2T/jC+f83x78XcJAL0hQAeAAsX1zsOIhIOMi3lZf84e+VxnWvbwsOofHrDAWhw49qBxdy+LOdbSmKzxfDlU/dCpe7xZlfeU7U+5x7vMuPzvw0wsfm0v8la/AYA++UYVABCFIPNKNeQvTrs6r/KYzi/8bi7ufW5+/eXn+Qu/UxgJN4zb8NnJ4PuFByxb9XcywgvaP/Yu6mPvQlXwBGcZlilcz3JfWmXDdS5Zv2yda8sfVWWPRL/K9Bj+khR901LuuVx/+32Pdxt/A/NV7vHi9xrFa2L4jOJ93rpH1r8J9V1/p7Ff3rNN9dEB6AsBOgB3ZvVN0EQ15C1Otzqv1vfQITxMOYllmNe/masUO633c1N9Ye3j+H1H1fLB9LoCdQ9YYD3C6NhhPD/AQ9eQUebX7mH1e3gQPncviuUSsLvOreaoWm8YNA7T6pZ6rqzLPasKWVu3rud/u+eiod/WusPz27v7u3iPd5HwGH/oHi989tb0ncMMHpVr37OF691JfPlOHx2AThOgA0Ah1hie34XmJ/VN8kmbfzg+vAmf6b0RXuOq/TDdAxZoXzjXhRB95AEdJYsvm1194bp+N/vKKF7f1jnq8G4q8H3H27Ote/T3RizDRFNAkfd46wzPP2R0jxc+bYfpB3dhvmvfswzi84GRqgCgywToAFCANYXnYe26aRwZtHbxoUYoyyw+5A8Pi8ct1okQHdoXHiZP47EOnXJv9pXwmaw5RAjCy2leWnle/yxFP+Q2wT5COSZaBIo7h6wjPL+O54uTHM71X7jHG8dPW7O06Gu+sM8Q1pK3BAwAXfYnVQAAeYsPVsIb3m0FxWEdyj/XN8NbuYTnfxRG88Wb9WH9+aFaPghqQwjRp36V0Kpw3Hk4R+eFECFcd+tPCND/T/15XbW/NnQIEuax78HjJgn2Ec5vtyvuYxDDfKCse7x51V54Hq4nf6mvMcN4rcnuRal4jxeWpBjGa2Cb93gzv8pne+PaA0CXCdABIGP3Hqy08Qb+XXA++tJadTmKYcM0PmR5V63+ANqDAsjTj2FUrGqgL+6F6eF3/3+r5TS7bQlhzkwrPNpH20/QP7uOLyumeDlvolWgKCdVO+H55b17vJNSKideA8M9XltBuhelX2YaZ8sDgM4RoANA3mZV8w9WwgOJv5QUnH9JGK1QLUek/9TCn3svzIPWncSpPaFX4oi8cdVukL5nNN6jUsyMMbnX31vVQN8EyhDPrzsN/5nwYvHrOKtYyfd4oa5CQPuuhT/nRenn24h9dDPXANA5AnQAyFR8A77pNVBD2LxV0miEh8QRe+GB9p+r5WiLJp142x5a5QEdvfaHIP1jC38yjMabqPkv9tFG1erhVwi3Tu7atkrzcoT2gvzPH+E8ftDwnwnXiGGuy3G98B4vnN/+s2p+aZP37vGebXB3PQOALhGgA0CG4rSgbxr8E2HUeZjK7yjH9e9WFUdZjKpmR6OHMG8mzINWhRk5TK9Jr8UgPfQT/lw1P63t29gn4VPjBPuY/qEPluLctiP4gazv8cLx+b7BPxFezAkzi+139B7vIi5t0vRo9Ll7vBddf/TRAegUAToAZCZOUTxr8E+EEQlFT+X3FPdGo/+lam5tdGEetC+Mij1SDfRdvI6HMKbppUtmlk/4rJ+WYvTo7A/teVGlGVnp/Ah5njtCINvkKN3LqkMziz1y/ZtUy9HoTd3jbVRGVL+EKfAB6BQBOgDk5yTetDfhXVdHJHxNfIg0qpqb0v3A6Dxo3Y/W+oXPli4RJLRjkmAfH+K07X80S9QvGWomyE44vgcN7ftDXOv8qkfXv/DS0bDBe7wdL2y+iCnwAegMAToAZCSuNbrZ0O5fx7f1eyc+YBlVzT1gMZU7tO9ESAS/XefmVbNBwqb10H8bQZripbnZV9ox/N9TTMsv9IG8zh3hvLHX0O5/qM8d455e+27iPd6Hhv7Ej8LgFzEFPgCdIEAHgEzEm/O3Dez6bi28WZ/r994DlrMGdr9YD92vGFq1GBXrAR38fp0LIxCr5oKEt4KERTC96ixBZ48so5NiaZixcyNkc4/3qsH7hPCCdK+Xk4rXvnGD1z7Ldb2sjz5XDQCUToAOAPlo4uY8hOejPqyF9xTxAcuoauYBy54ppaF1m5UHm/DHa924ai5ImPW8esct1OGsWn06/hBeGIUO+dzjNbE81+u+vyDd0rXPVO4v7KPX9eb3CUDRBOgAkIH65jLc8O80sOtxnL6cT4WHIE1McztTtdC6A1NLw6caDBI2+xokxL7aqusXXz8WeMUZc1L0J8aOBFj7eWMU+ikN7Fp43u61b2JWjxf30V2LACiWAB0A1izejDcxgvK1kedfdm8699Qh+kCQB2vxNq4vCvx+rRtXgoSk3zvBPqaJ/3uP9UnGjgRYqybu8d4Jzx+99qVesmsj0TWgj95b/gWAUgnQAWD9Uqyn+UcerDwihughcLtN3Z5GKMBazDygg8+udeMqfYge+iy9WjohjiJddfR56G/MnthuV/XmY4KiTxwFsLbzRjj/bibe7Yf6/OC4fly4x0v9ovSbuk2HqvZF5u6PASiRAB0A1ijeSKaeCvWjBytPEx9Qpx61at1ReFwTo2LDsTfzgA4+u9aNq/RBwkHPgoQU/aqT+PLeU6UahT5yFECx5437Lt1jPPm6F8614dp3m3mb5uhjA/sMffS5XyYApRGgA8B6pR59fl1Z8/JZfv3l53Az/y51uwrx4MHjLpynLhvYdRjpNVPD8JlRJUh4kTizxU7b9RX7J5faCYo8b4R+ziDhLsP5e/+ZL+H0va95UaV/4aAPL4811kev604fHYCiCNABYE0aGn0+9mDl+eKI/ZRr5RmFDo8bVekDvWCvPr9OVC98cp27W7Ykpb6MQk9xPf8YZ715rhSj0HcsbwGtS90POXrhOaTv175ZlX5E9aTjddbU6P27fsPYLxOAUgjQAWB9Uo8+/ymOVuJlws38beL2Bb4iPqAbNbT7t99+9/2+WoZPjrnQR/ipgb5MZ8UXBA4S7Gr6wjabVcvZhbQTlHPeCPcUKUeff4znAvK4x+v8y2Nx9P64od2/91IXAKUQoAPAem/mUwkPVyeq9OXiqI5pwl1ueMMeHj3uwgO61w3tfuYBHXxmUqUJZH/ry3R8yZIUwfPlii84zhKUoW9r1kNX7vFuKy/ArNrXvKnSh8HjHtTbSZV+mbM7c9ckAEogQAeANYgjI1OOTDgydfvq4lTuKYMFD7zg8eNuVm8+NLDrMMPHrOPhHjz3eEsdJITjrJOzPcRzR4q6mq75f69PAu2dN8KLezsJdzk1dXuSa18Ig1Mu13XUk3oL98YfG9h16Duc6KMDkDsBOgCsxzjhvs7iQwHSSPlAZNMIWHhcfQ4L58TLBna9WaUZvQldOt7mlSDhqd9r1aV2rledejm+9JDiJaOxsAKKuo+4jgEm+bXNRo+WCmqyjz71swQgZwJ0AGhZnK5sL+EuJ2o1nQZGKIzVKjzJqEq7RuWdvfq86wEdNHdt6urLYinqaJZRXy+8DGAUOjQrZajqHi/tPV5YNijljEfjntTbTfxdN9FHD8uLuC4BkC0BOgC0L+WDlbMV19XkyyaZtjd0VnxAN2po92++/e77sVqG3463q0qQ8FXxfJFiqZ1pwvY6006Q9Xkj9Pk3Eu1u5dkraPweb68vs3rEa1BT97Q/1vU48tMEIEcCdABo3zjThwBE8aWEVFPVDTwUgCcfe2F00OuGdj+1pAJ8ekwk3FfXXhZLMSLuQ3wxKKc+38DLRNAYo8/z72deVWlfHtvvUd2F++MfGtr9SZylDwCyIkAHgBbFG8PNRLu7NPq8UYIFWIM44uqnBnYdRoWdWAMYfjvWwgsrqZYsGXTlBZX40luKvtokcXuFPt91buUCkvf3b40+b9QswzYvpd8Q7o8/NLBrfXQAsiRAB4B2jRLuy5q+DYoPrlKt9SZAh+cdf2H051kDuw5TMp+oYfjNLNM+zjpNEuzjLI50zLFsZsaBxOIxlWr69pkabbSPOa/SzTS218MqPEpYf/eFF9c83wAgKwJ0AGhXyiBVCNS8WaL9DExLBy86X143sN+d+nj0gA4qL4v9UbxW7yTY1aShIp4kaq+JXz9ke4+nj1LOPV7VtxeS4tIk+wn7Dvcd1PV55OcJQC4E6ADQrlQ32KnX1eTLZhm2PfRCww/o3lgHGH6T6oW8nQ7UxSTBPq6bWmInnhdThGs7XZlyHzp2j3fZ0OwVNHeP17uZxuJvtKnv/aNZUgDIhQAdAFoSH1SmmtrP6PN2Hg6E9WFTjYD1IABedgw2NRJlKkCCtH2Kkh96x9HnBwl2NWm4qLNE+zHKD9KcO8K6zZuZHd883L8MLyN9TLS7rZ7W4bze/NBUv0QfHYAcCNABoD2jhDesAvT2nOTW/tAncYrpnxrYdXih6SQ++IY+H2OppgUPSn7gPU6wj9uq4Zcc48i/Dwl2dWB5GcjuvOcerz3zRPvZ6WsF1tejaaLr0Zf66DN9dADWTYAOAO1J9XDlo6ps1TzRfgYeAsDL/PrLz2Gk5FkDux5UHlZDymvdqMQvH6/PKUZkT1taYifVGslGoUM+571r07e3yuwr6a4jlw3sN8zqMPMzBWCdBOgA0J5UAfpcVbYn8Wh/U9HBy4W1Fq8b2G9YC3iqeum5VH2LYaHff1ylWWZn1lLfJCxvkeKlorGX+yCb/r0X+tq9x7tK2K/c6nE9hpfGRlW6mWzu26uvURO/VgDWRYAOAO1JtTbehapsXaqRryNVCS8TH9CFEL2JB3Rvvv3u+7FapsfmmfV12pZiJPaHlkePzhLsY6MyCh1WlSo8dY9X7rVvqI/e2H3u27qPvu+nCsA6CNABoAX1TV+yt9LrG9S5Gm1dqgdaQ1UJK53/wrHYVNjzPuW5Ggo8trLr87TURxtXy+UcVjVtuc1mVZrRk2NHAKxkkGg/7vHKvcfrff8x9iNeN7T7mT46AOsgQAeAdqSaHvNMVa6FAB0yEUOjdw3tfm46Y3osVR+jtGMoxUs5ZylfQniGFKH9wAwc8DIJQ71b65+7x+tIH/1DA7sOs6XM9NEBaJsAHQDaMUq0nytVuRYerkBGfv3l50m9+djArsMDurkaxrUuiz5P47797vtQ1hTTzs/W9BXC302xrMXEzx9eJFWgZ/r29fQnU/X5Bmrztzod15vLBna9ucZrLQA9JUAHgLJcqYK1PAhI9VDLwxVIZ1w19IDu2+++n6leeuimh985xejz6zjqbh39k9BmKf72IL5MADxPquNGgL4+KZbCCC9kDVXlJ8fFbQP73avreaJ6AWiLAB0A2pFqej8PV9Yn1cMVU89BAjE4GlfNPKA7MKUxPTTPrM/TqBh27CXY1XTNXyXV3584BGBtblTB2lwl2s9QVX7SRx81tPu39fV7Xy0D0AYBOgC0I1Vo6uHK+lwl2s+WqoQ04uwQ44Z2/z7h2qagz5OfSYJ9hBd4Zms+D4b+SYolLXac82Bt5zsvSZd/j8fnffTXDe1+5noFQBsE6ADgBh+gWL/+8vNJvXnX0O7nZo1AH6N74nF9kGBXszjSbt1SjUI/chjAs6QK8bwkXf61T6D7eR99Vm8+NLDrjWoZouujA9Cob1QBANGop+tJzesbu3kLfyfJzV0cZcR6hLfod1QD5Kc+N07iSJS9xLsOD+jCNcJDUfpwHF3Vx1Ffvm6qoHiaSduFl30u639urrirsHzFRH8TYD33+x3sW4xjH30z8a7D/sJLtCO1DEBTBOgA3Nmp+hsOzlv4G5t+YsUzMgTyNo7n8+QP6L797vswynSsiuFJsn7hJI5YSxGgf8wsaA5h/vsE+zmqjESHtl2pAjpsFH/jG4n3G5YemdbXYtcsABphCncAgHYZnQANiNMoj6vlmsSphVGZY7UMT7KRefn2E5VxmtOXilPlXifY1di0uND68XulFtbG+vPt9NFHDfXR3+ijA9AUAToAQLtMBQ0N+fWXn8ND0HFDu3//7Xffj9QyFG+SYB+XLS0B9FyzBPsILxcYzQf0hVnG2uujN3VtmcZp4gEgKQE6AADQGb/+8nNYD/GHhnZ/8u133w/VMpQpjlIbJNjVNNOvGMqVYoTf2K8FgMR99Fm9+amBXW/EPrrZUwBISoAOANCuuSqAZv36y88hRPrQwK49oIOyjRPs4zqGADme+8JIypMEuxqYEhfoiaEqaPU6FUahnzWw60Gi6x8A/EaADgAAdFF4QHfZwH43q3xHn0IObnMsVFyCYSfBrmaZ1/8ks/0Aj5+fhmphbdR9+/brz3UD+92pjyV9dACSEaADQDvOVEHxjDiFgsSRmOEBXRNh3sG3331vjWD4sotMy5XqmM364Xx97rtK1O8cxJcOgOYNVQH66Em8MYMKAKkI0AGgIEYnrNWWKoCyxCBpv6Hd/yhcQh+jqO+2l2BXH+KD/9xNMtsPQNddqYJn9dHDy3ZNvYw6ra/77t0BWJkAHQDKMlQFAE/36y8/z+vNDw3t/sSLTehjFGGS2X7aOO+lmB53RwgBD5o7/xYv1TnuSlU++1o1qzc/NbDrjdhHN4McACsRoANAO1KNVnITuD5JHq7Eh9pAi+rjLky5/KGBXXtAR5ek+h1nNUI7Hp8pZqI4i7NalGKSaD+Wq4DmDVVB8dc+XtZHD9eYJpa7G4Q+uhoGYBUCdABoR6r1QI0CWp8NVQBFCw/oLhvY72aV+ZrI0HIf4yLDYz/FNXxSUmPGkX0p1pc9MNMGfFWqF4YcY+Vf+65U5YuFl9yuG9hvmEVlpnoBeCkBOgC0w8OVgiVc5/habcJ6xHWLwwO62wZ2HwImozQpXVf7GCmOzetCZ5CZZlSH0EWpXhhyj7eee7ww+jzJS9KFzVDStz76WC0D8BICdABohxHoZRsm2s+VqoT1iQ839xva/Y8JX7aBkq9181y+UHxo3rvR5/fMEu1nbKkK+KJUL0nvqMq1SHVv7SXp1fvo4XnJuKHdv6+vYZ6jAPBsAnQAaMdVov1sqsq16Oq0ttA7cRTpDw3t/sQDOgqWKsDJaQ30SYJ9hBFxRa6jGl8a+pBgV+ElBKPQ4fNjLFnfXv+h6Hu8K1WZ5HgK19p3De1+7kUwAJ7rG1UAQHTd0xu/Vr5zeIBZ37Al2VcY4VjoNKIlG5X0e2uYBw8Urz6HTuOD6oPEuw4h0yyep2/UNKVIGdykDJRW/E5htolBgl1NCz+ep4nOdeOq3JH40KTLKs1LzuE87GXbMu/x3Jun60NMYp9kr4E++rwyox8AzyBAB+DOLNysqIZGnVVpRneN3KS3J76pnmrkfxceipkFoTkemraovuaN4wO6zQaOkVnV3FTx0IRRov1cZvSdUo2YnhV+rruoz3Up+qCDMCV+vb+ZwwU+cZWoLzEq/XzT42vflapMalwtn3ck76PX17Hw3GusigF4ClO4A0B7UoVjI1XZqlGGvwEyknA6QCOW13N83zaw3736dzFRvfTwWpfL6PPwfVK8tPghToNeummi/TivgXu8rvTfw0uUG+7x8hNnfRk31Ec/CC+DqWUAnkKADgDtSXVjvWP9rlalGkV6mcEUsLeasxGmAixUPCZHDe3+bZxCGkqQaqrUXEKEcaL9TLvQuHFd2esEuxrElxOA380T7WdgHfRWJTuX5bJ0Scf66BcJr+V/9N6xBsBTCNABoD3zhPsSyrRnlGg/OTxYSVIGD8/pkviA7nVDu595QEfuEr/oMc/g+wyrNGt+n3UsFDEKHZrpR6Q87+ljt2ecaD9nqrKxYyu8/PWuod3PDUoA4DHWQAeA9m4Ar+qbtDD6Z5Bgd+Fh90ytNisGxYNEu5ur0c5KFZAavbK+8/MsHu8HiXcdpgZd7DuDGSjgoT5FCreZBM6ThP2ASYfaOVVQEGZC2jLiEj4RQtQUy0YcVR2Z+SLze7xhlW59bfd4zfbRJ/Fl1L3Eu96IbedFVwC+SoAOAO0KN2kpApqwvu4rgUzjxonbft1S/V62Kg+L7ksSSjie16uu/3F8QLeZeNdhf7PKzCFkKI6+SvXbnHfs++xUaQKxLjqqmptaF0q9x0txvhh4QcU9Hl9sr3kTffT6eJuFewBVDMCXmMIdANqV8gbbjV6DEj+ED+ufX2XwtVI9jDPd3adSjFywPn0eRg21xV7HRrLSHeE6t5FhH+eljhJ+H77uII7gBJZOEp/HaFaq++jbxFP48wXxJeNxQ330cD1zzAHwRQJ0AGiXhyvl6FqoEKQa4Tzy8/jEMME+jDTKQHxA19Tv+23itaYht77ESce+D+oantp/CP24VOHevrWZmxP7YqmW6DpRo60eY+OGdv9jXMoJAD4hQAeAdm/8QjjzMdHuwhR/Y7XamEnCfc0y+U6pQlprxX0qxXSCV6oxm/P0/2/v7o7bONI1APfZ8r18IiBPBJIjIDYCcSMg6CtfragIDEUgKgKDESwdwYIRmIpgwQykCPbgGzZoSKZl/nRjemaepwoFe7c8IAYzPd399k/cJ6eVDr/My8RD73JncanlUHtfaSXXicw+35+5kA++UCpMjXLMAJV6Sp7bldO51zp63GNva92/VlYB4GsCdADYv5Ij1edOZ3m5E77UzISbhvYxXBc6zgsdDHfXyqyx34YCNvfscvN2UeHQ0Sm+FDrRiEXBYy1H9n14WHkm5ANtvKHV248a/c15WB39vGId/VIdHYBdAnQA2L+SDe0jy41VsWj0936WwrMDzaK9Ver+s4R7Yzb3y3zzdlXh0C+TDld6NrYQIX+fA7/s3s2dArirN0Q5eFPocAf2ZW6+jXeRV5dj/+Le+Fipjn7u9AKwJUAHgD3LDe2So6aXzmo5hWefpwYb4aUCwZmrpVNqIIEAvU2xT+ZNhePG4CcddPRpUfK50vfy7cns877YTgi+VHIw0cJs2KJtvGi7mH0+Ark/Jeronysc/sTgFQC2BOgA0I9lwWOZoVBI7qRaFDxkC6HC10oFtceumM7rAsf43OB1QqreQfdG8ERPz7q47kqGCMuev8+rwt+Hx1k4BXCn5OA42yS0+9vc5BUH6K+Ovq7YHn1vlT8AggAdAPpp8K1S2VmNZiiUEZ1UJWefLxv8jqUC9IOp74O++f7Hjf0m1Cmvr1O9DuzzHP7BvsqtqCuUDBFiAFDfzzoBU78OBA1wV2dYp7Lbv/ysnlDk2RfPiZcjb+NN8X5bbd7eVjr85dTbugAI0AGgT4uCx3qhIf88uXPq54KHvGkgVLjPquCxpj4L/bjB34QK8r38ocKho+y+NACKPVrm666UXrciyJ3bJ37WUdVpwf3QUDk7gjbeYeHf5LPfpKk6evwWFxUOrY4OgAAdAHp0mcouC/y64IzYSckN42XhwzbZsZJnxpRa/WA+8UtHgD4hm3snZi9dVTj0QbKPJvt51kWZ/brgIVsIEcw+b8ORWbJwV19YpbIrjR3ZrutZoo1XcuDYZd7ih3bE/fGxwnFfJoMlACZNgA4APckN79INsqWlxp5kkcou6xehwrLh77sqdJyXU+0wz0HUi0JlwcotOBgxaOKmwnGjc1wHHTXLrFcV6hy9hgh58Nvcr9sMAR982bYo6b1BKk96TkS5dNT4b8vz21Kfch39c4XDnxjAAjBdAnQA6Nd54YZet9SY0/pwOQh9U/p3bXxmwqrgsabaoTAvdJxf3YXDUbmD7k2yLQJ1nnPbVVZKzsD73ED5f1b4O/E8JwZxwl19Icrc0gPuLCf9uGdfDDh4X/iwF3k1L9q759YV69Hv1dEBpkmADgD9NvQijFkUPmzMCl46u3+t0oy8m9T+Um8lB1lMrsN8831nqdxslpU7cXDl9nWqFxy+dIapVOaXvrZaGCg299M2xyw9qFdG2fLl4XX17yvUsT8ns89br6PHb/5WHR2AUr5zCgCg94beeV4W7KDgYSPUvI5jO8P32+lYKT17bdH6vnjx922+f8x8LrUX7iJNK8hYFDyWjtBhltvLPADnjbNB48+6ZSq/fG3ve5/n1WNK1JuuNvfzzHXSnc9fChxqvjnWwv7AcBvmbe6Hq8JlcGz5stwce+4M772Nd272+SDuu/NcRz9xNgB4LjPQAaAN8wrHfJ87RPlKxY6Vj3nJxiEwC/1p184slesI/agjbrg2v10MfLIEPy2XV/E8qtGBfNZAQLoodBwDDX+vE5TYmiLqVWahw055WeGYUe9Wdn27jVd6tvAQVhjj9zr6PNpZzgQAzyVAB4A2GnnR0K8RxPwiRP9SxY6VMKRO41Kd5VvLiVw7Jb+njrjhi/JVBx0tlldRVtUIz6/6HiiWBzKVmH1+s/kuVgFJd1sKlXomqXfC7/dWbPvyocKh32jj/Wndukobz8oagzMr3NYFYIIE6ADQjrNKjTwhelY5PP+QB0IMQu4EKhkcxJKSxyO/hBap3FYLn5Pl2wcv30fzpIOOhp5zsYVLqhOef05thKOLQscxiOlLy0LHOVDvhD+UWTeV2njKsd+ffatUb+CYOvsw6+gzZwKA5xCgA0A7jbx1Kru38q7oYFlM+fzmvdBWqU54flPxt6updKfbcqxLuecZjyX3u740k2U0ZXeElXNngpE/58Ki720n8jOmxDYaMRhg6ar5Qz30otS14ozC3b31qWI94U1ecWTKz77tAOmjCodvZeAYT6+jnzoTADyVAB0A2mrkRaBZa0/dn6ODJXcyTMoeQoX5EMPQ3KlwVfCQsffp5diusRzYlJ55slDijarsjuvjnTNBj+XUvPJz7irXUfpWquxcGsR0/3kpdJyDPPAMSHfbdX2odPjYE3014TbedcVn31nfA8d49r0Xz7ULZwKApxCgA0B75qnecsCxrN1qrLOE77P5rrE0/m/pNtyt4d2Qlm6/R+lA5GUa0bK4uTPysvD1c6Uzbnw2v+ki1RsABX9aRm1eUUb9UvE5F3WS4wa+62EqtzyvZY/vL8eiPlNqYN3CGYU/3BMfKx07Zl9f50B5Ks+/aDNHmXVQ6SMucvjK8J9t84r3HgAjJkAHgPYaeDEjqmZHdQSc12Pfn3InVHhf8WOucmg25OstzlHpDoWTMSwnubMkZOlZLYvEWM2TDjr2V0bF9bbevF5X/qhZI7O1S9VbLgxi+qZSz++jKYV58MA2XpRjtQZKR5D8Wx48PPY2XpRTNQeORV3uzFU7KrOK9x4AIyVAB4AG5RlAbyt+RHQ2xL7ol2Ocjb75TjEAYZ3qhgpNzMgrpEYH0aBD9Irh+a8DX7GAb5fdtTvHIcqnWSzXm+qGB1unebuPFsrkUs+qpavom+VYnJ+bhusXMOT76zrV31P7fV7SfYxtvFm6XbL9pOLHdPue2+ZjlHX0mTMBwGMI0AGg3UZeLC9ae7+uCJhjNvpiDOcsOopyqPCvVDdUiI6V2Vg6Vgov2borQvTroe3JmGfMrVOd/RSFCeMvu/fROc4E7QTn/063y/XW9qGh5WvnhZ7rHw1iepBSS9yfTGnbIHhgPSFWf3pX+WPiGfGfaOONYW/03MZb5uffQeWPm7cwcIxqdfRTZwKAhxKgA0Dbjbx5qr8ccHRI//zjT/9cD3VZ952l/P6T9hMqnI2wY6VWsBsh9DqvCjCEa2mxefst1RmA8cGywZMpu/fROc5ERPm55+A8xDLnLQ34KfW32Pv8YaJO9bmx3w7GVE+I+ubFHj7q51wPH3IbL85V7VnnW6e5Dsd4773lnu49AEZAgA4A7Zul/eypG6P5fxlSkL4zG2Gd9tOpEk4bmpFXTB4QUCvwizD6Xy1vGZBndsY5+LnSR8RyuAvF2XTkzvFfnQme8XyLmYPxfItVVY72+PEXeQBfK+dinsrMOLwZ4/O7UvkVK+yUCpHmY5gBCxXus/me6gkvdtt4Q7gfd4Lzda6bv9jDx154Rkzq3rtyJgD4K985BQDQfAPvU97vbZXqLCn9tW2Qvki3M5CWrc2azecjGr4ne/7o0zF3rETgl2eK17rOYsuACKpjBuB5C0vg50B/sYdryV6K0zTfY9nNwOXtI7bPt76umabC88ze5/0o9Wx8kX/DhVMKvdYTujZe1MHzAOTzBtt4r3J5se82XovPPuqKNu91qr8lAAADJkAHgAHoIURPuTEZI/5jefcYob3cvC77CgFzh8o8N3b7aOi+m8ishDjHv1U8/oud6yqWzzvvYzn8PFAgOuj2tY/wSkk22bJ720H3whnhnufaNjSfpf47cZsLEHLdp0S9J5Yjt3z748qvmK0as2NfF6pbLJxVaKKNF/WRN/HafPbHnTbeuqdy/jC37856eg4Kz6ddR1+powPwZwToADCsRt4s9TOb8Si/fskdLbGs56pmKJg7UyJYiIZtfO8+g4XTqSzpF2H25ty/3fzj+z18XMwuOdl83k2+pi5rXVN5ucpZvp7ita+Oko+N7SPM/u+pde6g+7ezMT05JP8+v+KfD/PrqLE/9UOjZdWi0HEurQLyJDHooESAfhBLR1seGZpr473Mdf73uY232r5qlZk7dfJtvbzPNp7wfNr3XrR7o+7zi7MBwH0E6AAwrEZenx0sWy/zK2YQx79HZ0vMrlznvys9JgTNnSjbgOHVzquV5dROp9bhu/m+5zn02dfyifFbb2fCxL9f7VxT3ftjZsXsBFZxrxzm66mP+yVmPB4ruYgycY8DUyZnc25XDf05RwM8hU0+5/JAulLnc+FOeXLZ9bHQMzR+g6WzCve38aK+mpdWP+npz9i28d7kMvjjTl08XvE3Xj80WB9AG++DQa5E/Se3Hd84GwB8TYAOAMNr5LXQwbJr29kSYmnulEPQrat7/pvvU/t7Akf4GbOlLid6nc1zZ0Ifv9N2xYM7O9dUzFZf3/PfxN/6orHrZ9ba3pL0ek/te2DKlBw5BU8up44b3mJiUeg4V8riZ4lZ6CVm58Us9JktTeAv69/R1mshzNu28V7/SZ08AvZPA2zjhVMrYrBz353lOrr6JABf+JtTAACDbejNN2/vBvCnHt3zar1jJULa2VTD8x2zdNs51pKDP7mmWtu77qyPvd1p3lmD9xTTFIPbDlsNM/PMxVKDTRZ+7mfVN5fpdrCF3wL2c89FXeF0AH/qywG28aIs+7vwnHsc5z4AALgjQAeAAds0/hebt3+kch2b3IYKr4Sfd6sdzJLA77HMauFb99SxMpuevdtci7PG9wQvtazujRnPRZwXOs5RnuUHfLu+EPXIH5JAr6SPuY3nmYA6OgAPIkAHgOE39mKWdHRGXjkbzzaEUGHf15cQ/XGE5/zVPbVOtx10sG9Rjv+QB981K88+LxWgL/zsRZwXPJY9h+Fh9YXr3Mb71dl4tg/J1ko87J7zjALgjgAdAMbR2FtH8JuGsaR7i2J2R/OhQo/X1zZEN0jjz1kSksfcU6vN21tngj2WTzFAbCirq8QAkxLbcnxWJhetB1wUOtzJjz/989BZhYfde5vXca4zmBn7tOffP2JZfAOkeeA9F/WGD84EAEGADgDjavAt0u1yf2YLP1w0kC3Z/tfX1qc8SEOHwh/F/TazJCSPvKdiRueFM0FlF/kZtxjQ31zqbz338xdlFjr0W2ew4tjjxMz9w7xaGzzmfjtzrwEQBOgAML4G33XMMktmKvyVaBT/YEbCo6+v6FA4dW3dic65mQEYPFHcTwY8UesZF6tizIe0ZO2PP/1zvnk7KHS4pcugbP0ylQsU5nmpfuDh9+B2xbF/JHujf8tNfv4da+PxDMfq6AAI0AFgpPJMhcNkxvDXolPlNO91LvR82rW1TGbBfM7Xkc45nnMvbbdHMCCFUrbB+VBXxZgXOs6FvW6rKDULPZboNwsdnlZ3uMz18HfqD3+om8d2JYdWhaJQHX3uHgOYNgE6AIy84ZdnDP9fslRw16mSbpeyXbo6nn1tbWfBTHGlg19dR5Qsp9NtiA7PEc/4HwYcnMfs87gPjgodzvLtdcqrCO5KzXydO6PwrDbeIt0G6dp4t228w4FtV0L799m1ZxXAtAnQAWAajb8IO6PxN8Ug/YtOFbOFi19bU1rpIJbx2y4JufbrU/A+ig66U2eCR7rJz7f/zUu1D31VlVIzkq+sMFPVotBxDvKS/UC5Nt6UBrVq47GPe+wyX2cATNB3TgEATKoBuE63+04u0u1o6uisfjHSrxth57lZwnu5rqLD6mxzXUWYHtfWyci+YoRUC9cSle+jZZ6Be+Js8A0RGFzm59toQuLNtX+4eXtd6HDK6rq6669Q/XHh94Kibbzvc/su2nkHI/26N7kMWgrN2dP9tdjcW68K1lMAGAgBOgBMsxG4Tredlos8++d4JA3CUQYLA7uutgM0tp13Qx6gcZWvpUu/Lnu6h+a5g+6ls8GOGBC2iufbiPd1XRQ6zo3BTtXLqU+bcirO8ZsCh4tZ6DP7FUO5+3OnjXec6+JjCf1ihv1SeUFP5rkupo4OMCECdACYuNzRvMyzv7YdLUNqGG5D80tBZzPX1DrdBuhnAxygcZN+H4Sx9mvSg9nmFdfeC6disiIwj0Fgq3iNvSzKMyZLrbxg7/P9iPP8ptCxFrncA8rWx7v2US5jj9MwB0z/utPOM9ucPu+nT7ldu1JHB5gOAToAsG0UrtNth+j5TkfLLL+31kjczsZbCc2bv66W6XaAxm7n3ayxa2p7PS2tXEAD98ynvJT7b87G6MUAsOv8imfw9URn1p0VPJ9Ll9V+6oybcipmg5YY+HAUK294/kK9ekUuG7f18dlOfby1Zd5vcp38MrfzhOa0dC9d5xD9X84GwDQI0AGGLxqVVwWOs3Yq2Wkc3nW0xL/n2emzzetVfh3t8c/ZBgyr7bvOlFFcU7Odayre9xmoX6UvZ3e6nh5OwLGf+yU66E7T7YogY36mX438p/z01T2zzq9PwsIvvCp0LZihuF/xPD8sdKzZQJ4v2lzasGOoj1/mV99tvN06+baN5/dUp2r9HopVHd6m20EoyiyAkfuf//73v84CAPBoeZ/e7SyGeH+V/694f2wYerPTmFyl30OHtY6UyVxP22vo1c71FO+H6fGzY7aDLlJ+372ehFYAAHB/nfww179n+X/avj+lTv51G2/7ro0HADRPgA4AVLfTERN0mFDyejKTEwAAtPEAAIoRoAMAAAAAAADAxt+cAgAAAAAAAAAQoAMAAAAAAABAR4AOAAAAAAAAAEmADgAAAAAAAAAdAToAAAAAAAAAJAE6AAAAAAAAAHQE6AAAAAAAAACQBOgAAAAAAAAA0BGgAwAAAAAAAEASoAMAAAAAAABAR4AOAAAAAAAAAEmADgAAAAAAAAAdAToAAAAAAAAAJAE6AAAAAAAAAHQE6AAAAAAAAACQBOgAAAAAAAAA0BGgAwAAAAAAAEASoAMAAAAAAABAR4AOAAAAAAAAAEmADgAAAAAAAAAdAToAAAAAAAAAJAE6AAAAAAAAAHQE6AAAAAAAAACQBOgAAAAAAAAA0BGgAwAAAAAAAEASoAMAAAAAAABAR4AOAAAAAAAAAEmADgAAAAAAAAAdAToAAAAAAAAAJAE6AAAAAAAAAHQE6AAAAAAAAACQBOgAAAAAAAAA0BGgAwAAAAAAAEASoAMAAAAAAABAR4AOAAAAAAAAAEmADgAAAAAAAAAdAToAAAAAAAAAJAE6AAAAAAAAAHQE6AAAAAAAAACQBOgAAAAAAAAA0BGgAwAAAAAAAEASoAMAAAAAAABAR4AOAAAAAAAAAEmADgAAAAAAAAAdAToAAAAAAAAAJAE6AAAAAAAAAHQE6AAAAAAAAACQBOgAAAAAAAAA0BGgAwAAAAAAAEASoAMAAAAAAABAR4AOAAAAAAAAAEmADgAAAAAAAAAdAToAAAAAAAAAJAE6AAAAAAAAAHQE6AAAAAAAAACQBOgAAAAAAAAA0BGgAwAAAAAAAEASoAMAAAAAAABAR4AOAAAAAAAAAEmADgAAAAAAAAAdAToAAAAAAAAAJAE6AAAAAAAAAHQE6AAAAAAAAACQBOgAAAAAAAAA0BGgAwAAAAAAAEASoAMAAAAAAABAR4AOAAAAAAAAAEmADgAAAAAAAAAdAToAAAAAAAAAJAE6AAAAAAAAAHQE6AAAAAAAAACQBOgAAAAAAAAA0BGgAwAAAAAAAEASoAMAAAAAAABAR4AOAAAAAAAAAEmADgAAAAAAAAAdAToAAAAAAAAAJAE6AAAAAAAAAHQE6AAAAAAAAACQBOgAAAAAAAAA0BGgAwAAAAAAAEASoAMAAAAAAABAR4AOAAAAAAAAAEmADgAAAAAAAAAdAToAAAAAAAAAJAE6AAAAAAAAAHQE6AAAAAAAAACQBOgAAAAAAAAA0BGgAwAAAAAAAEASoAMAAAAAAABAR4AOAAAAAAAAAEmADgAAAAAAAAAdAToAAAAAAAAAJAE6AAAAAAAAAHQE6AAAAAAAAACQBOgAAAAAAAAA0BGgAwAAAAAAAEASoAMAAAAAAABAR4AOAAAAAAAAAEmADgAAAAAAAAAdAToAAAAAAAAAJAE6AAAAAAAAAHQE6AAAAAAAAACQBOgAAAAAAAAA0BGgAwAAAAAAAEASoAMAAAAAAABAR4AOAAAAAAAAAEmADgAAAAAAAAAdAToAAAAAAAAAJAE6AAAAAAAAAHQE6AAAAAAAAACQBOgAAAAAAAAA0BGgAwAAAAAAAEASoAMAAAAAAABAR4AOAAAAAAAAABv/D9niF1eH8KRgAAAAAElFTkSuQmCC;" vertex="1" parent="1">
          <mxGeometry x="1490" y="1000" width="150" height="150" as="geometry" />
        </mxCell>
        <mxCell id="MXacxPHh818Y2eHlZTsX-104" value="FUNNELS" style="rounded=0;whiteSpace=wrap;html=1;shadow=0;labelBackgroundColor=#ffffff;fontSize=20;align=center;fontStyle=1;fontFamily=Montserrat;fontSource=https%3A%2F%2Ffonts.googleapis.com%2Fcss%3Ffamily%3DMontserrat;strokeColor=#FFFFFF;" vertex="1" parent="1">
          <mxGeometry x="1077.5" y="45" width="120" height="27" as="geometry" />
        </mxCell>
      </root>
    </mxGraphModel>
  </diagram>
</mxfile>
